<?xml version="1.0" encoding="utf-8" standalone="no"?>
<!DOCTYPE svg PUBLIC "-//W3C//DTD SVG 1.1//EN"
  "http://www.w3.org/Graphics/SVG/1.1/DTD/svg11.dtd">
<svg xmlns:xlink="http://www.w3.org/1999/xlink" width="1368pt" height="720pt" viewBox="0 0 1368 720" xmlns="http://www.w3.org/2000/svg" version="1.1">
 <metadata>
  <rdf:RDF xmlns:dc="http://purl.org/dc/elements/1.1/" xmlns:cc="http://creativecommons.org/ns#" xmlns:rdf="http://www.w3.org/1999/02/22-rdf-syntax-ns#">
   <cc:Work>
    <dc:type rdf:resource="http://purl.org/dc/dcmitype/StillImage"/>
    <dc:date>2024-10-21T12:09:04.159119</dc:date>
    <dc:format>image/svg+xml</dc:format>
    <dc:creator>
     <cc:Agent>
      <dc:title>Matplotlib v3.9.2, https://matplotlib.org/</dc:title>
     </cc:Agent>
    </dc:creator>
   </cc:Work>
  </rdf:RDF>
 </metadata>
 <defs>
  <style type="text/css">*{stroke-linejoin: round; stroke-linecap: butt}</style>
 </defs>
 <g id="figure_1">
  <g id="patch_1">
   <path d="M 0 720 
L 1368 720 
L 1368 0 
L 0 0 
z
" style="fill: #ffffff"/>
  </g>
  <g id="axes_1">
   <g id="patch_2">
    <path d="M 36.403365 657.633183 
L 1353.150906 657.633183 
L 1353.150906 3.00024 
L 36.403365 3.00024 
z
" style="fill: #ffffff"/>
   </g>
   <g id="matplotlib.axis_1">
    <g id="xtick_1">
     <g id="line2d_1">
      <path d="M 36.403365 657.633183 
L 36.403365 3.00024 
" clip-path="url(#pf0f4841ebe)" style="fill: none; stroke-dasharray: 0.925,0.4; stroke-dashoffset: 0; stroke: #b0b0b0; stroke-width: 0.25"/>
     </g>
     <g id="line2d_2">
      <defs>
       <path id="m22be2d259d" d="M 0 0 
L 0 3.5 
" style="stroke: #000000; stroke-width: 0.8"/>
      </defs>
      <g>
       <use xlink:href="#m22be2d259d" x="36.403365" y="657.633183" style="stroke: #000000; stroke-width: 0.8"/>
      </g>
     </g>
     <g id="text_1">
      <!-- 1a5f17 -->
      <g transform="translate(31.487588 699.654409) rotate(-65) scale(0.1 -0.1)">
       <defs>
        <path id="DejaVuSans-31" d="M 794 531 
L 1825 531 
L 1825 4091 
L 703 3866 
L 703 4441 
L 1819 4666 
L 2450 4666 
L 2450 531 
L 3481 531 
L 3481 0 
L 794 0 
L 794 531 
z
" transform="scale(0.015625)"/>
        <path id="DejaVuSans-61" d="M 2194 1759 
Q 1497 1759 1228 1600 
Q 959 1441 959 1056 
Q 959 750 1161 570 
Q 1363 391 1709 391 
Q 2188 391 2477 730 
Q 2766 1069 2766 1631 
L 2766 1759 
L 2194 1759 
z
M 3341 1997 
L 3341 0 
L 2766 0 
L 2766 531 
Q 2569 213 2275 61 
Q 1981 -91 1556 -91 
Q 1019 -91 701 211 
Q 384 513 384 1019 
Q 384 1609 779 1909 
Q 1175 2209 1959 2209 
L 2766 2209 
L 2766 2266 
Q 2766 2663 2505 2880 
Q 2244 3097 1772 3097 
Q 1472 3097 1187 3025 
Q 903 2953 641 2809 
L 641 3341 
Q 956 3463 1253 3523 
Q 1550 3584 1831 3584 
Q 2591 3584 2966 3190 
Q 3341 2797 3341 1997 
z
" transform="scale(0.015625)"/>
        <path id="DejaVuSans-35" d="M 691 4666 
L 3169 4666 
L 3169 4134 
L 1269 4134 
L 1269 2991 
Q 1406 3038 1543 3061 
Q 1681 3084 1819 3084 
Q 2600 3084 3056 2656 
Q 3513 2228 3513 1497 
Q 3513 744 3044 326 
Q 2575 -91 1722 -91 
Q 1428 -91 1123 -41 
Q 819 9 494 109 
L 494 744 
Q 775 591 1075 516 
Q 1375 441 1709 441 
Q 2250 441 2565 725 
Q 2881 1009 2881 1497 
Q 2881 1984 2565 2268 
Q 2250 2553 1709 2553 
Q 1456 2553 1204 2497 
Q 953 2441 691 2322 
L 691 4666 
z
" transform="scale(0.015625)"/>
        <path id="DejaVuSans-66" d="M 2375 4863 
L 2375 4384 
L 1825 4384 
Q 1516 4384 1395 4259 
Q 1275 4134 1275 3809 
L 1275 3500 
L 2222 3500 
L 2222 3053 
L 1275 3053 
L 1275 0 
L 697 0 
L 697 3053 
L 147 3053 
L 147 3500 
L 697 3500 
L 697 3744 
Q 697 4328 969 4595 
Q 1241 4863 1831 4863 
L 2375 4863 
z
" transform="scale(0.015625)"/>
        <path id="DejaVuSans-37" d="M 525 4666 
L 3525 4666 
L 3525 4397 
L 1831 0 
L 1172 0 
L 2766 4134 
L 525 4134 
L 525 4666 
z
" transform="scale(0.015625)"/>
       </defs>
       <use xlink:href="#DejaVuSans-31"/>
       <use xlink:href="#DejaVuSans-61" x="63.623047"/>
       <use xlink:href="#DejaVuSans-35" x="124.902344"/>
       <use xlink:href="#DejaVuSans-66" x="188.525391"/>
       <use xlink:href="#DejaVuSans-31" x="223.730469"/>
       <use xlink:href="#DejaVuSans-37" x="287.353516"/>
      </g>
     </g>
    </g>
    <g id="xtick_2">
     <g id="line2d_3">
      <path d="M 77.551726 657.633183 
L 77.551726 3.00024 
" clip-path="url(#pf0f4841ebe)" style="fill: none; stroke-dasharray: 0.925,0.4; stroke-dashoffset: 0; stroke: #b0b0b0; stroke-width: 0.25"/>
     </g>
     <g id="line2d_4">
      <g>
       <use xlink:href="#m22be2d259d" x="77.551726" y="657.633183" style="stroke: #000000; stroke-width: 0.8"/>
      </g>
     </g>
     <g id="text_2">
      <!-- caf3a1 -->
      <g transform="translate(72.868058 698.658886) rotate(-65) scale(0.1 -0.1)">
       <defs>
        <path id="DejaVuSans-63" d="M 3122 3366 
L 3122 2828 
Q 2878 2963 2633 3030 
Q 2388 3097 2138 3097 
Q 1578 3097 1268 2742 
Q 959 2388 959 1747 
Q 959 1106 1268 751 
Q 1578 397 2138 397 
Q 2388 397 2633 464 
Q 2878 531 3122 666 
L 3122 134 
Q 2881 22 2623 -34 
Q 2366 -91 2075 -91 
Q 1284 -91 818 406 
Q 353 903 353 1747 
Q 353 2603 823 3093 
Q 1294 3584 2113 3584 
Q 2378 3584 2631 3529 
Q 2884 3475 3122 3366 
z
" transform="scale(0.015625)"/>
        <path id="DejaVuSans-33" d="M 2597 2516 
Q 3050 2419 3304 2112 
Q 3559 1806 3559 1356 
Q 3559 666 3084 287 
Q 2609 -91 1734 -91 
Q 1441 -91 1130 -33 
Q 819 25 488 141 
L 488 750 
Q 750 597 1062 519 
Q 1375 441 1716 441 
Q 2309 441 2620 675 
Q 2931 909 2931 1356 
Q 2931 1769 2642 2001 
Q 2353 2234 1838 2234 
L 1294 2234 
L 1294 2753 
L 1863 2753 
Q 2328 2753 2575 2939 
Q 2822 3125 2822 3475 
Q 2822 3834 2567 4026 
Q 2313 4219 1838 4219 
Q 1578 4219 1281 4162 
Q 984 4106 628 3988 
L 628 4550 
Q 988 4650 1302 4700 
Q 1616 4750 1894 4750 
Q 2613 4750 3031 4423 
Q 3450 4097 3450 3541 
Q 3450 3153 3228 2886 
Q 3006 2619 2597 2516 
z
" transform="scale(0.015625)"/>
       </defs>
       <use xlink:href="#DejaVuSans-63"/>
       <use xlink:href="#DejaVuSans-61" x="54.980469"/>
       <use xlink:href="#DejaVuSans-66" x="116.259766"/>
       <use xlink:href="#DejaVuSans-33" x="151.464844"/>
       <use xlink:href="#DejaVuSans-61" x="215.087891"/>
       <use xlink:href="#DejaVuSans-31" x="276.367188"/>
      </g>
     </g>
    </g>
    <g id="xtick_3">
     <g id="line2d_5">
      <path d="M 118.700086 657.633183 
L 118.700086 3.00024 
" clip-path="url(#pf0f4841ebe)" style="fill: none; stroke-dasharray: 0.925,0.4; stroke-dashoffset: 0; stroke: #b0b0b0; stroke-width: 0.25"/>
     </g>
     <g id="line2d_6">
      <g>
       <use xlink:href="#m22be2d259d" x="118.700086" y="657.633183" style="stroke: #000000; stroke-width: 0.8"/>
      </g>
     </g>
     <g id="text_3">
      <!-- 50c495 -->
      <g transform="translate(113.316788 701.659615) rotate(-65) scale(0.1 -0.1)">
       <defs>
        <path id="DejaVuSans-30" d="M 2034 4250 
Q 1547 4250 1301 3770 
Q 1056 3291 1056 2328 
Q 1056 1369 1301 889 
Q 1547 409 2034 409 
Q 2525 409 2770 889 
Q 3016 1369 3016 2328 
Q 3016 3291 2770 3770 
Q 2525 4250 2034 4250 
z
M 2034 4750 
Q 2819 4750 3233 4129 
Q 3647 3509 3647 2328 
Q 3647 1150 3233 529 
Q 2819 -91 2034 -91 
Q 1250 -91 836 529 
Q 422 1150 422 2328 
Q 422 3509 836 4129 
Q 1250 4750 2034 4750 
z
" transform="scale(0.015625)"/>
        <path id="DejaVuSans-34" d="M 2419 4116 
L 825 1625 
L 2419 1625 
L 2419 4116 
z
M 2253 4666 
L 3047 4666 
L 3047 1625 
L 3713 1625 
L 3713 1100 
L 3047 1100 
L 3047 0 
L 2419 0 
L 2419 1100 
L 313 1100 
L 313 1709 
L 2253 4666 
z
" transform="scale(0.015625)"/>
        <path id="DejaVuSans-39" d="M 703 97 
L 703 672 
Q 941 559 1184 500 
Q 1428 441 1663 441 
Q 2288 441 2617 861 
Q 2947 1281 2994 2138 
Q 2813 1869 2534 1725 
Q 2256 1581 1919 1581 
Q 1219 1581 811 2004 
Q 403 2428 403 3163 
Q 403 3881 828 4315 
Q 1253 4750 1959 4750 
Q 2769 4750 3195 4129 
Q 3622 3509 3622 2328 
Q 3622 1225 3098 567 
Q 2575 -91 1691 -91 
Q 1453 -91 1209 -44 
Q 966 3 703 97 
z
M 1959 2075 
Q 2384 2075 2632 2365 
Q 2881 2656 2881 3163 
Q 2881 3666 2632 3958 
Q 2384 4250 1959 4250 
Q 1534 4250 1286 3958 
Q 1038 3666 1038 3163 
Q 1038 2656 1286 2365 
Q 1534 2075 1959 2075 
z
" transform="scale(0.015625)"/>
       </defs>
       <use xlink:href="#DejaVuSans-35"/>
       <use xlink:href="#DejaVuSans-30" x="63.623047"/>
       <use xlink:href="#DejaVuSans-63" x="127.246094"/>
       <use xlink:href="#DejaVuSans-34" x="182.226562"/>
       <use xlink:href="#DejaVuSans-39" x="245.849609"/>
       <use xlink:href="#DejaVuSans-35" x="309.472656"/>
      </g>
     </g>
    </g>
    <g id="xtick_4">
     <g id="line2d_7">
      <path d="M 159.848447 657.633183 
L 159.848447 3.00024 
" clip-path="url(#pf0f4841ebe)" style="fill: none; stroke-dasharray: 0.925,0.4; stroke-dashoffset: 0; stroke: #b0b0b0; stroke-width: 0.25"/>
     </g>
     <g id="line2d_8">
      <g>
       <use xlink:href="#m22be2d259d" x="159.848447" y="657.633183" style="stroke: #000000; stroke-width: 0.8"/>
      </g>
     </g>
     <g id="text_4">
      <!-- 6e3450 -->
      <g transform="translate(154.326807 702.252963) rotate(-65) scale(0.1 -0.1)">
       <defs>
        <path id="DejaVuSans-36" d="M 2113 2584 
Q 1688 2584 1439 2293 
Q 1191 2003 1191 1497 
Q 1191 994 1439 701 
Q 1688 409 2113 409 
Q 2538 409 2786 701 
Q 3034 994 3034 1497 
Q 3034 2003 2786 2293 
Q 2538 2584 2113 2584 
z
M 3366 4563 
L 3366 3988 
Q 3128 4100 2886 4159 
Q 2644 4219 2406 4219 
Q 1781 4219 1451 3797 
Q 1122 3375 1075 2522 
Q 1259 2794 1537 2939 
Q 1816 3084 2150 3084 
Q 2853 3084 3261 2657 
Q 3669 2231 3669 1497 
Q 3669 778 3244 343 
Q 2819 -91 2113 -91 
Q 1303 -91 875 529 
Q 447 1150 447 2328 
Q 447 3434 972 4092 
Q 1497 4750 2381 4750 
Q 2619 4750 2861 4703 
Q 3103 4656 3366 4563 
z
" transform="scale(0.015625)"/>
        <path id="DejaVuSans-65" d="M 3597 1894 
L 3597 1613 
L 953 1613 
Q 991 1019 1311 708 
Q 1631 397 2203 397 
Q 2534 397 2845 478 
Q 3156 559 3463 722 
L 3463 178 
Q 3153 47 2828 -22 
Q 2503 -91 2169 -91 
Q 1331 -91 842 396 
Q 353 884 353 1716 
Q 353 2575 817 3079 
Q 1281 3584 2069 3584 
Q 2775 3584 3186 3129 
Q 3597 2675 3597 1894 
z
M 3022 2063 
Q 3016 2534 2758 2815 
Q 2500 3097 2075 3097 
Q 1594 3097 1305 2825 
Q 1016 2553 972 2059 
L 3022 2063 
z
" transform="scale(0.015625)"/>
       </defs>
       <use xlink:href="#DejaVuSans-36"/>
       <use xlink:href="#DejaVuSans-65" x="63.623047"/>
       <use xlink:href="#DejaVuSans-33" x="125.146484"/>
       <use xlink:href="#DejaVuSans-34" x="188.769531"/>
       <use xlink:href="#DejaVuSans-35" x="252.392578"/>
       <use xlink:href="#DejaVuSans-30" x="316.015625"/>
      </g>
     </g>
    </g>
    <g id="xtick_5">
     <g id="line2d_9">
      <path d="M 200.996808 657.633183 
L 200.996808 3.00024 
" clip-path="url(#pf0f4841ebe)" style="fill: none; stroke-dasharray: 0.925,0.4; stroke-dashoffset: 0; stroke: #b0b0b0; stroke-width: 0.25"/>
     </g>
     <g id="line2d_10">
      <g>
       <use xlink:href="#m22be2d259d" x="200.996808" y="657.633183" style="stroke: #000000; stroke-width: 0.8"/>
      </g>
     </g>
     <g id="text_5">
      <!-- 9caff3 -->
      <g transform="translate(196.864195 696.295405) rotate(-65) scale(0.1 -0.1)">
       <use xlink:href="#DejaVuSans-39"/>
       <use xlink:href="#DejaVuSans-63" x="63.623047"/>
       <use xlink:href="#DejaVuSans-61" x="118.603516"/>
       <use xlink:href="#DejaVuSans-66" x="179.882812"/>
       <use xlink:href="#DejaVuSans-66" x="215.087891"/>
       <use xlink:href="#DejaVuSans-33" x="250.292969"/>
      </g>
     </g>
    </g>
    <g id="xtick_6">
     <g id="line2d_11">
      <path d="M 242.145168 657.633183 
L 242.145168 3.00024 
" clip-path="url(#pf0f4841ebe)" style="fill: none; stroke-dasharray: 0.925,0.4; stroke-dashoffset: 0; stroke: #b0b0b0; stroke-width: 0.25"/>
     </g>
     <g id="line2d_12">
      <g>
       <use xlink:href="#m22be2d259d" x="242.145168" y="657.633183" style="stroke: #000000; stroke-width: 0.8"/>
      </g>
     </g>
     <g id="text_6">
      <!-- 91d7f1 -->
      <g transform="translate(237.182837 699.854079) rotate(-65) scale(0.1 -0.1)">
       <defs>
        <path id="DejaVuSans-64" d="M 2906 2969 
L 2906 4863 
L 3481 4863 
L 3481 0 
L 2906 0 
L 2906 525 
Q 2725 213 2448 61 
Q 2172 -91 1784 -91 
Q 1150 -91 751 415 
Q 353 922 353 1747 
Q 353 2572 751 3078 
Q 1150 3584 1784 3584 
Q 2172 3584 2448 3432 
Q 2725 3281 2906 2969 
z
M 947 1747 
Q 947 1113 1208 752 
Q 1469 391 1925 391 
Q 2381 391 2643 752 
Q 2906 1113 2906 1747 
Q 2906 2381 2643 2742 
Q 2381 3103 1925 3103 
Q 1469 3103 1208 2742 
Q 947 2381 947 1747 
z
" transform="scale(0.015625)"/>
       </defs>
       <use xlink:href="#DejaVuSans-39"/>
       <use xlink:href="#DejaVuSans-31" x="63.623047"/>
       <use xlink:href="#DejaVuSans-64" x="127.246094"/>
       <use xlink:href="#DejaVuSans-37" x="190.722656"/>
       <use xlink:href="#DejaVuSans-66" x="254.345703"/>
       <use xlink:href="#DejaVuSans-31" x="289.550781"/>
      </g>
     </g>
    </g>
    <g id="xtick_7">
     <g id="line2d_13">
      <path d="M 283.293529 657.633183 
L 283.293529 3.00024 
" clip-path="url(#pf0f4841ebe)" style="fill: none; stroke-dasharray: 0.925,0.4; stroke-dashoffset: 0; stroke: #b0b0b0; stroke-width: 0.25"/>
     </g>
     <g id="line2d_14">
      <g>
       <use xlink:href="#m22be2d259d" x="283.293529" y="657.633183" style="stroke: #000000; stroke-width: 0.8"/>
      </g>
     </g>
     <g id="text_7">
      <!-- d4393c -->
      <g transform="translate(277.913202 701.64687) rotate(-65) scale(0.1 -0.1)">
       <use xlink:href="#DejaVuSans-64"/>
       <use xlink:href="#DejaVuSans-34" x="63.476562"/>
       <use xlink:href="#DejaVuSans-33" x="127.099609"/>
       <use xlink:href="#DejaVuSans-39" x="190.722656"/>
       <use xlink:href="#DejaVuSans-33" x="254.345703"/>
       <use xlink:href="#DejaVuSans-63" x="317.96875"/>
      </g>
     </g>
    </g>
    <g id="xtick_8">
     <g id="line2d_15">
      <path d="M 324.44189 657.633183 
L 324.44189 3.00024 
" clip-path="url(#pf0f4841ebe)" style="fill: none; stroke-dasharray: 0.925,0.4; stroke-dashoffset: 0; stroke: #b0b0b0; stroke-width: 0.25"/>
     </g>
     <g id="line2d_16">
      <g>
       <use xlink:href="#m22be2d259d" x="324.44189" y="657.633183" style="stroke: #000000; stroke-width: 0.8"/>
      </g>
     </g>
     <g id="text_8">
      <!-- eb78e7 -->
      <g transform="translate(318.967464 702.05046) rotate(-65) scale(0.1 -0.1)">
       <defs>
        <path id="DejaVuSans-62" d="M 3116 1747 
Q 3116 2381 2855 2742 
Q 2594 3103 2138 3103 
Q 1681 3103 1420 2742 
Q 1159 2381 1159 1747 
Q 1159 1113 1420 752 
Q 1681 391 2138 391 
Q 2594 391 2855 752 
Q 3116 1113 3116 1747 
z
M 1159 2969 
Q 1341 3281 1617 3432 
Q 1894 3584 2278 3584 
Q 2916 3584 3314 3078 
Q 3713 2572 3713 1747 
Q 3713 922 3314 415 
Q 2916 -91 2278 -91 
Q 1894 -91 1617 61 
Q 1341 213 1159 525 
L 1159 0 
L 581 0 
L 581 4863 
L 1159 4863 
L 1159 2969 
z
" transform="scale(0.015625)"/>
        <path id="DejaVuSans-38" d="M 2034 2216 
Q 1584 2216 1326 1975 
Q 1069 1734 1069 1313 
Q 1069 891 1326 650 
Q 1584 409 2034 409 
Q 2484 409 2743 651 
Q 3003 894 3003 1313 
Q 3003 1734 2745 1975 
Q 2488 2216 2034 2216 
z
M 1403 2484 
Q 997 2584 770 2862 
Q 544 3141 544 3541 
Q 544 4100 942 4425 
Q 1341 4750 2034 4750 
Q 2731 4750 3128 4425 
Q 3525 4100 3525 3541 
Q 3525 3141 3298 2862 
Q 3072 2584 2669 2484 
Q 3125 2378 3379 2068 
Q 3634 1759 3634 1313 
Q 3634 634 3220 271 
Q 2806 -91 2034 -91 
Q 1263 -91 848 271 
Q 434 634 434 1313 
Q 434 1759 690 2068 
Q 947 2378 1403 2484 
z
M 1172 3481 
Q 1172 3119 1398 2916 
Q 1625 2713 2034 2713 
Q 2441 2713 2670 2916 
Q 2900 3119 2900 3481 
Q 2900 3844 2670 4047 
Q 2441 4250 2034 4250 
Q 1625 4250 1398 4047 
Q 1172 3844 1172 3481 
z
" transform="scale(0.015625)"/>
       </defs>
       <use xlink:href="#DejaVuSans-65"/>
       <use xlink:href="#DejaVuSans-62" x="61.523438"/>
       <use xlink:href="#DejaVuSans-37" x="125"/>
       <use xlink:href="#DejaVuSans-38" x="188.623047"/>
       <use xlink:href="#DejaVuSans-65" x="252.246094"/>
       <use xlink:href="#DejaVuSans-37" x="313.769531"/>
      </g>
     </g>
    </g>
    <g id="xtick_9">
     <g id="line2d_17">
      <path d="M 365.59025 657.633183 
L 365.59025 3.00024 
" clip-path="url(#pf0f4841ebe)" style="fill: none; stroke-dasharray: 0.925,0.4; stroke-dashoffset: 0; stroke: #b0b0b0; stroke-width: 0.25"/>
     </g>
     <g id="line2d_18">
      <g>
       <use xlink:href="#m22be2d259d" x="365.59025" y="657.633183" style="stroke: #000000; stroke-width: 0.8"/>
      </g>
     </g>
     <g id="text_9">
      <!-- dcf161 -->
      <g transform="translate(360.810503 699.070973) rotate(-65) scale(0.1 -0.1)">
       <use xlink:href="#DejaVuSans-64"/>
       <use xlink:href="#DejaVuSans-63" x="63.476562"/>
       <use xlink:href="#DejaVuSans-66" x="118.457031"/>
       <use xlink:href="#DejaVuSans-31" x="153.662109"/>
       <use xlink:href="#DejaVuSans-36" x="217.285156"/>
       <use xlink:href="#DejaVuSans-31" x="280.908203"/>
      </g>
     </g>
    </g>
    <g id="xtick_10">
     <g id="line2d_19">
      <path d="M 406.738611 657.633183 
L 406.738611 3.00024 
" clip-path="url(#pf0f4841ebe)" style="fill: none; stroke-dasharray: 0.925,0.4; stroke-dashoffset: 0; stroke: #b0b0b0; stroke-width: 0.25"/>
     </g>
     <g id="line2d_20">
      <g>
       <use xlink:href="#m22be2d259d" x="406.738611" y="657.633183" style="stroke: #000000; stroke-width: 0.8"/>
      </g>
     </g>
     <g id="text_10">
      <!-- baaa3d -->
      <g transform="translate(401.327248 701.779984) rotate(-65) scale(0.1 -0.1)">
       <use xlink:href="#DejaVuSans-62"/>
       <use xlink:href="#DejaVuSans-61" x="63.476562"/>
       <use xlink:href="#DejaVuSans-61" x="124.755859"/>
       <use xlink:href="#DejaVuSans-61" x="186.035156"/>
       <use xlink:href="#DejaVuSans-33" x="247.314453"/>
       <use xlink:href="#DejaVuSans-64" x="310.9375"/>
      </g>
     </g>
    </g>
    <g id="xtick_11">
     <g id="line2d_21">
      <path d="M 447.886971 657.633183 
L 447.886971 3.00024 
" clip-path="url(#pf0f4841ebe)" style="fill: none; stroke-dasharray: 0.925,0.4; stroke-dashoffset: 0; stroke: #b0b0b0; stroke-width: 0.25"/>
     </g>
     <g id="line2d_22">
      <g>
       <use xlink:href="#m22be2d259d" x="447.886971" y="657.633183" style="stroke: #000000; stroke-width: 0.8"/>
      </g>
     </g>
     <g id="text_11">
      <!-- c598fd -->
      <g transform="translate(443.107224 699.070973) rotate(-65) scale(0.1 -0.1)">
       <use xlink:href="#DejaVuSans-63"/>
       <use xlink:href="#DejaVuSans-35" x="54.980469"/>
       <use xlink:href="#DejaVuSans-39" x="118.603516"/>
       <use xlink:href="#DejaVuSans-38" x="182.226562"/>
       <use xlink:href="#DejaVuSans-66" x="245.849609"/>
       <use xlink:href="#DejaVuSans-64" x="281.054688"/>
      </g>
     </g>
    </g>
    <g id="xtick_12">
     <g id="line2d_23">
      <path d="M 489.035332 657.633183 
L 489.035332 3.00024 
" clip-path="url(#pf0f4841ebe)" style="fill: none; stroke-dasharray: 0.925,0.4; stroke-dashoffset: 0; stroke: #b0b0b0; stroke-width: 0.25"/>
     </g>
     <g id="line2d_24">
      <g>
       <use xlink:href="#m22be2d259d" x="489.035332" y="657.633183" style="stroke: #000000; stroke-width: 0.8"/>
      </g>
     </g>
     <g id="text_12">
      <!-- faf315 -->
      <g transform="translate(484.720135 697.078512) rotate(-65) scale(0.1 -0.1)">
       <use xlink:href="#DejaVuSans-66"/>
       <use xlink:href="#DejaVuSans-61" x="35.205078"/>
       <use xlink:href="#DejaVuSans-66" x="96.484375"/>
       <use xlink:href="#DejaVuSans-33" x="131.689453"/>
       <use xlink:href="#DejaVuSans-31" x="195.3125"/>
       <use xlink:href="#DejaVuSans-35" x="258.935547"/>
      </g>
     </g>
    </g>
    <g id="xtick_13">
     <g id="line2d_25">
      <path d="M 530.183693 657.633183 
L 530.183693 3.00024 
" clip-path="url(#pf0f4841ebe)" style="fill: none; stroke-dasharray: 0.925,0.4; stroke-dashoffset: 0; stroke: #b0b0b0; stroke-width: 0.25"/>
     </g>
     <g id="line2d_26">
      <g>
       <use xlink:href="#m22be2d259d" x="530.183693" y="657.633183" style="stroke: #000000; stroke-width: 0.8"/>
      </g>
     </g>
     <g id="text_13">
      <!-- 109062 -->
      <g transform="translate(524.61781 702.442721) rotate(-65) scale(0.1 -0.1)">
       <defs>
        <path id="DejaVuSans-32" d="M 1228 531 
L 3431 531 
L 3431 0 
L 469 0 
L 469 531 
Q 828 903 1448 1529 
Q 2069 2156 2228 2338 
Q 2531 2678 2651 2914 
Q 2772 3150 2772 3378 
Q 2772 3750 2511 3984 
Q 2250 4219 1831 4219 
Q 1534 4219 1204 4116 
Q 875 4013 500 3803 
L 500 4441 
Q 881 4594 1212 4672 
Q 1544 4750 1819 4750 
Q 2544 4750 2975 4387 
Q 3406 4025 3406 3419 
Q 3406 3131 3298 2873 
Q 3191 2616 2906 2266 
Q 2828 2175 2409 1742 
Q 1991 1309 1228 531 
z
" transform="scale(0.015625)"/>
       </defs>
       <use xlink:href="#DejaVuSans-31"/>
       <use xlink:href="#DejaVuSans-30" x="63.623047"/>
       <use xlink:href="#DejaVuSans-39" x="127.246094"/>
       <use xlink:href="#DejaVuSans-30" x="190.869141"/>
       <use xlink:href="#DejaVuSans-36" x="254.492188"/>
       <use xlink:href="#DejaVuSans-32" x="318.115234"/>
      </g>
     </g>
    </g>
    <g id="xtick_14">
     <g id="line2d_27">
      <path d="M 571.332053 657.633183 
L 571.332053 3.00024 
" clip-path="url(#pf0f4841ebe)" style="fill: none; stroke-dasharray: 0.925,0.4; stroke-dashoffset: 0; stroke: #b0b0b0; stroke-width: 0.25"/>
     </g>
     <g id="line2d_28">
      <g>
       <use xlink:href="#m22be2d259d" x="571.332053" y="657.633183" style="stroke: #000000; stroke-width: 0.8"/>
      </g>
     </g>
     <g id="text_14">
      <!-- c69e17 -->
      <g transform="translate(565.992997 701.469856) rotate(-65) scale(0.1 -0.1)">
       <use xlink:href="#DejaVuSans-63"/>
       <use xlink:href="#DejaVuSans-36" x="54.980469"/>
       <use xlink:href="#DejaVuSans-39" x="118.603516"/>
       <use xlink:href="#DejaVuSans-65" x="182.226562"/>
       <use xlink:href="#DejaVuSans-31" x="243.75"/>
       <use xlink:href="#DejaVuSans-37" x="307.373047"/>
      </g>
     </g>
    </g>
    <g id="xtick_15">
     <g id="line2d_29">
      <path d="M 612.480414 657.633183 
L 612.480414 3.00024 
" clip-path="url(#pf0f4841ebe)" style="fill: none; stroke-dasharray: 0.925,0.4; stroke-dashoffset: 0; stroke: #b0b0b0; stroke-width: 0.25"/>
     </g>
     <g id="line2d_30">
      <g>
       <use xlink:href="#m22be2d259d" x="612.480414" y="657.633183" style="stroke: #000000; stroke-width: 0.8"/>
      </g>
     </g>
     <g id="text_15">
      <!-- 152b7a -->
      <g transform="translate(606.967028 702.21756) rotate(-65) scale(0.1 -0.1)">
       <use xlink:href="#DejaVuSans-31"/>
       <use xlink:href="#DejaVuSans-35" x="63.623047"/>
       <use xlink:href="#DejaVuSans-32" x="127.246094"/>
       <use xlink:href="#DejaVuSans-62" x="190.869141"/>
       <use xlink:href="#DejaVuSans-37" x="254.345703"/>
       <use xlink:href="#DejaVuSans-61" x="317.96875"/>
      </g>
     </g>
    </g>
    <g id="xtick_16">
     <g id="line2d_31">
      <path d="M 653.628775 657.633183 
L 653.628775 3.00024 
" clip-path="url(#pf0f4841ebe)" style="fill: none; stroke-dasharray: 0.925,0.4; stroke-dashoffset: 0; stroke: #b0b0b0; stroke-width: 0.25"/>
     </g>
     <g id="line2d_32">
      <g>
       <use xlink:href="#m22be2d259d" x="653.628775" y="657.633183" style="stroke: #000000; stroke-width: 0.8"/>
      </g>
     </g>
     <g id="text_16">
      <!-- cb6277 -->
      <g transform="translate(648.248447 701.64687) rotate(-65) scale(0.1 -0.1)">
       <use xlink:href="#DejaVuSans-63"/>
       <use xlink:href="#DejaVuSans-62" x="54.980469"/>
       <use xlink:href="#DejaVuSans-36" x="118.457031"/>
       <use xlink:href="#DejaVuSans-32" x="182.080078"/>
       <use xlink:href="#DejaVuSans-37" x="245.703125"/>
       <use xlink:href="#DejaVuSans-37" x="309.326172"/>
      </g>
     </g>
    </g>
    <g id="xtick_17">
     <g id="line2d_33">
      <path d="M 694.777135 657.633183 
L 694.777135 3.00024 
" clip-path="url(#pf0f4841ebe)" style="fill: none; stroke-dasharray: 0.925,0.4; stroke-dashoffset: 0; stroke: #b0b0b0; stroke-width: 0.25"/>
     </g>
     <g id="line2d_34">
      <g>
       <use xlink:href="#m22be2d259d" x="694.777135" y="657.633183" style="stroke: #000000; stroke-width: 0.8"/>
      </g>
     </g>
     <g id="text_17">
      <!-- b11fb2 -->
      <g transform="translate(689.817776 699.841335) rotate(-65) scale(0.1 -0.1)">
       <use xlink:href="#DejaVuSans-62"/>
       <use xlink:href="#DejaVuSans-31" x="63.476562"/>
       <use xlink:href="#DejaVuSans-31" x="127.099609"/>
       <use xlink:href="#DejaVuSans-66" x="190.722656"/>
       <use xlink:href="#DejaVuSans-62" x="225.927734"/>
       <use xlink:href="#DejaVuSans-32" x="289.404297"/>
      </g>
     </g>
    </g>
    <g id="xtick_18">
     <g id="line2d_35">
      <path d="M 735.925496 657.633183 
L 735.925496 3.00024 
" clip-path="url(#pf0f4841ebe)" style="fill: none; stroke-dasharray: 0.925,0.4; stroke-dashoffset: 0; stroke: #b0b0b0; stroke-width: 0.25"/>
     </g>
     <g id="line2d_36">
      <g>
       <use xlink:href="#m22be2d259d" x="735.925496" y="657.633183" style="stroke: #000000; stroke-width: 0.8"/>
      </g>
     </g>
     <g id="text_18">
      <!-- 34e33a -->
      <g transform="translate(730.453381 702.040547) rotate(-65) scale(0.1 -0.1)">
       <use xlink:href="#DejaVuSans-33"/>
       <use xlink:href="#DejaVuSans-34" x="63.623047"/>
       <use xlink:href="#DejaVuSans-65" x="127.246094"/>
       <use xlink:href="#DejaVuSans-33" x="188.769531"/>
       <use xlink:href="#DejaVuSans-33" x="252.392578"/>
       <use xlink:href="#DejaVuSans-61" x="316.015625"/>
      </g>
     </g>
    </g>
    <g id="xtick_19">
     <g id="line2d_37">
      <path d="M 777.073857 657.633183 
L 777.073857 3.00024 
" clip-path="url(#pf0f4841ebe)" style="fill: none; stroke-dasharray: 0.925,0.4; stroke-dashoffset: 0; stroke: #b0b0b0; stroke-width: 0.25"/>
     </g>
     <g id="line2d_38">
      <g>
       <use xlink:href="#m22be2d259d" x="777.073857" y="657.633183" style="stroke: #000000; stroke-width: 0.8"/>
      </g>
     </g>
     <g id="text_19">
      <!-- a51298 -->
      <g transform="translate(771.557499 702.230305) rotate(-65) scale(0.1 -0.1)">
       <use xlink:href="#DejaVuSans-61"/>
       <use xlink:href="#DejaVuSans-35" x="61.279297"/>
       <use xlink:href="#DejaVuSans-31" x="124.902344"/>
       <use xlink:href="#DejaVuSans-32" x="188.525391"/>
       <use xlink:href="#DejaVuSans-39" x="252.148438"/>
       <use xlink:href="#DejaVuSans-38" x="315.771484"/>
      </g>
     </g>
    </g>
    <g id="xtick_20">
     <g id="line2d_39">
      <path d="M 818.222217 657.633183 
L 818.222217 3.00024 
" clip-path="url(#pf0f4841ebe)" style="fill: none; stroke-dasharray: 0.925,0.4; stroke-dashoffset: 0; stroke: #b0b0b0; stroke-width: 0.25"/>
     </g>
     <g id="line2d_40">
      <g>
       <use xlink:href="#m22be2d259d" x="818.222217" y="657.633183" style="stroke: #000000; stroke-width: 0.8"/>
      </g>
     </g>
     <g id="text_20">
      <!-- 114bbf -->
      <g transform="translate(813.262857 699.841335) rotate(-65) scale(0.1 -0.1)">
       <use xlink:href="#DejaVuSans-31"/>
       <use xlink:href="#DejaVuSans-31" x="63.623047"/>
       <use xlink:href="#DejaVuSans-34" x="127.246094"/>
       <use xlink:href="#DejaVuSans-62" x="190.869141"/>
       <use xlink:href="#DejaVuSans-62" x="254.345703"/>
       <use xlink:href="#DejaVuSans-66" x="317.822266"/>
      </g>
     </g>
    </g>
    <g id="xtick_21">
     <g id="line2d_41">
      <path d="M 859.370578 657.633183 
L 859.370578 3.00024 
" clip-path="url(#pf0f4841ebe)" style="fill: none; stroke-dasharray: 0.925,0.4; stroke-dashoffset: 0; stroke: #b0b0b0; stroke-width: 0.25"/>
     </g>
     <g id="line2d_42">
      <g>
       <use xlink:href="#m22be2d259d" x="859.370578" y="657.633183" style="stroke: #000000; stroke-width: 0.8"/>
      </g>
     </g>
     <g id="text_21">
      <!-- 128fee -->
      <g transform="translate(854.493761 699.487308) rotate(-65) scale(0.1 -0.1)">
       <use xlink:href="#DejaVuSans-31"/>
       <use xlink:href="#DejaVuSans-32" x="63.623047"/>
       <use xlink:href="#DejaVuSans-38" x="127.246094"/>
       <use xlink:href="#DejaVuSans-66" x="190.869141"/>
       <use xlink:href="#DejaVuSans-65" x="226.074219"/>
       <use xlink:href="#DejaVuSans-65" x="287.597656"/>
      </g>
     </g>
    </g>
    <g id="xtick_22">
     <g id="line2d_43">
      <path d="M 900.518939 657.633183 
L 900.518939 3.00024 
" clip-path="url(#pf0f4841ebe)" style="fill: none; stroke-dasharray: 0.925,0.4; stroke-dashoffset: 0; stroke: #b0b0b0; stroke-width: 0.25"/>
     </g>
     <g id="line2d_44">
      <g>
       <use xlink:href="#m22be2d259d" x="900.518939" y="657.633183" style="stroke: #000000; stroke-width: 0.8"/>
      </g>
     </g>
     <g id="text_22">
      <!-- 0aa49f -->
      <g transform="translate(895.652687 699.441993) rotate(-65) scale(0.1 -0.1)">
       <use xlink:href="#DejaVuSans-30"/>
       <use xlink:href="#DejaVuSans-61" x="63.623047"/>
       <use xlink:href="#DejaVuSans-61" x="124.902344"/>
       <use xlink:href="#DejaVuSans-34" x="186.181641"/>
       <use xlink:href="#DejaVuSans-39" x="249.804688"/>
       <use xlink:href="#DejaVuSans-66" x="313.427734"/>
      </g>
     </g>
    </g>
    <g id="xtick_23">
     <g id="line2d_45">
      <path d="M 941.667299 657.633183 
L 941.667299 3.00024 
" clip-path="url(#pf0f4841ebe)" style="fill: none; stroke-dasharray: 0.925,0.4; stroke-dashoffset: 0; stroke: #b0b0b0; stroke-width: 0.25"/>
     </g>
     <g id="line2d_46">
      <g>
       <use xlink:href="#m22be2d259d" x="941.667299" y="657.633183" style="stroke: #000000; stroke-width: 0.8"/>
      </g>
     </g>
     <g id="text_23">
      <!-- 2730d4 -->
      <g transform="translate(936.104388 702.429976) rotate(-65) scale(0.1 -0.1)">
       <use xlink:href="#DejaVuSans-32"/>
       <use xlink:href="#DejaVuSans-37" x="63.623047"/>
       <use xlink:href="#DejaVuSans-33" x="127.246094"/>
       <use xlink:href="#DejaVuSans-30" x="190.869141"/>
       <use xlink:href="#DejaVuSans-64" x="254.492188"/>
       <use xlink:href="#DejaVuSans-34" x="317.96875"/>
      </g>
     </g>
    </g>
    <g id="xtick_24">
     <g id="line2d_47">
      <path d="M 982.81566 657.633183 
L 982.81566 3.00024 
" clip-path="url(#pf0f4841ebe)" style="fill: none; stroke-dasharray: 0.925,0.4; stroke-dashoffset: 0; stroke: #b0b0b0; stroke-width: 0.25"/>
     </g>
     <g id="line2d_48">
      <g>
       <use xlink:href="#m22be2d259d" x="982.81566" y="657.633183" style="stroke: #000000; stroke-width: 0.8"/>
      </g>
     </g>
     <g id="text_24">
      <!-- 36a126 -->
      <g transform="translate(977.299302 702.230305) rotate(-65) scale(0.1 -0.1)">
       <use xlink:href="#DejaVuSans-33"/>
       <use xlink:href="#DejaVuSans-36" x="63.623047"/>
       <use xlink:href="#DejaVuSans-61" x="127.246094"/>
       <use xlink:href="#DejaVuSans-31" x="188.525391"/>
       <use xlink:href="#DejaVuSans-32" x="252.148438"/>
       <use xlink:href="#DejaVuSans-36" x="315.771484"/>
      </g>
     </g>
    </g>
    <g id="xtick_25">
     <g id="line2d_49">
      <path d="M 1023.96402 657.633183 
L 1023.96402 3.00024 
" clip-path="url(#pf0f4841ebe)" style="fill: none; stroke-dasharray: 0.925,0.4; stroke-dashoffset: 0; stroke: #b0b0b0; stroke-width: 0.25"/>
     </g>
     <g id="line2d_50">
      <g>
       <use xlink:href="#m22be2d259d" x="1023.96402" y="657.633183" style="stroke: #000000; stroke-width: 0.8"/>
      </g>
     </g>
     <g id="text_25">
      <!-- af0468 -->
      <g transform="translate(1019.048243 699.654409) rotate(-65) scale(0.1 -0.1)">
       <use xlink:href="#DejaVuSans-61"/>
       <use xlink:href="#DejaVuSans-66" x="61.279297"/>
       <use xlink:href="#DejaVuSans-30" x="96.484375"/>
       <use xlink:href="#DejaVuSans-34" x="160.107422"/>
       <use xlink:href="#DejaVuSans-36" x="223.730469"/>
       <use xlink:href="#DejaVuSans-38" x="287.353516"/>
      </g>
     </g>
    </g>
    <g id="xtick_26">
     <g id="line2d_51">
      <path d="M 1065.112381 657.633183 
L 1065.112381 3.00024 
" clip-path="url(#pf0f4841ebe)" style="fill: none; stroke-dasharray: 0.925,0.4; stroke-dashoffset: 0; stroke: #b0b0b0; stroke-width: 0.25"/>
     </g>
     <g id="line2d_52">
      <g>
       <use xlink:href="#m22be2d259d" x="1065.112381" y="657.633183" style="stroke: #000000; stroke-width: 0.8"/>
      </g>
     </g>
     <g id="text_26">
      <!-- 4a1ba2 -->
      <g transform="translate(1059.648521 702.005144) rotate(-65) scale(0.1 -0.1)">
       <use xlink:href="#DejaVuSans-34"/>
       <use xlink:href="#DejaVuSans-61" x="63.623047"/>
       <use xlink:href="#DejaVuSans-31" x="124.902344"/>
       <use xlink:href="#DejaVuSans-62" x="188.525391"/>
       <use xlink:href="#DejaVuSans-61" x="252.001953"/>
       <use xlink:href="#DejaVuSans-32" x="313.28125"/>
      </g>
     </g>
    </g>
    <g id="xtick_27">
     <g id="line2d_53">
      <path d="M 1106.260742 657.633183 
L 1106.260742 3.00024 
" clip-path="url(#pf0f4841ebe)" style="fill: none; stroke-dasharray: 0.925,0.4; stroke-dashoffset: 0; stroke: #b0b0b0; stroke-width: 0.25"/>
     </g>
     <g id="line2d_54">
      <g>
       <use xlink:href="#m22be2d259d" x="1106.260742" y="657.633183" style="stroke: #000000; stroke-width: 0.8"/>
      </g>
     </g>
     <g id="text_27">
      <!-- d350be -->
      <g transform="translate(1100.745045 702.227473) rotate(-65) scale(0.1 -0.1)">
       <use xlink:href="#DejaVuSans-64"/>
       <use xlink:href="#DejaVuSans-33" x="63.476562"/>
       <use xlink:href="#DejaVuSans-35" x="127.099609"/>
       <use xlink:href="#DejaVuSans-30" x="190.722656"/>
       <use xlink:href="#DejaVuSans-62" x="254.345703"/>
       <use xlink:href="#DejaVuSans-65" x="317.822266"/>
      </g>
     </g>
    </g>
    <g id="xtick_28">
     <g id="line2d_55">
      <path d="M 1147.409102 657.633183 
L 1147.409102 3.00024 
" clip-path="url(#pf0f4841ebe)" style="fill: none; stroke-dasharray: 0.925,0.4; stroke-dashoffset: 0; stroke: #b0b0b0; stroke-width: 0.25"/>
     </g>
     <g id="line2d_56">
      <g>
       <use xlink:href="#m22be2d259d" x="1147.409102" y="657.633183" style="stroke: #000000; stroke-width: 0.8"/>
      </g>
     </g>
     <g id="text_28">
      <!-- e28437 -->
      <g transform="translate(1141.887462 702.252963) rotate(-65) scale(0.1 -0.1)">
       <use xlink:href="#DejaVuSans-65"/>
       <use xlink:href="#DejaVuSans-32" x="61.523438"/>
       <use xlink:href="#DejaVuSans-38" x="125.146484"/>
       <use xlink:href="#DejaVuSans-34" x="188.769531"/>
       <use xlink:href="#DejaVuSans-33" x="252.392578"/>
       <use xlink:href="#DejaVuSans-37" x="316.015625"/>
      </g>
     </g>
    </g>
    <g id="xtick_29">
     <g id="line2d_57">
      <path d="M 1188.557463 657.633183 
L 1188.557463 3.00024 
" clip-path="url(#pf0f4841ebe)" style="fill: none; stroke-dasharray: 0.925,0.4; stroke-dashoffset: 0; stroke: #b0b0b0; stroke-width: 0.25"/>
     </g>
     <g id="line2d_58">
      <g>
       <use xlink:href="#m22be2d259d" x="1188.557463" y="657.633183" style="stroke: #000000; stroke-width: 0.8"/>
      </g>
     </g>
     <g id="text_29">
      <!-- eceef9 -->
      <g transform="translate(1183.907473 698.514443) rotate(-65) scale(0.1 -0.1)">
       <use xlink:href="#DejaVuSans-65"/>
       <use xlink:href="#DejaVuSans-63" x="61.523438"/>
       <use xlink:href="#DejaVuSans-65" x="116.503906"/>
       <use xlink:href="#DejaVuSans-65" x="178.027344"/>
       <use xlink:href="#DejaVuSans-66" x="239.550781"/>
       <use xlink:href="#DejaVuSans-39" x="274.755859"/>
      </g>
     </g>
    </g>
    <g id="xtick_30">
     <g id="line2d_59">
      <path d="M 1229.705824 657.633183 
L 1229.705824 3.00024 
" clip-path="url(#pf0f4841ebe)" style="fill: none; stroke-dasharray: 0.925,0.4; stroke-dashoffset: 0; stroke: #b0b0b0; stroke-width: 0.25"/>
     </g>
     <g id="line2d_60">
      <g>
       <use xlink:href="#m22be2d259d" x="1229.705824" y="657.633183" style="stroke: #000000; stroke-width: 0.8"/>
      </g>
     </g>
     <g id="text_30">
      <!-- 4a79b7 -->
      <g transform="translate(1224.192438 702.21756) rotate(-65) scale(0.1 -0.1)">
       <use xlink:href="#DejaVuSans-34"/>
       <use xlink:href="#DejaVuSans-61" x="63.623047"/>
       <use xlink:href="#DejaVuSans-37" x="124.902344"/>
       <use xlink:href="#DejaVuSans-39" x="188.525391"/>
       <use xlink:href="#DejaVuSans-62" x="252.148438"/>
       <use xlink:href="#DejaVuSans-37" x="315.625"/>
      </g>
     </g>
    </g>
    <g id="xtick_31">
     <g id="line2d_61">
      <path d="M 1270.854184 657.633183 
L 1270.854184 3.00024 
" clip-path="url(#pf0f4841ebe)" style="fill: none; stroke-dasharray: 0.925,0.4; stroke-dashoffset: 0; stroke: #b0b0b0; stroke-width: 0.25"/>
     </g>
     <g id="line2d_62">
      <g>
       <use xlink:href="#m22be2d259d" x="1270.854184" y="657.633183" style="stroke: #000000; stroke-width: 0.8"/>
      </g>
     </g>
     <g id="text_31">
      <!-- 1fdc3c -->
      <g transform="translate(1266.257022 698.287866) rotate(-65) scale(0.1 -0.1)">
       <use xlink:href="#DejaVuSans-31"/>
       <use xlink:href="#DejaVuSans-66" x="63.623047"/>
       <use xlink:href="#DejaVuSans-64" x="98.828125"/>
       <use xlink:href="#DejaVuSans-63" x="162.304688"/>
       <use xlink:href="#DejaVuSans-33" x="217.285156"/>
       <use xlink:href="#DejaVuSans-63" x="280.908203"/>
      </g>
     </g>
    </g>
    <g id="xtick_32">
     <g id="line2d_63">
      <path d="M 1312.002545 657.633183 
L 1312.002545 3.00024 
" clip-path="url(#pf0f4841ebe)" style="fill: none; stroke-dasharray: 0.925,0.4; stroke-dashoffset: 0; stroke: #b0b0b0; stroke-width: 0.25"/>
     </g>
     <g id="line2d_64">
      <g>
       <use xlink:href="#m22be2d259d" x="1312.002545" y="657.633183" style="stroke: #000000; stroke-width: 0.8"/>
      </g>
     </g>
     <g id="text_32">
      <!-- 3f0b59 -->
      <g transform="translate(1307.040214 699.854079) rotate(-65) scale(0.1 -0.1)">
       <use xlink:href="#DejaVuSans-33"/>
       <use xlink:href="#DejaVuSans-66" x="63.623047"/>
       <use xlink:href="#DejaVuSans-30" x="98.828125"/>
       <use xlink:href="#DejaVuSans-62" x="162.451172"/>
       <use xlink:href="#DejaVuSans-35" x="225.927734"/>
       <use xlink:href="#DejaVuSans-39" x="289.550781"/>
      </g>
     </g>
    </g>
    <g id="xtick_33">
     <g id="line2d_65">
      <path d="M 1353.150906 657.633183 
L 1353.150906 3.00024 
" clip-path="url(#pf0f4841ebe)" style="fill: none; stroke-dasharray: 0.925,0.4; stroke-dashoffset: 0; stroke: #b0b0b0; stroke-width: 0.25"/>
     </g>
     <g id="line2d_66">
      <g>
       <use xlink:href="#m22be2d259d" x="1353.150906" y="657.633183" style="stroke: #000000; stroke-width: 0.8"/>
      </g>
     </g>
     <g id="text_33">
      <!-- d31f06 -->
      <g transform="translate(1348.188574 699.854079) rotate(-65) scale(0.1 -0.1)">
       <use xlink:href="#DejaVuSans-64"/>
       <use xlink:href="#DejaVuSans-33" x="63.476562"/>
       <use xlink:href="#DejaVuSans-31" x="127.099609"/>
       <use xlink:href="#DejaVuSans-66" x="190.722656"/>
       <use xlink:href="#DejaVuSans-30" x="225.927734"/>
       <use xlink:href="#DejaVuSans-36" x="289.550781"/>
      </g>
     </g>
    </g>
    <g id="text_34">
     <!-- Commit SHA -->
     <g transform="translate(663.19276 714.920072) scale(0.1 -0.1)">
      <defs>
       <path id="DejaVuSans-43" d="M 4122 4306 
L 4122 3641 
Q 3803 3938 3442 4084 
Q 3081 4231 2675 4231 
Q 1875 4231 1450 3742 
Q 1025 3253 1025 2328 
Q 1025 1406 1450 917 
Q 1875 428 2675 428 
Q 3081 428 3442 575 
Q 3803 722 4122 1019 
L 4122 359 
Q 3791 134 3420 21 
Q 3050 -91 2638 -91 
Q 1578 -91 968 557 
Q 359 1206 359 2328 
Q 359 3453 968 4101 
Q 1578 4750 2638 4750 
Q 3056 4750 3426 4639 
Q 3797 4528 4122 4306 
z
" transform="scale(0.015625)"/>
       <path id="DejaVuSans-6f" d="M 1959 3097 
Q 1497 3097 1228 2736 
Q 959 2375 959 1747 
Q 959 1119 1226 758 
Q 1494 397 1959 397 
Q 2419 397 2687 759 
Q 2956 1122 2956 1747 
Q 2956 2369 2687 2733 
Q 2419 3097 1959 3097 
z
M 1959 3584 
Q 2709 3584 3137 3096 
Q 3566 2609 3566 1747 
Q 3566 888 3137 398 
Q 2709 -91 1959 -91 
Q 1206 -91 779 398 
Q 353 888 353 1747 
Q 353 2609 779 3096 
Q 1206 3584 1959 3584 
z
" transform="scale(0.015625)"/>
       <path id="DejaVuSans-6d" d="M 3328 2828 
Q 3544 3216 3844 3400 
Q 4144 3584 4550 3584 
Q 5097 3584 5394 3201 
Q 5691 2819 5691 2113 
L 5691 0 
L 5113 0 
L 5113 2094 
Q 5113 2597 4934 2840 
Q 4756 3084 4391 3084 
Q 3944 3084 3684 2787 
Q 3425 2491 3425 1978 
L 3425 0 
L 2847 0 
L 2847 2094 
Q 2847 2600 2669 2842 
Q 2491 3084 2119 3084 
Q 1678 3084 1418 2786 
Q 1159 2488 1159 1978 
L 1159 0 
L 581 0 
L 581 3500 
L 1159 3500 
L 1159 2956 
Q 1356 3278 1631 3431 
Q 1906 3584 2284 3584 
Q 2666 3584 2933 3390 
Q 3200 3197 3328 2828 
z
" transform="scale(0.015625)"/>
       <path id="DejaVuSans-69" d="M 603 3500 
L 1178 3500 
L 1178 0 
L 603 0 
L 603 3500 
z
M 603 4863 
L 1178 4863 
L 1178 4134 
L 603 4134 
L 603 4863 
z
" transform="scale(0.015625)"/>
       <path id="DejaVuSans-74" d="M 1172 4494 
L 1172 3500 
L 2356 3500 
L 2356 3053 
L 1172 3053 
L 1172 1153 
Q 1172 725 1289 603 
Q 1406 481 1766 481 
L 2356 481 
L 2356 0 
L 1766 0 
Q 1100 0 847 248 
Q 594 497 594 1153 
L 594 3053 
L 172 3053 
L 172 3500 
L 594 3500 
L 594 4494 
L 1172 4494 
z
" transform="scale(0.015625)"/>
       <path id="DejaVuSans-20" transform="scale(0.015625)"/>
       <path id="DejaVuSans-53" d="M 3425 4513 
L 3425 3897 
Q 3066 4069 2747 4153 
Q 2428 4238 2131 4238 
Q 1616 4238 1336 4038 
Q 1056 3838 1056 3469 
Q 1056 3159 1242 3001 
Q 1428 2844 1947 2747 
L 2328 2669 
Q 3034 2534 3370 2195 
Q 3706 1856 3706 1288 
Q 3706 609 3251 259 
Q 2797 -91 1919 -91 
Q 1588 -91 1214 -16 
Q 841 59 441 206 
L 441 856 
Q 825 641 1194 531 
Q 1563 422 1919 422 
Q 2459 422 2753 634 
Q 3047 847 3047 1241 
Q 3047 1584 2836 1778 
Q 2625 1972 2144 2069 
L 1759 2144 
Q 1053 2284 737 2584 
Q 422 2884 422 3419 
Q 422 4038 858 4394 
Q 1294 4750 2059 4750 
Q 2388 4750 2728 4690 
Q 3069 4631 3425 4513 
z
" transform="scale(0.015625)"/>
       <path id="DejaVuSans-48" d="M 628 4666 
L 1259 4666 
L 1259 2753 
L 3553 2753 
L 3553 4666 
L 4184 4666 
L 4184 0 
L 3553 0 
L 3553 2222 
L 1259 2222 
L 1259 0 
L 628 0 
L 628 4666 
z
" transform="scale(0.015625)"/>
       <path id="DejaVuSans-41" d="M 2188 4044 
L 1331 1722 
L 3047 1722 
L 2188 4044 
z
M 1831 4666 
L 2547 4666 
L 4325 0 
L 3669 0 
L 3244 1197 
L 1141 1197 
L 716 0 
L 50 0 
L 1831 4666 
z
" transform="scale(0.015625)"/>
      </defs>
      <use xlink:href="#DejaVuSans-43"/>
      <use xlink:href="#DejaVuSans-6f" x="69.824219"/>
      <use xlink:href="#DejaVuSans-6d" x="131.005859"/>
      <use xlink:href="#DejaVuSans-6d" x="228.417969"/>
      <use xlink:href="#DejaVuSans-69" x="325.830078"/>
      <use xlink:href="#DejaVuSans-74" x="353.613281"/>
      <use xlink:href="#DejaVuSans-20" x="392.822266"/>
      <use xlink:href="#DejaVuSans-53" x="424.609375"/>
      <use xlink:href="#DejaVuSans-48" x="488.085938"/>
      <use xlink:href="#DejaVuSans-41" x="563.28125"/>
     </g>
    </g>
   </g>
   <g id="matplotlib.axis_2">
    <g id="ytick_1">
     <g id="line2d_67">
      <path d="M 36.403365 586.862054 
L 1353.150906 586.862054 
" clip-path="url(#pf0f4841ebe)" style="fill: none; stroke-dasharray: 0.925,0.4; stroke-dashoffset: 0; stroke: #b0b0b0; stroke-width: 0.25"/>
     </g>
     <g id="line2d_68">
      <defs>
       <path id="m1c1e5a5d48" d="M 0 0 
L -3.5 0 
" style="stroke: #000000; stroke-width: 0.8"/>
      </defs>
      <g>
       <use xlink:href="#m1c1e5a5d48" x="36.403365" y="586.862054" style="stroke: #000000; stroke-width: 0.8"/>
      </g>
     </g>
     <g id="text_35">
      <!-- 20 -->
      <g transform="translate(16.678365 590.661273) scale(0.1 -0.1)">
       <use xlink:href="#DejaVuSans-32"/>
       <use xlink:href="#DejaVuSans-30" x="63.623047"/>
      </g>
     </g>
    </g>
    <g id="ytick_2">
     <g id="line2d_69">
      <path d="M 36.403365 498.398143 
L 1353.150906 498.398143 
" clip-path="url(#pf0f4841ebe)" style="fill: none; stroke-dasharray: 0.925,0.4; stroke-dashoffset: 0; stroke: #b0b0b0; stroke-width: 0.25"/>
     </g>
     <g id="line2d_70">
      <g>
       <use xlink:href="#m1c1e5a5d48" x="36.403365" y="498.398143" style="stroke: #000000; stroke-width: 0.8"/>
      </g>
     </g>
     <g id="text_36">
      <!-- 25 -->
      <g transform="translate(16.678365 502.197361) scale(0.1 -0.1)">
       <use xlink:href="#DejaVuSans-32"/>
       <use xlink:href="#DejaVuSans-35" x="63.623047"/>
      </g>
     </g>
    </g>
    <g id="ytick_3">
     <g id="line2d_71">
      <path d="M 36.403365 409.934232 
L 1353.150906 409.934232 
" clip-path="url(#pf0f4841ebe)" style="fill: none; stroke-dasharray: 0.925,0.4; stroke-dashoffset: 0; stroke: #b0b0b0; stroke-width: 0.25"/>
     </g>
     <g id="line2d_72">
      <g>
       <use xlink:href="#m1c1e5a5d48" x="36.403365" y="409.934232" style="stroke: #000000; stroke-width: 0.8"/>
      </g>
     </g>
     <g id="text_37">
      <!-- 30 -->
      <g transform="translate(16.678365 413.73345) scale(0.1 -0.1)">
       <use xlink:href="#DejaVuSans-33"/>
       <use xlink:href="#DejaVuSans-30" x="63.623047"/>
      </g>
     </g>
    </g>
    <g id="ytick_4">
     <g id="line2d_73">
      <path d="M 36.403365 321.47032 
L 1353.150906 321.47032 
" clip-path="url(#pf0f4841ebe)" style="fill: none; stroke-dasharray: 0.925,0.4; stroke-dashoffset: 0; stroke: #b0b0b0; stroke-width: 0.25"/>
     </g>
     <g id="line2d_74">
      <g>
       <use xlink:href="#m1c1e5a5d48" x="36.403365" y="321.47032" style="stroke: #000000; stroke-width: 0.8"/>
      </g>
     </g>
     <g id="text_38">
      <!-- 35 -->
      <g transform="translate(16.678365 325.269539) scale(0.1 -0.1)">
       <use xlink:href="#DejaVuSans-33"/>
       <use xlink:href="#DejaVuSans-35" x="63.623047"/>
      </g>
     </g>
    </g>
    <g id="ytick_5">
     <g id="line2d_75">
      <path d="M 36.403365 233.006409 
L 1353.150906 233.006409 
" clip-path="url(#pf0f4841ebe)" style="fill: none; stroke-dasharray: 0.925,0.4; stroke-dashoffset: 0; stroke: #b0b0b0; stroke-width: 0.25"/>
     </g>
     <g id="line2d_76">
      <g>
       <use xlink:href="#m1c1e5a5d48" x="36.403365" y="233.006409" style="stroke: #000000; stroke-width: 0.8"/>
      </g>
     </g>
     <g id="text_39">
      <!-- 40 -->
      <g transform="translate(16.678365 236.805628) scale(0.1 -0.1)">
       <use xlink:href="#DejaVuSans-34"/>
       <use xlink:href="#DejaVuSans-30" x="63.623047"/>
      </g>
     </g>
    </g>
    <g id="ytick_6">
     <g id="line2d_77">
      <path d="M 36.403365 144.542498 
L 1353.150906 144.542498 
" clip-path="url(#pf0f4841ebe)" style="fill: none; stroke-dasharray: 0.925,0.4; stroke-dashoffset: 0; stroke: #b0b0b0; stroke-width: 0.25"/>
     </g>
     <g id="line2d_78">
      <g>
       <use xlink:href="#m1c1e5a5d48" x="36.403365" y="144.542498" style="stroke: #000000; stroke-width: 0.8"/>
      </g>
     </g>
     <g id="text_40">
      <!-- 45 -->
      <g transform="translate(16.678365 148.341717) scale(0.1 -0.1)">
       <use xlink:href="#DejaVuSans-34"/>
       <use xlink:href="#DejaVuSans-35" x="63.623047"/>
      </g>
     </g>
    </g>
    <g id="ytick_7">
     <g id="line2d_79">
      <path d="M 36.403365 56.078587 
L 1353.150906 56.078587 
" clip-path="url(#pf0f4841ebe)" style="fill: none; stroke-dasharray: 0.925,0.4; stroke-dashoffset: 0; stroke: #b0b0b0; stroke-width: 0.25"/>
     </g>
     <g id="line2d_80">
      <g>
       <use xlink:href="#m1c1e5a5d48" x="36.403365" y="56.078587" style="stroke: #000000; stroke-width: 0.8"/>
      </g>
     </g>
     <g id="text_41">
      <!-- 50 -->
      <g transform="translate(16.678365 59.877805) scale(0.1 -0.1)">
       <use xlink:href="#DejaVuSans-35"/>
       <use xlink:href="#DejaVuSans-30" x="63.623047"/>
      </g>
     </g>
    </g>
    <g id="text_42">
     <!-- Time (ms) -->
     <g transform="translate(10.598678 355.51593) rotate(-90) scale(0.1 -0.1)">
      <defs>
       <path id="DejaVuSans-54" d="M -19 4666 
L 3928 4666 
L 3928 4134 
L 2272 4134 
L 2272 0 
L 1638 0 
L 1638 4134 
L -19 4134 
L -19 4666 
z
" transform="scale(0.015625)"/>
       <path id="DejaVuSans-28" d="M 1984 4856 
Q 1566 4138 1362 3434 
Q 1159 2731 1159 2009 
Q 1159 1288 1364 580 
Q 1569 -128 1984 -844 
L 1484 -844 
Q 1016 -109 783 600 
Q 550 1309 550 2009 
Q 550 2706 781 3412 
Q 1013 4119 1484 4856 
L 1984 4856 
z
" transform="scale(0.015625)"/>
       <path id="DejaVuSans-73" d="M 2834 3397 
L 2834 2853 
Q 2591 2978 2328 3040 
Q 2066 3103 1784 3103 
Q 1356 3103 1142 2972 
Q 928 2841 928 2578 
Q 928 2378 1081 2264 
Q 1234 2150 1697 2047 
L 1894 2003 
Q 2506 1872 2764 1633 
Q 3022 1394 3022 966 
Q 3022 478 2636 193 
Q 2250 -91 1575 -91 
Q 1294 -91 989 -36 
Q 684 19 347 128 
L 347 722 
Q 666 556 975 473 
Q 1284 391 1588 391 
Q 1994 391 2212 530 
Q 2431 669 2431 922 
Q 2431 1156 2273 1281 
Q 2116 1406 1581 1522 
L 1381 1569 
Q 847 1681 609 1914 
Q 372 2147 372 2553 
Q 372 3047 722 3315 
Q 1072 3584 1716 3584 
Q 2034 3584 2315 3537 
Q 2597 3491 2834 3397 
z
" transform="scale(0.015625)"/>
       <path id="DejaVuSans-29" d="M 513 4856 
L 1013 4856 
Q 1481 4119 1714 3412 
Q 1947 2706 1947 2009 
Q 1947 1309 1714 600 
Q 1481 -109 1013 -844 
L 513 -844 
Q 928 -128 1133 580 
Q 1338 1288 1338 2009 
Q 1338 2731 1133 3434 
Q 928 4138 513 4856 
z
" transform="scale(0.015625)"/>
      </defs>
      <use xlink:href="#DejaVuSans-54"/>
      <use xlink:href="#DejaVuSans-69" x="57.958984"/>
      <use xlink:href="#DejaVuSans-6d" x="85.742188"/>
      <use xlink:href="#DejaVuSans-65" x="183.154297"/>
      <use xlink:href="#DejaVuSans-20" x="244.677734"/>
      <use xlink:href="#DejaVuSans-28" x="276.464844"/>
      <use xlink:href="#DejaVuSans-6d" x="315.478516"/>
      <use xlink:href="#DejaVuSans-73" x="412.890625"/>
      <use xlink:href="#DejaVuSans-29" x="464.990234"/>
     </g>
    </g>
   </g>
   <g id="line2d_81">
    <path d="M 36.403365 409.934232 
L 77.551726 445.319796 
L 118.700086 321.47032 
L 159.848447 586.862054 
L 200.996808 586.862054 
L 242.145168 586.862054 
L 283.293529 569.169272 
L 324.44189 569.169272 
L 365.59025 569.169272 
L 406.738611 586.862054 
L 447.886971 586.862054 
L 489.035332 586.862054 
L 530.183693 604.554836 
L 571.332053 586.862054 
L 612.480414 569.169272 
L 653.628775 569.169272 
L 694.777135 551.476489 
L 735.925496 569.169272 
L 777.073857 569.169272 
L 818.222217 569.169272 
L 859.370578 551.476489 
L 900.518939 533.783707 
L 941.667299 551.476489 
L 982.81566 551.476489 
L 1023.96402 551.476489 
L 1065.112381 533.783707 
L 1106.260742 533.783707 
L 1147.409102 533.783707 
L 1188.557463 533.783707 
L 1229.705824 533.783707 
L 1270.854184 533.783707 
L 1312.002545 516.090925 
L 1353.150906 516.090925 
" clip-path="url(#pf0f4841ebe)" style="fill: none; stroke: #1f77b4; stroke-width: 1.5; stroke-linecap: square"/>
   </g>
   <g id="line2d_82">
    <path d="M 36.403365 445.319796 
L 77.551726 445.319796 
L 118.700086 321.47032 
L 159.848447 586.862054 
L 200.996808 586.862054 
L 242.145168 586.862054 
L 283.293529 586.862054 
L 324.44189 551.476489 
L 365.59025 569.169272 
L 406.738611 569.169272 
L 447.886971 569.169272 
L 489.035332 586.862054 
L 530.183693 604.554836 
L 571.332053 586.862054 
L 612.480414 569.169272 
L 653.628775 569.169272 
L 694.777135 551.476489 
L 735.925496 569.169272 
L 777.073857 569.169272 
L 818.222217 569.169272 
L 859.370578 551.476489 
L 900.518939 551.476489 
L 941.667299 551.476489 
L 982.81566 569.169272 
L 1023.96402 551.476489 
L 1065.112381 516.090925 
L 1106.260742 533.783707 
L 1147.409102 533.783707 
L 1188.557463 551.476489 
L 1229.705824 533.783707 
L 1270.854184 533.783707 
L 1312.002545 516.090925 
L 1353.150906 516.090925 
" clip-path="url(#pf0f4841ebe)" style="fill: none; stroke: #ff7f0e; stroke-width: 1.5; stroke-linecap: square"/>
   </g>
   <g id="line2d_83">
    <path d="M 36.403365 197.620845 
L 77.551726 197.620845 
L 118.700086 91.464151 
L 159.848447 339.163103 
L 200.996808 339.163103 
L 242.145168 321.47032 
L 283.293529 321.47032 
L 324.44189 321.47032 
L 365.59025 321.47032 
L 406.738611 321.47032 
L 447.886971 321.47032 
L 489.035332 321.47032 
L 530.183693 356.855885 
L 571.332053 321.47032 
L 612.480414 321.47032 
L 653.628775 321.47032 
L 694.777135 286.084756 
L 735.925496 321.47032 
L 777.073857 303.777538 
L 818.222217 73.771369 
L 859.370578 56.078587 
L 900.518939 56.078587 
L 941.667299 73.771369 
L 982.81566 73.771369 
L 1023.96402 56.078587 
L 1065.112381 20.693022 
L 1106.260742 38.385804 
L 1147.409102 56.078587 
L 1188.557463 56.078587 
L 1229.705824 38.385804 
L 1270.854184 38.385804 
L 1312.002545 20.693022 
L 1353.150906 3.00024 
" clip-path="url(#pf0f4841ebe)" style="fill: none; stroke: #2ca02c; stroke-width: 1.5; stroke-linecap: square"/>
   </g>
   <g id="line2d_84">
    <path d="M 36.403365 179.928062 
L 77.551726 179.928062 
L 118.700086 56.078587 
L 159.848447 303.777538 
L 200.996808 303.777538 
L 242.145168 303.777538 
L 283.293529 303.777538 
L 324.44189 286.084756 
L 365.59025 286.084756 
L 406.738611 303.777538 
L 447.886971 303.777538 
L 489.035332 303.777538 
L 530.183693 339.163103 
L 571.332053 303.777538 
L 612.480414 286.084756 
L 653.628775 286.084756 
L 694.777135 268.391974 
L 735.925496 286.084756 
L 777.073857 268.391974 
L 818.222217 286.084756 
L 859.370578 268.391974 
L 900.518939 250.699191 
L 941.667299 286.084756 
L 982.81566 268.391974 
L 1023.96402 268.391974 
L 1065.112381 250.699191 
L 1106.260742 250.699191 
L 1147.409102 268.391974 
L 1188.557463 268.391974 
L 1229.705824 250.699191 
L 1270.854184 250.699191 
L 1312.002545 233.006409 
L 1353.150906 250.699191 
" clip-path="url(#pf0f4841ebe)" style="fill: none; stroke: #d62728; stroke-width: 1.5; stroke-linecap: square"/>
   </g>
   <g id="line2d_85">
    <path d="M 36.403365 463.012578 
L 77.551726 463.012578 
L 118.700086 356.855885 
L 159.848447 622.247618 
L 200.996808 639.940401 
L 242.145168 622.247618 
L 283.293529 622.247618 
L 324.44189 604.554836 
L 365.59025 622.247618 
L 406.738611 622.247618 
L 447.886971 622.247618 
L 489.035332 622.247618 
L 530.183693 639.940401 
L 571.332053 622.247618 
L 612.480414 604.554836 
L 653.628775 622.247618 
L 694.777135 604.554836 
L 735.925496 604.554836 
L 777.073857 604.554836 
L 818.222217 604.554836 
L 859.370578 586.862054 
L 900.518939 586.862054 
L 941.667299 604.554836 
L 982.81566 604.554836 
L 1023.96402 586.862054 
L 1065.112381 569.169272 
L 1106.260742 586.862054 
L 1147.409102 586.862054 
L 1188.557463 586.862054 
L 1229.705824 569.169272 
L 1270.854184 569.169272 
L 1312.002545 569.169272 
L 1353.150906 551.476489 
" clip-path="url(#pf0f4841ebe)" style="fill: none; stroke: #9467bd; stroke-width: 1.5; stroke-linecap: square"/>
   </g>
   <g id="line2d_86">
    <path d="M 36.403365 480.70536 
L 77.551726 480.70536 
L 118.700086 374.548667 
L 159.848447 639.940401 
L 200.996808 639.940401 
L 242.145168 639.940401 
L 283.293529 639.940401 
L 324.44189 622.247618 
L 365.59025 639.940401 
L 406.738611 639.940401 
L 447.886971 639.940401 
L 489.035332 639.940401 
L 530.183693 657.633183 
L 571.332053 639.940401 
L 612.480414 639.940401 
L 653.628775 622.247618 
L 694.777135 622.247618 
L 735.925496 622.247618 
L 777.073857 604.554836 
L 818.222217 622.247618 
L 859.370578 604.554836 
L 900.518939 604.554836 
L 941.667299 622.247618 
L 982.81566 604.554836 
L 1023.96402 604.554836 
L 1065.112381 586.862054 
L 1106.260742 586.862054 
L 1147.409102 604.554836 
L 1188.557463 586.862054 
L 1229.705824 586.862054 
L 1270.854184 586.862054 
L 1312.002545 569.169272 
L 1353.150906 586.862054 
" clip-path="url(#pf0f4841ebe)" style="fill: none; stroke: #8c564b; stroke-width: 1.5; stroke-linecap: square"/>
   </g>
   <g id="patch_3">
    <path d="M 36.403365 657.633183 
L 36.403365 3.00024 
" style="fill: none; stroke: #000000; stroke-width: 0.8; stroke-linejoin: miter; stroke-linecap: square"/>
   </g>
   <g id="patch_4">
    <path d="M 1353.150906 657.633183 
L 1353.150906 3.00024 
" style="fill: none; stroke: #000000; stroke-width: 0.8; stroke-linejoin: miter; stroke-linecap: square"/>
   </g>
   <g id="patch_5">
    <path d="M 36.403365 657.633183 
L 1353.150906 657.633183 
" style="fill: none; stroke: #000000; stroke-width: 0.8; stroke-linejoin: miter; stroke-linecap: square"/>
   </g>
   <g id="patch_6">
    <path d="M 36.403365 3.00024 
L 1353.150906 3.00024 
" style="fill: none; stroke: #000000; stroke-width: 0.8; stroke-linejoin: miter; stroke-linecap: square"/>
   </g>
   <g id="legend_1">
    <g id="patch_7">
     <path d="M 43.403365 652.633183 
L 139.040865 652.633183 
Q 141.040865 652.633183 141.040865 650.633183 
L 141.040865 563.564433 
Q 141.040865 561.564433 139.040865 561.564433 
L 43.403365 561.564433 
Q 41.403365 561.564433 41.403365 563.564433 
L 41.403365 650.633183 
Q 41.403365 652.633183 43.403365 652.633183 
z
" style="fill: #ffffff; opacity: 0.8; stroke: #cccccc; stroke-linejoin: miter"/>
    </g>
    <g id="line2d_87">
     <path d="M 45.403365 569.66287 
L 55.403365 569.66287 
L 65.403365 569.66287 
" style="fill: none; stroke: #1f77b4; stroke-width: 1.5; stroke-linecap: square"/>
    </g>
    <g id="text_43">
     <!-- gis -->
     <g transform="translate(73.403365 573.16287) scale(0.1 -0.1)">
      <defs>
       <path id="DejaVuSans-67" d="M 2906 1791 
Q 2906 2416 2648 2759 
Q 2391 3103 1925 3103 
Q 1463 3103 1205 2759 
Q 947 2416 947 1791 
Q 947 1169 1205 825 
Q 1463 481 1925 481 
Q 2391 481 2648 825 
Q 2906 1169 2906 1791 
z
M 3481 434 
Q 3481 -459 3084 -895 
Q 2688 -1331 1869 -1331 
Q 1566 -1331 1297 -1286 
Q 1028 -1241 775 -1147 
L 775 -588 
Q 1028 -725 1275 -790 
Q 1522 -856 1778 -856 
Q 2344 -856 2625 -561 
Q 2906 -266 2906 331 
L 2906 616 
Q 2728 306 2450 153 
Q 2172 0 1784 0 
Q 1141 0 747 490 
Q 353 981 353 1791 
Q 353 2603 747 3093 
Q 1141 3584 1784 3584 
Q 2172 3584 2450 3431 
Q 2728 3278 2906 2969 
L 2906 3500 
L 3481 3500 
L 3481 434 
z
" transform="scale(0.015625)"/>
      </defs>
      <use xlink:href="#DejaVuSans-67"/>
      <use xlink:href="#DejaVuSans-69" x="63.476562"/>
      <use xlink:href="#DejaVuSans-73" x="91.259766"/>
     </g>
    </g>
    <g id="line2d_88">
     <path d="M 45.403365 584.340995 
L 55.403365 584.340995 
L 65.403365 584.340995 
" style="fill: none; stroke: #ff7f0e; stroke-width: 1.5; stroke-linecap: square"/>
    </g>
    <g id="text_44">
     <!-- gis status -->
     <g transform="translate(73.403365 587.840995) scale(0.1 -0.1)">
      <defs>
       <path id="DejaVuSans-75" d="M 544 1381 
L 544 3500 
L 1119 3500 
L 1119 1403 
Q 1119 906 1312 657 
Q 1506 409 1894 409 
Q 2359 409 2629 706 
Q 2900 1003 2900 1516 
L 2900 3500 
L 3475 3500 
L 3475 0 
L 2900 0 
L 2900 538 
Q 2691 219 2414 64 
Q 2138 -91 1772 -91 
Q 1169 -91 856 284 
Q 544 659 544 1381 
z
M 1991 3584 
L 1991 3584 
z
" transform="scale(0.015625)"/>
      </defs>
      <use xlink:href="#DejaVuSans-67"/>
      <use xlink:href="#DejaVuSans-69" x="63.476562"/>
      <use xlink:href="#DejaVuSans-73" x="91.259766"/>
      <use xlink:href="#DejaVuSans-20" x="143.359375"/>
      <use xlink:href="#DejaVuSans-73" x="175.146484"/>
      <use xlink:href="#DejaVuSans-74" x="227.246094"/>
      <use xlink:href="#DejaVuSans-61" x="266.455078"/>
      <use xlink:href="#DejaVuSans-74" x="327.734375"/>
      <use xlink:href="#DejaVuSans-75" x="366.943359"/>
      <use xlink:href="#DejaVuSans-73" x="430.322266"/>
     </g>
    </g>
    <g id="line2d_89">
     <path d="M 45.403365 599.01912 
L 55.403365 599.01912 
L 65.403365 599.01912 
" style="fill: none; stroke: #2ca02c; stroke-width: 1.5; stroke-linecap: square"/>
    </g>
    <g id="text_45">
     <!-- gis fetch -->
     <g transform="translate(73.403365 602.51912) scale(0.1 -0.1)">
      <defs>
       <path id="DejaVuSans-68" d="M 3513 2113 
L 3513 0 
L 2938 0 
L 2938 2094 
Q 2938 2591 2744 2837 
Q 2550 3084 2163 3084 
Q 1697 3084 1428 2787 
Q 1159 2491 1159 1978 
L 1159 0 
L 581 0 
L 581 4863 
L 1159 4863 
L 1159 2956 
Q 1366 3272 1645 3428 
Q 1925 3584 2291 3584 
Q 2894 3584 3203 3211 
Q 3513 2838 3513 2113 
z
" transform="scale(0.015625)"/>
      </defs>
      <use xlink:href="#DejaVuSans-67"/>
      <use xlink:href="#DejaVuSans-69" x="63.476562"/>
      <use xlink:href="#DejaVuSans-73" x="91.259766"/>
      <use xlink:href="#DejaVuSans-20" x="143.359375"/>
      <use xlink:href="#DejaVuSans-66" x="175.146484"/>
      <use xlink:href="#DejaVuSans-65" x="210.351562"/>
      <use xlink:href="#DejaVuSans-74" x="271.875"/>
      <use xlink:href="#DejaVuSans-63" x="311.083984"/>
      <use xlink:href="#DejaVuSans-68" x="366.064453"/>
     </g>
    </g>
    <g id="line2d_90">
     <path d="M 45.403365 613.697245 
L 55.403365 613.697245 
L 65.403365 613.697245 
" style="fill: none; stroke: #d62728; stroke-width: 1.5; stroke-linecap: square"/>
    </g>
    <g id="text_46">
     <!-- gis files -->
     <g transform="translate(73.403365 617.197245) scale(0.1 -0.1)">
      <defs>
       <path id="DejaVuSans-6c" d="M 603 4863 
L 1178 4863 
L 1178 0 
L 603 0 
L 603 4863 
z
" transform="scale(0.015625)"/>
      </defs>
      <use xlink:href="#DejaVuSans-67"/>
      <use xlink:href="#DejaVuSans-69" x="63.476562"/>
      <use xlink:href="#DejaVuSans-73" x="91.259766"/>
      <use xlink:href="#DejaVuSans-20" x="143.359375"/>
      <use xlink:href="#DejaVuSans-66" x="175.146484"/>
      <use xlink:href="#DejaVuSans-69" x="210.351562"/>
      <use xlink:href="#DejaVuSans-6c" x="238.134766"/>
      <use xlink:href="#DejaVuSans-65" x="265.917969"/>
      <use xlink:href="#DejaVuSans-73" x="327.441406"/>
     </g>
    </g>
    <g id="line2d_91">
     <path d="M 45.403365 628.37537 
L 55.403365 628.37537 
L 65.403365 628.37537 
" style="fill: none; stroke: #9467bd; stroke-width: 1.5; stroke-linecap: square"/>
    </g>
    <g id="text_47">
     <!-- gis branches -->
     <g transform="translate(73.403365 631.87537) scale(0.1 -0.1)">
      <defs>
       <path id="DejaVuSans-72" d="M 2631 2963 
Q 2534 3019 2420 3045 
Q 2306 3072 2169 3072 
Q 1681 3072 1420 2755 
Q 1159 2438 1159 1844 
L 1159 0 
L 581 0 
L 581 3500 
L 1159 3500 
L 1159 2956 
Q 1341 3275 1631 3429 
Q 1922 3584 2338 3584 
Q 2397 3584 2469 3576 
Q 2541 3569 2628 3553 
L 2631 2963 
z
" transform="scale(0.015625)"/>
       <path id="DejaVuSans-6e" d="M 3513 2113 
L 3513 0 
L 2938 0 
L 2938 2094 
Q 2938 2591 2744 2837 
Q 2550 3084 2163 3084 
Q 1697 3084 1428 2787 
Q 1159 2491 1159 1978 
L 1159 0 
L 581 0 
L 581 3500 
L 1159 3500 
L 1159 2956 
Q 1366 3272 1645 3428 
Q 1925 3584 2291 3584 
Q 2894 3584 3203 3211 
Q 3513 2838 3513 2113 
z
" transform="scale(0.015625)"/>
      </defs>
      <use xlink:href="#DejaVuSans-67"/>
      <use xlink:href="#DejaVuSans-69" x="63.476562"/>
      <use xlink:href="#DejaVuSans-73" x="91.259766"/>
      <use xlink:href="#DejaVuSans-20" x="143.359375"/>
      <use xlink:href="#DejaVuSans-62" x="175.146484"/>
      <use xlink:href="#DejaVuSans-72" x="238.623047"/>
      <use xlink:href="#DejaVuSans-61" x="279.736328"/>
      <use xlink:href="#DejaVuSans-6e" x="341.015625"/>
      <use xlink:href="#DejaVuSans-63" x="404.394531"/>
      <use xlink:href="#DejaVuSans-68" x="459.375"/>
      <use xlink:href="#DejaVuSans-65" x="522.753906"/>
      <use xlink:href="#DejaVuSans-73" x="584.277344"/>
     </g>
    </g>
    <g id="line2d_92">
     <path d="M 45.403365 643.053495 
L 55.403365 643.053495 
L 65.403365 643.053495 
" style="fill: none; stroke: #8c564b; stroke-width: 1.5; stroke-linecap: square"/>
    </g>
    <g id="text_48">
     <!-- gis checkout -->
     <g transform="translate(73.403365 646.553495) scale(0.1 -0.1)">
      <defs>
       <path id="DejaVuSans-6b" d="M 581 4863 
L 1159 4863 
L 1159 1991 
L 2875 3500 
L 3609 3500 
L 1753 1863 
L 3688 0 
L 2938 0 
L 1159 1709 
L 1159 0 
L 581 0 
L 581 4863 
z
" transform="scale(0.015625)"/>
      </defs>
      <use xlink:href="#DejaVuSans-67"/>
      <use xlink:href="#DejaVuSans-69" x="63.476562"/>
      <use xlink:href="#DejaVuSans-73" x="91.259766"/>
      <use xlink:href="#DejaVuSans-20" x="143.359375"/>
      <use xlink:href="#DejaVuSans-63" x="175.146484"/>
      <use xlink:href="#DejaVuSans-68" x="230.126953"/>
      <use xlink:href="#DejaVuSans-65" x="293.505859"/>
      <use xlink:href="#DejaVuSans-63" x="355.029297"/>
      <use xlink:href="#DejaVuSans-6b" x="410.009766"/>
      <use xlink:href="#DejaVuSans-6f" x="464.294922"/>
      <use xlink:href="#DejaVuSans-75" x="525.476562"/>
      <use xlink:href="#DejaVuSans-74" x="588.855469"/>
     </g>
    </g>
   </g>
  </g>
 </g>
 <defs>
  <clipPath id="pf0f4841ebe">
   <rect x="36.403365" y="3.00024" width="1316.747541" height="654.632943"/>
  </clipPath>
 </defs>
</svg>
