<?xml version="1.0" encoding="utf-8" standalone="no"?>
<!DOCTYPE svg PUBLIC "-//W3C//DTD SVG 1.1//EN"
  "http://www.w3.org/Graphics/SVG/1.1/DTD/svg11.dtd">
<svg xmlns:xlink="http://www.w3.org/1999/xlink" width="1368pt" height="720pt" viewBox="0 0 1368 720" xmlns="http://www.w3.org/2000/svg" version="1.1">
 <metadata>
  <rdf:RDF xmlns:dc="http://purl.org/dc/elements/1.1/" xmlns:cc="http://creativecommons.org/ns#" xmlns:rdf="http://www.w3.org/1999/02/22-rdf-syntax-ns#">
   <cc:Work>
    <dc:type rdf:resource="http://purl.org/dc/dcmitype/StillImage"/>
    <dc:date>2025-03-07T06:44:38.037908</dc:date>
    <dc:format>image/svg+xml</dc:format>
    <dc:creator>
     <cc:Agent>
      <dc:title>Matplotlib v3.10.1, https://matplotlib.org/</dc:title>
     </cc:Agent>
    </dc:creator>
   </cc:Work>
  </rdf:RDF>
 </metadata>
 <defs>
  <style type="text/css">*{stroke-linejoin: round; stroke-linecap: butt}</style>
 </defs>
 <g id="figure_1">
  <g id="patch_1">
   <path d="M 0 720 
L 1368 720 
L 1368 0 
L 0 0 
z
" style="fill: #ffffff"/>
  </g>
  <g id="axes_1">
   <g id="patch_2">
    <path d="M 36.403365 657.633183 
L 1352.596879 657.633183 
L 1352.596879 3.00024 
L 36.403365 3.00024 
z
" style="fill: #ffffff"/>
   </g>
   <g id="matplotlib.axis_1">
    <g id="xtick_1">
     <g id="line2d_1">
      <path d="M 36.403365 657.633183 
L 36.403365 3.00024 
" clip-path="url(#p6ef4f98732)" style="fill: none; stroke-dasharray: 0.925,0.4; stroke-dashoffset: 0; stroke: #b0b0b0; stroke-width: 0.25"/>
     </g>
     <g id="line2d_2">
      <defs>
       <path id="m9db03d6bae" d="M 0 0 
L 0 3.5 
" style="stroke: #000000; stroke-width: 0.8"/>
      </defs>
      <g>
       <use xlink:href="#m9db03d6bae" x="36.403365" y="657.633183" style="stroke: #000000; stroke-width: 0.8"/>
      </g>
     </g>
     <g id="text_1">
      <!-- 1a5f17 -->
      <g transform="translate(31.487588 699.654409) rotate(-65) scale(0.1 -0.1)">
       <defs>
        <path id="DejaVuSans-31" d="M 794 531 
L 1825 531 
L 1825 4091 
L 703 3866 
L 703 4441 
L 1819 4666 
L 2450 4666 
L 2450 531 
L 3481 531 
L 3481 0 
L 794 0 
L 794 531 
z
" transform="scale(0.015625)"/>
        <path id="DejaVuSans-61" d="M 2194 1759 
Q 1497 1759 1228 1600 
Q 959 1441 959 1056 
Q 959 750 1161 570 
Q 1363 391 1709 391 
Q 2188 391 2477 730 
Q 2766 1069 2766 1631 
L 2766 1759 
L 2194 1759 
z
M 3341 1997 
L 3341 0 
L 2766 0 
L 2766 531 
Q 2569 213 2275 61 
Q 1981 -91 1556 -91 
Q 1019 -91 701 211 
Q 384 513 384 1019 
Q 384 1609 779 1909 
Q 1175 2209 1959 2209 
L 2766 2209 
L 2766 2266 
Q 2766 2663 2505 2880 
Q 2244 3097 1772 3097 
Q 1472 3097 1187 3025 
Q 903 2953 641 2809 
L 641 3341 
Q 956 3463 1253 3523 
Q 1550 3584 1831 3584 
Q 2591 3584 2966 3190 
Q 3341 2797 3341 1997 
z
" transform="scale(0.015625)"/>
        <path id="DejaVuSans-35" d="M 691 4666 
L 3169 4666 
L 3169 4134 
L 1269 4134 
L 1269 2991 
Q 1406 3038 1543 3061 
Q 1681 3084 1819 3084 
Q 2600 3084 3056 2656 
Q 3513 2228 3513 1497 
Q 3513 744 3044 326 
Q 2575 -91 1722 -91 
Q 1428 -91 1123 -41 
Q 819 9 494 109 
L 494 744 
Q 775 591 1075 516 
Q 1375 441 1709 441 
Q 2250 441 2565 725 
Q 2881 1009 2881 1497 
Q 2881 1984 2565 2268 
Q 2250 2553 1709 2553 
Q 1456 2553 1204 2497 
Q 953 2441 691 2322 
L 691 4666 
z
" transform="scale(0.015625)"/>
        <path id="DejaVuSans-66" d="M 2375 4863 
L 2375 4384 
L 1825 4384 
Q 1516 4384 1395 4259 
Q 1275 4134 1275 3809 
L 1275 3500 
L 2222 3500 
L 2222 3053 
L 1275 3053 
L 1275 0 
L 697 0 
L 697 3053 
L 147 3053 
L 147 3500 
L 697 3500 
L 697 3744 
Q 697 4328 969 4595 
Q 1241 4863 1831 4863 
L 2375 4863 
z
" transform="scale(0.015625)"/>
        <path id="DejaVuSans-37" d="M 525 4666 
L 3525 4666 
L 3525 4397 
L 1831 0 
L 1172 0 
L 2766 4134 
L 525 4134 
L 525 4666 
z
" transform="scale(0.015625)"/>
       </defs>
       <use xlink:href="#DejaVuSans-31"/>
       <use xlink:href="#DejaVuSans-61" transform="translate(63.623047 0)"/>
       <use xlink:href="#DejaVuSans-35" transform="translate(124.902344 0)"/>
       <use xlink:href="#DejaVuSans-66" transform="translate(188.525391 0)"/>
       <use xlink:href="#DejaVuSans-31" transform="translate(223.730469 0)"/>
       <use xlink:href="#DejaVuSans-37" transform="translate(287.353516 0)"/>
      </g>
     </g>
    </g>
    <g id="xtick_2">
     <g id="line2d_3">
      <path d="M 71.040036 657.633183 
L 71.040036 3.00024 
" clip-path="url(#p6ef4f98732)" style="fill: none; stroke-dasharray: 0.925,0.4; stroke-dashoffset: 0; stroke: #b0b0b0; stroke-width: 0.25"/>
     </g>
     <g id="line2d_4">
      <g>
       <use xlink:href="#m9db03d6bae" x="71.040036" y="657.633183" style="stroke: #000000; stroke-width: 0.8"/>
      </g>
     </g>
     <g id="text_2">
      <!-- caf3a1 -->
      <g transform="translate(66.356369 698.658886) rotate(-65) scale(0.1 -0.1)">
       <defs>
        <path id="DejaVuSans-63" d="M 3122 3366 
L 3122 2828 
Q 2878 2963 2633 3030 
Q 2388 3097 2138 3097 
Q 1578 3097 1268 2742 
Q 959 2388 959 1747 
Q 959 1106 1268 751 
Q 1578 397 2138 397 
Q 2388 397 2633 464 
Q 2878 531 3122 666 
L 3122 134 
Q 2881 22 2623 -34 
Q 2366 -91 2075 -91 
Q 1284 -91 818 406 
Q 353 903 353 1747 
Q 353 2603 823 3093 
Q 1294 3584 2113 3584 
Q 2378 3584 2631 3529 
Q 2884 3475 3122 3366 
z
" transform="scale(0.015625)"/>
        <path id="DejaVuSans-33" d="M 2597 2516 
Q 3050 2419 3304 2112 
Q 3559 1806 3559 1356 
Q 3559 666 3084 287 
Q 2609 -91 1734 -91 
Q 1441 -91 1130 -33 
Q 819 25 488 141 
L 488 750 
Q 750 597 1062 519 
Q 1375 441 1716 441 
Q 2309 441 2620 675 
Q 2931 909 2931 1356 
Q 2931 1769 2642 2001 
Q 2353 2234 1838 2234 
L 1294 2234 
L 1294 2753 
L 1863 2753 
Q 2328 2753 2575 2939 
Q 2822 3125 2822 3475 
Q 2822 3834 2567 4026 
Q 2313 4219 1838 4219 
Q 1578 4219 1281 4162 
Q 984 4106 628 3988 
L 628 4550 
Q 988 4650 1302 4700 
Q 1616 4750 1894 4750 
Q 2613 4750 3031 4423 
Q 3450 4097 3450 3541 
Q 3450 3153 3228 2886 
Q 3006 2619 2597 2516 
z
" transform="scale(0.015625)"/>
       </defs>
       <use xlink:href="#DejaVuSans-63"/>
       <use xlink:href="#DejaVuSans-61" transform="translate(54.980469 0)"/>
       <use xlink:href="#DejaVuSans-66" transform="translate(116.259766 0)"/>
       <use xlink:href="#DejaVuSans-33" transform="translate(151.464844 0)"/>
       <use xlink:href="#DejaVuSans-61" transform="translate(215.087891 0)"/>
       <use xlink:href="#DejaVuSans-31" transform="translate(276.367188 0)"/>
      </g>
     </g>
    </g>
    <g id="xtick_3">
     <g id="line2d_5">
      <path d="M 105.676708 657.633183 
L 105.676708 3.00024 
" clip-path="url(#p6ef4f98732)" style="fill: none; stroke-dasharray: 0.925,0.4; stroke-dashoffset: 0; stroke: #b0b0b0; stroke-width: 0.25"/>
     </g>
     <g id="line2d_6">
      <g>
       <use xlink:href="#m9db03d6bae" x="105.676708" y="657.633183" style="stroke: #000000; stroke-width: 0.8"/>
      </g>
     </g>
     <g id="text_3">
      <!-- 50c495 -->
      <g transform="translate(100.293409 701.659615) rotate(-65) scale(0.1 -0.1)">
       <defs>
        <path id="DejaVuSans-30" d="M 2034 4250 
Q 1547 4250 1301 3770 
Q 1056 3291 1056 2328 
Q 1056 1369 1301 889 
Q 1547 409 2034 409 
Q 2525 409 2770 889 
Q 3016 1369 3016 2328 
Q 3016 3291 2770 3770 
Q 2525 4250 2034 4250 
z
M 2034 4750 
Q 2819 4750 3233 4129 
Q 3647 3509 3647 2328 
Q 3647 1150 3233 529 
Q 2819 -91 2034 -91 
Q 1250 -91 836 529 
Q 422 1150 422 2328 
Q 422 3509 836 4129 
Q 1250 4750 2034 4750 
z
" transform="scale(0.015625)"/>
        <path id="DejaVuSans-34" d="M 2419 4116 
L 825 1625 
L 2419 1625 
L 2419 4116 
z
M 2253 4666 
L 3047 4666 
L 3047 1625 
L 3713 1625 
L 3713 1100 
L 3047 1100 
L 3047 0 
L 2419 0 
L 2419 1100 
L 313 1100 
L 313 1709 
L 2253 4666 
z
" transform="scale(0.015625)"/>
        <path id="DejaVuSans-39" d="M 703 97 
L 703 672 
Q 941 559 1184 500 
Q 1428 441 1663 441 
Q 2288 441 2617 861 
Q 2947 1281 2994 2138 
Q 2813 1869 2534 1725 
Q 2256 1581 1919 1581 
Q 1219 1581 811 2004 
Q 403 2428 403 3163 
Q 403 3881 828 4315 
Q 1253 4750 1959 4750 
Q 2769 4750 3195 4129 
Q 3622 3509 3622 2328 
Q 3622 1225 3098 567 
Q 2575 -91 1691 -91 
Q 1453 -91 1209 -44 
Q 966 3 703 97 
z
M 1959 2075 
Q 2384 2075 2632 2365 
Q 2881 2656 2881 3163 
Q 2881 3666 2632 3958 
Q 2384 4250 1959 4250 
Q 1534 4250 1286 3958 
Q 1038 3666 1038 3163 
Q 1038 2656 1286 2365 
Q 1534 2075 1959 2075 
z
" transform="scale(0.015625)"/>
       </defs>
       <use xlink:href="#DejaVuSans-35"/>
       <use xlink:href="#DejaVuSans-30" transform="translate(63.623047 0)"/>
       <use xlink:href="#DejaVuSans-63" transform="translate(127.246094 0)"/>
       <use xlink:href="#DejaVuSans-34" transform="translate(182.226562 0)"/>
       <use xlink:href="#DejaVuSans-39" transform="translate(245.849609 0)"/>
       <use xlink:href="#DejaVuSans-35" transform="translate(309.472656 0)"/>
      </g>
     </g>
    </g>
    <g id="xtick_4">
     <g id="line2d_7">
      <path d="M 140.313379 657.633183 
L 140.313379 3.00024 
" clip-path="url(#p6ef4f98732)" style="fill: none; stroke-dasharray: 0.925,0.4; stroke-dashoffset: 0; stroke: #b0b0b0; stroke-width: 0.25"/>
     </g>
     <g id="line2d_8">
      <g>
       <use xlink:href="#m9db03d6bae" x="140.313379" y="657.633183" style="stroke: #000000; stroke-width: 0.8"/>
      </g>
     </g>
     <g id="text_4">
      <!-- 6e3450 -->
      <g transform="translate(134.791739 702.252963) rotate(-65) scale(0.1 -0.1)">
       <defs>
        <path id="DejaVuSans-36" d="M 2113 2584 
Q 1688 2584 1439 2293 
Q 1191 2003 1191 1497 
Q 1191 994 1439 701 
Q 1688 409 2113 409 
Q 2538 409 2786 701 
Q 3034 994 3034 1497 
Q 3034 2003 2786 2293 
Q 2538 2584 2113 2584 
z
M 3366 4563 
L 3366 3988 
Q 3128 4100 2886 4159 
Q 2644 4219 2406 4219 
Q 1781 4219 1451 3797 
Q 1122 3375 1075 2522 
Q 1259 2794 1537 2939 
Q 1816 3084 2150 3084 
Q 2853 3084 3261 2657 
Q 3669 2231 3669 1497 
Q 3669 778 3244 343 
Q 2819 -91 2113 -91 
Q 1303 -91 875 529 
Q 447 1150 447 2328 
Q 447 3434 972 4092 
Q 1497 4750 2381 4750 
Q 2619 4750 2861 4703 
Q 3103 4656 3366 4563 
z
" transform="scale(0.015625)"/>
        <path id="DejaVuSans-65" d="M 3597 1894 
L 3597 1613 
L 953 1613 
Q 991 1019 1311 708 
Q 1631 397 2203 397 
Q 2534 397 2845 478 
Q 3156 559 3463 722 
L 3463 178 
Q 3153 47 2828 -22 
Q 2503 -91 2169 -91 
Q 1331 -91 842 396 
Q 353 884 353 1716 
Q 353 2575 817 3079 
Q 1281 3584 2069 3584 
Q 2775 3584 3186 3129 
Q 3597 2675 3597 1894 
z
M 3022 2063 
Q 3016 2534 2758 2815 
Q 2500 3097 2075 3097 
Q 1594 3097 1305 2825 
Q 1016 2553 972 2059 
L 3022 2063 
z
" transform="scale(0.015625)"/>
       </defs>
       <use xlink:href="#DejaVuSans-36"/>
       <use xlink:href="#DejaVuSans-65" transform="translate(63.623047 0)"/>
       <use xlink:href="#DejaVuSans-33" transform="translate(125.146484 0)"/>
       <use xlink:href="#DejaVuSans-34" transform="translate(188.769531 0)"/>
       <use xlink:href="#DejaVuSans-35" transform="translate(252.392578 0)"/>
       <use xlink:href="#DejaVuSans-30" transform="translate(316.015625 0)"/>
      </g>
     </g>
    </g>
    <g id="xtick_5">
     <g id="line2d_9">
      <path d="M 174.950051 657.633183 
L 174.950051 3.00024 
" clip-path="url(#p6ef4f98732)" style="fill: none; stroke-dasharray: 0.925,0.4; stroke-dashoffset: 0; stroke: #b0b0b0; stroke-width: 0.25"/>
     </g>
     <g id="line2d_10">
      <g>
       <use xlink:href="#m9db03d6bae" x="174.950051" y="657.633183" style="stroke: #000000; stroke-width: 0.8"/>
      </g>
     </g>
     <g id="text_5">
      <!-- 9caff3 -->
      <g transform="translate(170.817438 696.295405) rotate(-65) scale(0.1 -0.1)">
       <use xlink:href="#DejaVuSans-39"/>
       <use xlink:href="#DejaVuSans-63" transform="translate(63.623047 0)"/>
       <use xlink:href="#DejaVuSans-61" transform="translate(118.603516 0)"/>
       <use xlink:href="#DejaVuSans-66" transform="translate(179.882812 0)"/>
       <use xlink:href="#DejaVuSans-66" transform="translate(215.087891 0)"/>
       <use xlink:href="#DejaVuSans-33" transform="translate(250.292969 0)"/>
      </g>
     </g>
    </g>
    <g id="xtick_6">
     <g id="line2d_11">
      <path d="M 209.586722 657.633183 
L 209.586722 3.00024 
" clip-path="url(#p6ef4f98732)" style="fill: none; stroke-dasharray: 0.925,0.4; stroke-dashoffset: 0; stroke: #b0b0b0; stroke-width: 0.25"/>
     </g>
     <g id="line2d_12">
      <g>
       <use xlink:href="#m9db03d6bae" x="209.586722" y="657.633183" style="stroke: #000000; stroke-width: 0.8"/>
      </g>
     </g>
     <g id="text_6">
      <!-- 91d7f1 -->
      <g transform="translate(204.624391 699.854079) rotate(-65) scale(0.1 -0.1)">
       <defs>
        <path id="DejaVuSans-64" d="M 2906 2969 
L 2906 4863 
L 3481 4863 
L 3481 0 
L 2906 0 
L 2906 525 
Q 2725 213 2448 61 
Q 2172 -91 1784 -91 
Q 1150 -91 751 415 
Q 353 922 353 1747 
Q 353 2572 751 3078 
Q 1150 3584 1784 3584 
Q 2172 3584 2448 3432 
Q 2725 3281 2906 2969 
z
M 947 1747 
Q 947 1113 1208 752 
Q 1469 391 1925 391 
Q 2381 391 2643 752 
Q 2906 1113 2906 1747 
Q 2906 2381 2643 2742 
Q 2381 3103 1925 3103 
Q 1469 3103 1208 2742 
Q 947 2381 947 1747 
z
" transform="scale(0.015625)"/>
       </defs>
       <use xlink:href="#DejaVuSans-39"/>
       <use xlink:href="#DejaVuSans-31" transform="translate(63.623047 0)"/>
       <use xlink:href="#DejaVuSans-64" transform="translate(127.246094 0)"/>
       <use xlink:href="#DejaVuSans-37" transform="translate(190.722656 0)"/>
       <use xlink:href="#DejaVuSans-66" transform="translate(254.345703 0)"/>
       <use xlink:href="#DejaVuSans-31" transform="translate(289.550781 0)"/>
      </g>
     </g>
    </g>
    <g id="xtick_7">
     <g id="line2d_13">
      <path d="M 244.223394 657.633183 
L 244.223394 3.00024 
" clip-path="url(#p6ef4f98732)" style="fill: none; stroke-dasharray: 0.925,0.4; stroke-dashoffset: 0; stroke: #b0b0b0; stroke-width: 0.25"/>
     </g>
     <g id="line2d_14">
      <g>
       <use xlink:href="#m9db03d6bae" x="244.223394" y="657.633183" style="stroke: #000000; stroke-width: 0.8"/>
      </g>
     </g>
     <g id="text_7">
      <!-- d4393c -->
      <g transform="translate(238.843066 701.64687) rotate(-65) scale(0.1 -0.1)">
       <use xlink:href="#DejaVuSans-64"/>
       <use xlink:href="#DejaVuSans-34" transform="translate(63.476562 0)"/>
       <use xlink:href="#DejaVuSans-33" transform="translate(127.099609 0)"/>
       <use xlink:href="#DejaVuSans-39" transform="translate(190.722656 0)"/>
       <use xlink:href="#DejaVuSans-33" transform="translate(254.345703 0)"/>
       <use xlink:href="#DejaVuSans-63" transform="translate(317.96875 0)"/>
      </g>
     </g>
    </g>
    <g id="xtick_8">
     <g id="line2d_15">
      <path d="M 278.860065 657.633183 
L 278.860065 3.00024 
" clip-path="url(#p6ef4f98732)" style="fill: none; stroke-dasharray: 0.925,0.4; stroke-dashoffset: 0; stroke: #b0b0b0; stroke-width: 0.25"/>
     </g>
     <g id="line2d_16">
      <g>
       <use xlink:href="#m9db03d6bae" x="278.860065" y="657.633183" style="stroke: #000000; stroke-width: 0.8"/>
      </g>
     </g>
     <g id="text_8">
      <!-- eb78e7 -->
      <g transform="translate(273.385639 702.05046) rotate(-65) scale(0.1 -0.1)">
       <defs>
        <path id="DejaVuSans-62" d="M 3116 1747 
Q 3116 2381 2855 2742 
Q 2594 3103 2138 3103 
Q 1681 3103 1420 2742 
Q 1159 2381 1159 1747 
Q 1159 1113 1420 752 
Q 1681 391 2138 391 
Q 2594 391 2855 752 
Q 3116 1113 3116 1747 
z
M 1159 2969 
Q 1341 3281 1617 3432 
Q 1894 3584 2278 3584 
Q 2916 3584 3314 3078 
Q 3713 2572 3713 1747 
Q 3713 922 3314 415 
Q 2916 -91 2278 -91 
Q 1894 -91 1617 61 
Q 1341 213 1159 525 
L 1159 0 
L 581 0 
L 581 4863 
L 1159 4863 
L 1159 2969 
z
" transform="scale(0.015625)"/>
        <path id="DejaVuSans-38" d="M 2034 2216 
Q 1584 2216 1326 1975 
Q 1069 1734 1069 1313 
Q 1069 891 1326 650 
Q 1584 409 2034 409 
Q 2484 409 2743 651 
Q 3003 894 3003 1313 
Q 3003 1734 2745 1975 
Q 2488 2216 2034 2216 
z
M 1403 2484 
Q 997 2584 770 2862 
Q 544 3141 544 3541 
Q 544 4100 942 4425 
Q 1341 4750 2034 4750 
Q 2731 4750 3128 4425 
Q 3525 4100 3525 3541 
Q 3525 3141 3298 2862 
Q 3072 2584 2669 2484 
Q 3125 2378 3379 2068 
Q 3634 1759 3634 1313 
Q 3634 634 3220 271 
Q 2806 -91 2034 -91 
Q 1263 -91 848 271 
Q 434 634 434 1313 
Q 434 1759 690 2068 
Q 947 2378 1403 2484 
z
M 1172 3481 
Q 1172 3119 1398 2916 
Q 1625 2713 2034 2713 
Q 2441 2713 2670 2916 
Q 2900 3119 2900 3481 
Q 2900 3844 2670 4047 
Q 2441 4250 2034 4250 
Q 1625 4250 1398 4047 
Q 1172 3844 1172 3481 
z
" transform="scale(0.015625)"/>
       </defs>
       <use xlink:href="#DejaVuSans-65"/>
       <use xlink:href="#DejaVuSans-62" transform="translate(61.523438 0)"/>
       <use xlink:href="#DejaVuSans-37" transform="translate(125 0)"/>
       <use xlink:href="#DejaVuSans-38" transform="translate(188.623047 0)"/>
       <use xlink:href="#DejaVuSans-65" transform="translate(252.246094 0)"/>
       <use xlink:href="#DejaVuSans-37" transform="translate(313.769531 0)"/>
      </g>
     </g>
    </g>
    <g id="xtick_9">
     <g id="line2d_17">
      <path d="M 313.496736 657.633183 
L 313.496736 3.00024 
" clip-path="url(#p6ef4f98732)" style="fill: none; stroke-dasharray: 0.925,0.4; stroke-dashoffset: 0; stroke: #b0b0b0; stroke-width: 0.25"/>
     </g>
     <g id="line2d_18">
      <g>
       <use xlink:href="#m9db03d6bae" x="313.496736" y="657.633183" style="stroke: #000000; stroke-width: 0.8"/>
      </g>
     </g>
     <g id="text_9">
      <!-- dcf161 -->
      <g transform="translate(308.716989 699.070973) rotate(-65) scale(0.1 -0.1)">
       <use xlink:href="#DejaVuSans-64"/>
       <use xlink:href="#DejaVuSans-63" transform="translate(63.476562 0)"/>
       <use xlink:href="#DejaVuSans-66" transform="translate(118.457031 0)"/>
       <use xlink:href="#DejaVuSans-31" transform="translate(153.662109 0)"/>
       <use xlink:href="#DejaVuSans-36" transform="translate(217.285156 0)"/>
       <use xlink:href="#DejaVuSans-31" transform="translate(280.908203 0)"/>
      </g>
     </g>
    </g>
    <g id="xtick_10">
     <g id="line2d_19">
      <path d="M 348.133408 657.633183 
L 348.133408 3.00024 
" clip-path="url(#p6ef4f98732)" style="fill: none; stroke-dasharray: 0.925,0.4; stroke-dashoffset: 0; stroke: #b0b0b0; stroke-width: 0.25"/>
     </g>
     <g id="line2d_20">
      <g>
       <use xlink:href="#m9db03d6bae" x="348.133408" y="657.633183" style="stroke: #000000; stroke-width: 0.8"/>
      </g>
     </g>
     <g id="text_10">
      <!-- baaa3d -->
      <g transform="translate(342.722045 701.779984) rotate(-65) scale(0.1 -0.1)">
       <use xlink:href="#DejaVuSans-62"/>
       <use xlink:href="#DejaVuSans-61" transform="translate(63.476562 0)"/>
       <use xlink:href="#DejaVuSans-61" transform="translate(124.755859 0)"/>
       <use xlink:href="#DejaVuSans-61" transform="translate(186.035156 0)"/>
       <use xlink:href="#DejaVuSans-33" transform="translate(247.314453 0)"/>
       <use xlink:href="#DejaVuSans-64" transform="translate(310.9375 0)"/>
      </g>
     </g>
    </g>
    <g id="xtick_11">
     <g id="line2d_21">
      <path d="M 382.770079 657.633183 
L 382.770079 3.00024 
" clip-path="url(#p6ef4f98732)" style="fill: none; stroke-dasharray: 0.925,0.4; stroke-dashoffset: 0; stroke: #b0b0b0; stroke-width: 0.25"/>
     </g>
     <g id="line2d_22">
      <g>
       <use xlink:href="#m9db03d6bae" x="382.770079" y="657.633183" style="stroke: #000000; stroke-width: 0.8"/>
      </g>
     </g>
     <g id="text_11">
      <!-- c598fd -->
      <g transform="translate(377.990332 699.070973) rotate(-65) scale(0.1 -0.1)">
       <use xlink:href="#DejaVuSans-63"/>
       <use xlink:href="#DejaVuSans-35" transform="translate(54.980469 0)"/>
       <use xlink:href="#DejaVuSans-39" transform="translate(118.603516 0)"/>
       <use xlink:href="#DejaVuSans-38" transform="translate(182.226562 0)"/>
       <use xlink:href="#DejaVuSans-66" transform="translate(245.849609 0)"/>
       <use xlink:href="#DejaVuSans-64" transform="translate(281.054688 0)"/>
      </g>
     </g>
    </g>
    <g id="xtick_12">
     <g id="line2d_23">
      <path d="M 417.406751 657.633183 
L 417.406751 3.00024 
" clip-path="url(#p6ef4f98732)" style="fill: none; stroke-dasharray: 0.925,0.4; stroke-dashoffset: 0; stroke: #b0b0b0; stroke-width: 0.25"/>
     </g>
     <g id="line2d_24">
      <g>
       <use xlink:href="#m9db03d6bae" x="417.406751" y="657.633183" style="stroke: #000000; stroke-width: 0.8"/>
      </g>
     </g>
     <g id="text_12">
      <!-- faf315 -->
      <g transform="translate(413.091554 697.078512) rotate(-65) scale(0.1 -0.1)">
       <use xlink:href="#DejaVuSans-66"/>
       <use xlink:href="#DejaVuSans-61" transform="translate(35.205078 0)"/>
       <use xlink:href="#DejaVuSans-66" transform="translate(96.484375 0)"/>
       <use xlink:href="#DejaVuSans-33" transform="translate(131.689453 0)"/>
       <use xlink:href="#DejaVuSans-31" transform="translate(195.3125 0)"/>
       <use xlink:href="#DejaVuSans-35" transform="translate(258.935547 0)"/>
      </g>
     </g>
    </g>
    <g id="xtick_13">
     <g id="line2d_25">
      <path d="M 452.043422 657.633183 
L 452.043422 3.00024 
" clip-path="url(#p6ef4f98732)" style="fill: none; stroke-dasharray: 0.925,0.4; stroke-dashoffset: 0; stroke: #b0b0b0; stroke-width: 0.25"/>
     </g>
     <g id="line2d_26">
      <g>
       <use xlink:href="#m9db03d6bae" x="452.043422" y="657.633183" style="stroke: #000000; stroke-width: 0.8"/>
      </g>
     </g>
     <g id="text_13">
      <!-- 109062 -->
      <g transform="translate(446.477539 702.442721) rotate(-65) scale(0.1 -0.1)">
       <defs>
        <path id="DejaVuSans-32" d="M 1228 531 
L 3431 531 
L 3431 0 
L 469 0 
L 469 531 
Q 828 903 1448 1529 
Q 2069 2156 2228 2338 
Q 2531 2678 2651 2914 
Q 2772 3150 2772 3378 
Q 2772 3750 2511 3984 
Q 2250 4219 1831 4219 
Q 1534 4219 1204 4116 
Q 875 4013 500 3803 
L 500 4441 
Q 881 4594 1212 4672 
Q 1544 4750 1819 4750 
Q 2544 4750 2975 4387 
Q 3406 4025 3406 3419 
Q 3406 3131 3298 2873 
Q 3191 2616 2906 2266 
Q 2828 2175 2409 1742 
Q 1991 1309 1228 531 
z
" transform="scale(0.015625)"/>
       </defs>
       <use xlink:href="#DejaVuSans-31"/>
       <use xlink:href="#DejaVuSans-30" transform="translate(63.623047 0)"/>
       <use xlink:href="#DejaVuSans-39" transform="translate(127.246094 0)"/>
       <use xlink:href="#DejaVuSans-30" transform="translate(190.869141 0)"/>
       <use xlink:href="#DejaVuSans-36" transform="translate(254.492188 0)"/>
       <use xlink:href="#DejaVuSans-32" transform="translate(318.115234 0)"/>
      </g>
     </g>
    </g>
    <g id="xtick_14">
     <g id="line2d_27">
      <path d="M 486.680094 657.633183 
L 486.680094 3.00024 
" clip-path="url(#p6ef4f98732)" style="fill: none; stroke-dasharray: 0.925,0.4; stroke-dashoffset: 0; stroke: #b0b0b0; stroke-width: 0.25"/>
     </g>
     <g id="line2d_28">
      <g>
       <use xlink:href="#m9db03d6bae" x="486.680094" y="657.633183" style="stroke: #000000; stroke-width: 0.8"/>
      </g>
     </g>
     <g id="text_14">
      <!-- c69e17 -->
      <g transform="translate(481.341038 701.469856) rotate(-65) scale(0.1 -0.1)">
       <use xlink:href="#DejaVuSans-63"/>
       <use xlink:href="#DejaVuSans-36" transform="translate(54.980469 0)"/>
       <use xlink:href="#DejaVuSans-39" transform="translate(118.603516 0)"/>
       <use xlink:href="#DejaVuSans-65" transform="translate(182.226562 0)"/>
       <use xlink:href="#DejaVuSans-31" transform="translate(243.75 0)"/>
       <use xlink:href="#DejaVuSans-37" transform="translate(307.373047 0)"/>
      </g>
     </g>
    </g>
    <g id="xtick_15">
     <g id="line2d_29">
      <path d="M 521.316765 657.633183 
L 521.316765 3.00024 
" clip-path="url(#p6ef4f98732)" style="fill: none; stroke-dasharray: 0.925,0.4; stroke-dashoffset: 0; stroke: #b0b0b0; stroke-width: 0.25"/>
     </g>
     <g id="line2d_30">
      <g>
       <use xlink:href="#m9db03d6bae" x="521.316765" y="657.633183" style="stroke: #000000; stroke-width: 0.8"/>
      </g>
     </g>
     <g id="text_15">
      <!-- 152b7a -->
      <g transform="translate(515.803379 702.21756) rotate(-65) scale(0.1 -0.1)">
       <use xlink:href="#DejaVuSans-31"/>
       <use xlink:href="#DejaVuSans-35" transform="translate(63.623047 0)"/>
       <use xlink:href="#DejaVuSans-32" transform="translate(127.246094 0)"/>
       <use xlink:href="#DejaVuSans-62" transform="translate(190.869141 0)"/>
       <use xlink:href="#DejaVuSans-37" transform="translate(254.345703 0)"/>
       <use xlink:href="#DejaVuSans-61" transform="translate(317.96875 0)"/>
      </g>
     </g>
    </g>
    <g id="xtick_16">
     <g id="line2d_31">
      <path d="M 555.953437 657.633183 
L 555.953437 3.00024 
" clip-path="url(#p6ef4f98732)" style="fill: none; stroke-dasharray: 0.925,0.4; stroke-dashoffset: 0; stroke: #b0b0b0; stroke-width: 0.25"/>
     </g>
     <g id="line2d_32">
      <g>
       <use xlink:href="#m9db03d6bae" x="555.953437" y="657.633183" style="stroke: #000000; stroke-width: 0.8"/>
      </g>
     </g>
     <g id="text_16">
      <!-- cb6277 -->
      <g transform="translate(550.573109 701.64687) rotate(-65) scale(0.1 -0.1)">
       <use xlink:href="#DejaVuSans-63"/>
       <use xlink:href="#DejaVuSans-62" transform="translate(54.980469 0)"/>
       <use xlink:href="#DejaVuSans-36" transform="translate(118.457031 0)"/>
       <use xlink:href="#DejaVuSans-32" transform="translate(182.080078 0)"/>
       <use xlink:href="#DejaVuSans-37" transform="translate(245.703125 0)"/>
       <use xlink:href="#DejaVuSans-37" transform="translate(309.326172 0)"/>
      </g>
     </g>
    </g>
    <g id="xtick_17">
     <g id="line2d_33">
      <path d="M 590.590108 657.633183 
L 590.590108 3.00024 
" clip-path="url(#p6ef4f98732)" style="fill: none; stroke-dasharray: 0.925,0.4; stroke-dashoffset: 0; stroke: #b0b0b0; stroke-width: 0.25"/>
     </g>
     <g id="line2d_34">
      <g>
       <use xlink:href="#m9db03d6bae" x="590.590108" y="657.633183" style="stroke: #000000; stroke-width: 0.8"/>
      </g>
     </g>
     <g id="text_17">
      <!-- b11fb2 -->
      <g transform="translate(585.630748 699.841335) rotate(-65) scale(0.1 -0.1)">
       <use xlink:href="#DejaVuSans-62"/>
       <use xlink:href="#DejaVuSans-31" transform="translate(63.476562 0)"/>
       <use xlink:href="#DejaVuSans-31" transform="translate(127.099609 0)"/>
       <use xlink:href="#DejaVuSans-66" transform="translate(190.722656 0)"/>
       <use xlink:href="#DejaVuSans-62" transform="translate(225.927734 0)"/>
       <use xlink:href="#DejaVuSans-32" transform="translate(289.404297 0)"/>
      </g>
     </g>
    </g>
    <g id="xtick_18">
     <g id="line2d_35">
      <path d="M 625.226779 657.633183 
L 625.226779 3.00024 
" clip-path="url(#p6ef4f98732)" style="fill: none; stroke-dasharray: 0.925,0.4; stroke-dashoffset: 0; stroke: #b0b0b0; stroke-width: 0.25"/>
     </g>
     <g id="line2d_36">
      <g>
       <use xlink:href="#m9db03d6bae" x="625.226779" y="657.633183" style="stroke: #000000; stroke-width: 0.8"/>
      </g>
     </g>
     <g id="text_18">
      <!-- 34e33a -->
      <g transform="translate(619.754665 702.040547) rotate(-65) scale(0.1 -0.1)">
       <use xlink:href="#DejaVuSans-33"/>
       <use xlink:href="#DejaVuSans-34" transform="translate(63.623047 0)"/>
       <use xlink:href="#DejaVuSans-65" transform="translate(127.246094 0)"/>
       <use xlink:href="#DejaVuSans-33" transform="translate(188.769531 0)"/>
       <use xlink:href="#DejaVuSans-33" transform="translate(252.392578 0)"/>
       <use xlink:href="#DejaVuSans-61" transform="translate(316.015625 0)"/>
      </g>
     </g>
    </g>
    <g id="xtick_19">
     <g id="line2d_37">
      <path d="M 659.863451 657.633183 
L 659.863451 3.00024 
" clip-path="url(#p6ef4f98732)" style="fill: none; stroke-dasharray: 0.925,0.4; stroke-dashoffset: 0; stroke: #b0b0b0; stroke-width: 0.25"/>
     </g>
     <g id="line2d_38">
      <g>
       <use xlink:href="#m9db03d6bae" x="659.863451" y="657.633183" style="stroke: #000000; stroke-width: 0.8"/>
      </g>
     </g>
     <g id="text_19">
      <!-- a51298 -->
      <g transform="translate(654.347093 702.230305) rotate(-65) scale(0.1 -0.1)">
       <use xlink:href="#DejaVuSans-61"/>
       <use xlink:href="#DejaVuSans-35" transform="translate(61.279297 0)"/>
       <use xlink:href="#DejaVuSans-31" transform="translate(124.902344 0)"/>
       <use xlink:href="#DejaVuSans-32" transform="translate(188.525391 0)"/>
       <use xlink:href="#DejaVuSans-39" transform="translate(252.148438 0)"/>
       <use xlink:href="#DejaVuSans-38" transform="translate(315.771484 0)"/>
      </g>
     </g>
    </g>
    <g id="xtick_20">
     <g id="line2d_39">
      <path d="M 694.500122 657.633183 
L 694.500122 3.00024 
" clip-path="url(#p6ef4f98732)" style="fill: none; stroke-dasharray: 0.925,0.4; stroke-dashoffset: 0; stroke: #b0b0b0; stroke-width: 0.25"/>
     </g>
     <g id="line2d_40">
      <g>
       <use xlink:href="#m9db03d6bae" x="694.500122" y="657.633183" style="stroke: #000000; stroke-width: 0.8"/>
      </g>
     </g>
     <g id="text_20">
      <!-- 114bbf -->
      <g transform="translate(689.540762 699.841335) rotate(-65) scale(0.1 -0.1)">
       <use xlink:href="#DejaVuSans-31"/>
       <use xlink:href="#DejaVuSans-31" transform="translate(63.623047 0)"/>
       <use xlink:href="#DejaVuSans-34" transform="translate(127.246094 0)"/>
       <use xlink:href="#DejaVuSans-62" transform="translate(190.869141 0)"/>
       <use xlink:href="#DejaVuSans-62" transform="translate(254.345703 0)"/>
       <use xlink:href="#DejaVuSans-66" transform="translate(317.822266 0)"/>
      </g>
     </g>
    </g>
    <g id="xtick_21">
     <g id="line2d_41">
      <path d="M 729.136794 657.633183 
L 729.136794 3.00024 
" clip-path="url(#p6ef4f98732)" style="fill: none; stroke-dasharray: 0.925,0.4; stroke-dashoffset: 0; stroke: #b0b0b0; stroke-width: 0.25"/>
     </g>
     <g id="line2d_42">
      <g>
       <use xlink:href="#m9db03d6bae" x="729.136794" y="657.633183" style="stroke: #000000; stroke-width: 0.8"/>
      </g>
     </g>
     <g id="text_21">
      <!-- 128fee -->
      <g transform="translate(724.259977 699.487308) rotate(-65) scale(0.1 -0.1)">
       <use xlink:href="#DejaVuSans-31"/>
       <use xlink:href="#DejaVuSans-32" transform="translate(63.623047 0)"/>
       <use xlink:href="#DejaVuSans-38" transform="translate(127.246094 0)"/>
       <use xlink:href="#DejaVuSans-66" transform="translate(190.869141 0)"/>
       <use xlink:href="#DejaVuSans-65" transform="translate(226.074219 0)"/>
       <use xlink:href="#DejaVuSans-65" transform="translate(287.597656 0)"/>
      </g>
     </g>
    </g>
    <g id="xtick_22">
     <g id="line2d_43">
      <path d="M 763.773465 657.633183 
L 763.773465 3.00024 
" clip-path="url(#p6ef4f98732)" style="fill: none; stroke-dasharray: 0.925,0.4; stroke-dashoffset: 0; stroke: #b0b0b0; stroke-width: 0.25"/>
     </g>
     <g id="line2d_44">
      <g>
       <use xlink:href="#m9db03d6bae" x="763.773465" y="657.633183" style="stroke: #000000; stroke-width: 0.8"/>
      </g>
     </g>
     <g id="text_22">
      <!-- 0aa49f -->
      <g transform="translate(758.907213 699.441993) rotate(-65) scale(0.1 -0.1)">
       <use xlink:href="#DejaVuSans-30"/>
       <use xlink:href="#DejaVuSans-61" transform="translate(63.623047 0)"/>
       <use xlink:href="#DejaVuSans-61" transform="translate(124.902344 0)"/>
       <use xlink:href="#DejaVuSans-34" transform="translate(186.181641 0)"/>
       <use xlink:href="#DejaVuSans-39" transform="translate(249.804688 0)"/>
       <use xlink:href="#DejaVuSans-66" transform="translate(313.427734 0)"/>
      </g>
     </g>
    </g>
    <g id="xtick_23">
     <g id="line2d_45">
      <path d="M 798.410137 657.633183 
L 798.410137 3.00024 
" clip-path="url(#p6ef4f98732)" style="fill: none; stroke-dasharray: 0.925,0.4; stroke-dashoffset: 0; stroke: #b0b0b0; stroke-width: 0.25"/>
     </g>
     <g id="line2d_46">
      <g>
       <use xlink:href="#m9db03d6bae" x="798.410137" y="657.633183" style="stroke: #000000; stroke-width: 0.8"/>
      </g>
     </g>
     <g id="text_23">
      <!-- 2730d4 -->
      <g transform="translate(792.847225 702.429976) rotate(-65) scale(0.1 -0.1)">
       <use xlink:href="#DejaVuSans-32"/>
       <use xlink:href="#DejaVuSans-37" transform="translate(63.623047 0)"/>
       <use xlink:href="#DejaVuSans-33" transform="translate(127.246094 0)"/>
       <use xlink:href="#DejaVuSans-30" transform="translate(190.869141 0)"/>
       <use xlink:href="#DejaVuSans-64" transform="translate(254.492188 0)"/>
       <use xlink:href="#DejaVuSans-34" transform="translate(317.96875 0)"/>
      </g>
     </g>
    </g>
    <g id="xtick_24">
     <g id="line2d_47">
      <path d="M 833.046808 657.633183 
L 833.046808 3.00024 
" clip-path="url(#p6ef4f98732)" style="fill: none; stroke-dasharray: 0.925,0.4; stroke-dashoffset: 0; stroke: #b0b0b0; stroke-width: 0.25"/>
     </g>
     <g id="line2d_48">
      <g>
       <use xlink:href="#m9db03d6bae" x="833.046808" y="657.633183" style="stroke: #000000; stroke-width: 0.8"/>
      </g>
     </g>
     <g id="text_24">
      <!-- 36a126 -->
      <g transform="translate(827.530451 702.230305) rotate(-65) scale(0.1 -0.1)">
       <use xlink:href="#DejaVuSans-33"/>
       <use xlink:href="#DejaVuSans-36" transform="translate(63.623047 0)"/>
       <use xlink:href="#DejaVuSans-61" transform="translate(127.246094 0)"/>
       <use xlink:href="#DejaVuSans-31" transform="translate(188.525391 0)"/>
       <use xlink:href="#DejaVuSans-32" transform="translate(252.148438 0)"/>
       <use xlink:href="#DejaVuSans-36" transform="translate(315.771484 0)"/>
      </g>
     </g>
    </g>
    <g id="xtick_25">
     <g id="line2d_49">
      <path d="M 867.683479 657.633183 
L 867.683479 3.00024 
" clip-path="url(#p6ef4f98732)" style="fill: none; stroke-dasharray: 0.925,0.4; stroke-dashoffset: 0; stroke: #b0b0b0; stroke-width: 0.25"/>
     </g>
     <g id="line2d_50">
      <g>
       <use xlink:href="#m9db03d6bae" x="867.683479" y="657.633183" style="stroke: #000000; stroke-width: 0.8"/>
      </g>
     </g>
     <g id="text_25">
      <!-- af0468 -->
      <g transform="translate(862.767702 699.654409) rotate(-65) scale(0.1 -0.1)">
       <use xlink:href="#DejaVuSans-61"/>
       <use xlink:href="#DejaVuSans-66" transform="translate(61.279297 0)"/>
       <use xlink:href="#DejaVuSans-30" transform="translate(96.484375 0)"/>
       <use xlink:href="#DejaVuSans-34" transform="translate(160.107422 0)"/>
       <use xlink:href="#DejaVuSans-36" transform="translate(223.730469 0)"/>
       <use xlink:href="#DejaVuSans-38" transform="translate(287.353516 0)"/>
      </g>
     </g>
    </g>
    <g id="xtick_26">
     <g id="line2d_51">
      <path d="M 902.320151 657.633183 
L 902.320151 3.00024 
" clip-path="url(#p6ef4f98732)" style="fill: none; stroke-dasharray: 0.925,0.4; stroke-dashoffset: 0; stroke: #b0b0b0; stroke-width: 0.25"/>
     </g>
     <g id="line2d_52">
      <g>
       <use xlink:href="#m9db03d6bae" x="902.320151" y="657.633183" style="stroke: #000000; stroke-width: 0.8"/>
      </g>
     </g>
     <g id="text_26">
      <!-- 4a1ba2 -->
      <g transform="translate(896.856291 702.005144) rotate(-65) scale(0.1 -0.1)">
       <use xlink:href="#DejaVuSans-34"/>
       <use xlink:href="#DejaVuSans-61" transform="translate(63.623047 0)"/>
       <use xlink:href="#DejaVuSans-31" transform="translate(124.902344 0)"/>
       <use xlink:href="#DejaVuSans-62" transform="translate(188.525391 0)"/>
       <use xlink:href="#DejaVuSans-61" transform="translate(252.001953 0)"/>
       <use xlink:href="#DejaVuSans-32" transform="translate(313.28125 0)"/>
      </g>
     </g>
    </g>
    <g id="xtick_27">
     <g id="line2d_53">
      <path d="M 936.956822 657.633183 
L 936.956822 3.00024 
" clip-path="url(#p6ef4f98732)" style="fill: none; stroke-dasharray: 0.925,0.4; stroke-dashoffset: 0; stroke: #b0b0b0; stroke-width: 0.25"/>
     </g>
     <g id="line2d_54">
      <g>
       <use xlink:href="#m9db03d6bae" x="936.956822" y="657.633183" style="stroke: #000000; stroke-width: 0.8"/>
      </g>
     </g>
     <g id="text_27">
      <!-- d350be -->
      <g transform="translate(931.441125 702.227473) rotate(-65) scale(0.1 -0.1)">
       <use xlink:href="#DejaVuSans-64"/>
       <use xlink:href="#DejaVuSans-33" transform="translate(63.476562 0)"/>
       <use xlink:href="#DejaVuSans-35" transform="translate(127.099609 0)"/>
       <use xlink:href="#DejaVuSans-30" transform="translate(190.722656 0)"/>
       <use xlink:href="#DejaVuSans-62" transform="translate(254.345703 0)"/>
       <use xlink:href="#DejaVuSans-65" transform="translate(317.822266 0)"/>
      </g>
     </g>
    </g>
    <g id="xtick_28">
     <g id="line2d_55">
      <path d="M 971.593494 657.633183 
L 971.593494 3.00024 
" clip-path="url(#p6ef4f98732)" style="fill: none; stroke-dasharray: 0.925,0.4; stroke-dashoffset: 0; stroke: #b0b0b0; stroke-width: 0.25"/>
     </g>
     <g id="line2d_56">
      <g>
       <use xlink:href="#m9db03d6bae" x="971.593494" y="657.633183" style="stroke: #000000; stroke-width: 0.8"/>
      </g>
     </g>
     <g id="text_28">
      <!-- e28437 -->
      <g transform="translate(966.071854 702.252963) rotate(-65) scale(0.1 -0.1)">
       <use xlink:href="#DejaVuSans-65"/>
       <use xlink:href="#DejaVuSans-32" transform="translate(61.523438 0)"/>
       <use xlink:href="#DejaVuSans-38" transform="translate(125.146484 0)"/>
       <use xlink:href="#DejaVuSans-34" transform="translate(188.769531 0)"/>
       <use xlink:href="#DejaVuSans-33" transform="translate(252.392578 0)"/>
       <use xlink:href="#DejaVuSans-37" transform="translate(316.015625 0)"/>
      </g>
     </g>
    </g>
    <g id="xtick_29">
     <g id="line2d_57">
      <path d="M 1006.230165 657.633183 
L 1006.230165 3.00024 
" clip-path="url(#p6ef4f98732)" style="fill: none; stroke-dasharray: 0.925,0.4; stroke-dashoffset: 0; stroke: #b0b0b0; stroke-width: 0.25"/>
     </g>
     <g id="line2d_58">
      <g>
       <use xlink:href="#m9db03d6bae" x="1006.230165" y="657.633183" style="stroke: #000000; stroke-width: 0.8"/>
      </g>
     </g>
     <g id="text_29">
      <!-- eceef9 -->
      <g transform="translate(1001.580175 698.514443) rotate(-65) scale(0.1 -0.1)">
       <use xlink:href="#DejaVuSans-65"/>
       <use xlink:href="#DejaVuSans-63" transform="translate(61.523438 0)"/>
       <use xlink:href="#DejaVuSans-65" transform="translate(116.503906 0)"/>
       <use xlink:href="#DejaVuSans-65" transform="translate(178.027344 0)"/>
       <use xlink:href="#DejaVuSans-66" transform="translate(239.550781 0)"/>
       <use xlink:href="#DejaVuSans-39" transform="translate(274.755859 0)"/>
      </g>
     </g>
    </g>
    <g id="xtick_30">
     <g id="line2d_59">
      <path d="M 1040.866837 657.633183 
L 1040.866837 3.00024 
" clip-path="url(#p6ef4f98732)" style="fill: none; stroke-dasharray: 0.925,0.4; stroke-dashoffset: 0; stroke: #b0b0b0; stroke-width: 0.25"/>
     </g>
     <g id="line2d_60">
      <g>
       <use xlink:href="#m9db03d6bae" x="1040.866837" y="657.633183" style="stroke: #000000; stroke-width: 0.8"/>
      </g>
     </g>
     <g id="text_30">
      <!-- 4a79b7 -->
      <g transform="translate(1035.353451 702.21756) rotate(-65) scale(0.1 -0.1)">
       <use xlink:href="#DejaVuSans-34"/>
       <use xlink:href="#DejaVuSans-61" transform="translate(63.623047 0)"/>
       <use xlink:href="#DejaVuSans-37" transform="translate(124.902344 0)"/>
       <use xlink:href="#DejaVuSans-39" transform="translate(188.525391 0)"/>
       <use xlink:href="#DejaVuSans-62" transform="translate(252.148438 0)"/>
       <use xlink:href="#DejaVuSans-37" transform="translate(315.625 0)"/>
      </g>
     </g>
    </g>
    <g id="xtick_31">
     <g id="line2d_61">
      <path d="M 1075.503508 657.633183 
L 1075.503508 3.00024 
" clip-path="url(#p6ef4f98732)" style="fill: none; stroke-dasharray: 0.925,0.4; stroke-dashoffset: 0; stroke: #b0b0b0; stroke-width: 0.25"/>
     </g>
     <g id="line2d_62">
      <g>
       <use xlink:href="#m9db03d6bae" x="1075.503508" y="657.633183" style="stroke: #000000; stroke-width: 0.8"/>
      </g>
     </g>
     <g id="text_31">
      <!-- 1fdc3c -->
      <g transform="translate(1070.906345 698.287866) rotate(-65) scale(0.1 -0.1)">
       <use xlink:href="#DejaVuSans-31"/>
       <use xlink:href="#DejaVuSans-66" transform="translate(63.623047 0)"/>
       <use xlink:href="#DejaVuSans-64" transform="translate(98.828125 0)"/>
       <use xlink:href="#DejaVuSans-63" transform="translate(162.304688 0)"/>
       <use xlink:href="#DejaVuSans-33" transform="translate(217.285156 0)"/>
       <use xlink:href="#DejaVuSans-63" transform="translate(280.908203 0)"/>
      </g>
     </g>
    </g>
    <g id="xtick_32">
     <g id="line2d_63">
      <path d="M 1110.140179 657.633183 
L 1110.140179 3.00024 
" clip-path="url(#p6ef4f98732)" style="fill: none; stroke-dasharray: 0.925,0.4; stroke-dashoffset: 0; stroke: #b0b0b0; stroke-width: 0.25"/>
     </g>
     <g id="line2d_64">
      <g>
       <use xlink:href="#m9db03d6bae" x="1110.140179" y="657.633183" style="stroke: #000000; stroke-width: 0.8"/>
      </g>
     </g>
     <g id="text_32">
      <!-- 3f0b59 -->
      <g transform="translate(1105.177848 699.854079) rotate(-65) scale(0.1 -0.1)">
       <use xlink:href="#DejaVuSans-33"/>
       <use xlink:href="#DejaVuSans-66" transform="translate(63.623047 0)"/>
       <use xlink:href="#DejaVuSans-30" transform="translate(98.828125 0)"/>
       <use xlink:href="#DejaVuSans-62" transform="translate(162.451172 0)"/>
       <use xlink:href="#DejaVuSans-35" transform="translate(225.927734 0)"/>
       <use xlink:href="#DejaVuSans-39" transform="translate(289.550781 0)"/>
      </g>
     </g>
    </g>
    <g id="xtick_33">
     <g id="line2d_65">
      <path d="M 1144.776851 657.633183 
L 1144.776851 3.00024 
" clip-path="url(#p6ef4f98732)" style="fill: none; stroke-dasharray: 0.925,0.4; stroke-dashoffset: 0; stroke: #b0b0b0; stroke-width: 0.25"/>
     </g>
     <g id="line2d_66">
      <g>
       <use xlink:href="#m9db03d6bae" x="1144.776851" y="657.633183" style="stroke: #000000; stroke-width: 0.8"/>
      </g>
     </g>
     <g id="text_33">
      <!-- d31f06 -->
      <g transform="translate(1139.81452 699.854079) rotate(-65) scale(0.1 -0.1)">
       <use xlink:href="#DejaVuSans-64"/>
       <use xlink:href="#DejaVuSans-33" transform="translate(63.476562 0)"/>
       <use xlink:href="#DejaVuSans-31" transform="translate(127.099609 0)"/>
       <use xlink:href="#DejaVuSans-66" transform="translate(190.722656 0)"/>
       <use xlink:href="#DejaVuSans-30" transform="translate(225.927734 0)"/>
       <use xlink:href="#DejaVuSans-36" transform="translate(289.550781 0)"/>
      </g>
     </g>
    </g>
    <g id="xtick_34">
     <g id="line2d_67">
      <path d="M 1179.413522 657.633183 
L 1179.413522 3.00024 
" clip-path="url(#p6ef4f98732)" style="fill: none; stroke-dasharray: 0.925,0.4; stroke-dashoffset: 0; stroke: #b0b0b0; stroke-width: 0.25"/>
     </g>
     <g id="line2d_68">
      <g>
       <use xlink:href="#m9db03d6bae" x="1179.413522" y="657.633183" style="stroke: #000000; stroke-width: 0.8"/>
      </g>
     </g>
     <g id="text_34">
      <!-- 69fafd -->
      <g transform="translate(1175.101297 697.065767) rotate(-65) scale(0.1 -0.1)">
       <use xlink:href="#DejaVuSans-36"/>
       <use xlink:href="#DejaVuSans-39" transform="translate(63.623047 0)"/>
       <use xlink:href="#DejaVuSans-66" transform="translate(127.246094 0)"/>
       <use xlink:href="#DejaVuSans-61" transform="translate(162.451172 0)"/>
       <use xlink:href="#DejaVuSans-66" transform="translate(223.730469 0)"/>
       <use xlink:href="#DejaVuSans-64" transform="translate(258.935547 0)"/>
      </g>
     </g>
    </g>
    <g id="xtick_35">
     <g id="line2d_69">
      <path d="M 1214.050194 657.633183 
L 1214.050194 3.00024 
" clip-path="url(#p6ef4f98732)" style="fill: none; stroke-dasharray: 0.925,0.4; stroke-dashoffset: 0; stroke: #b0b0b0; stroke-width: 0.25"/>
     </g>
     <g id="line2d_70">
      <g>
       <use xlink:href="#m9db03d6bae" x="1214.050194" y="657.633183" style="stroke: #000000; stroke-width: 0.8"/>
      </g>
     </g>
     <g id="text_35">
      <!-- 411622 -->
      <g transform="translate(1208.484311 702.442721) rotate(-65) scale(0.1 -0.1)">
       <use xlink:href="#DejaVuSans-34"/>
       <use xlink:href="#DejaVuSans-31" transform="translate(63.623047 0)"/>
       <use xlink:href="#DejaVuSans-31" transform="translate(127.246094 0)"/>
       <use xlink:href="#DejaVuSans-36" transform="translate(190.869141 0)"/>
       <use xlink:href="#DejaVuSans-32" transform="translate(254.492188 0)"/>
       <use xlink:href="#DejaVuSans-32" transform="translate(318.115234 0)"/>
      </g>
     </g>
    </g>
    <g id="xtick_36">
     <g id="line2d_71">
      <path d="M 1248.686865 657.633183 
L 1248.686865 3.00024 
" clip-path="url(#p6ef4f98732)" style="fill: none; stroke-dasharray: 0.925,0.4; stroke-dashoffset: 0; stroke: #b0b0b0; stroke-width: 0.25"/>
     </g>
     <g id="line2d_72">
      <g>
       <use xlink:href="#m9db03d6bae" x="1248.686865" y="657.633183" style="stroke: #000000; stroke-width: 0.8"/>
      </g>
     </g>
     <g id="text_36">
      <!-- 857516 -->
      <g transform="translate(1243.120982 702.442721) rotate(-65) scale(0.1 -0.1)">
       <use xlink:href="#DejaVuSans-38"/>
       <use xlink:href="#DejaVuSans-35" transform="translate(63.623047 0)"/>
       <use xlink:href="#DejaVuSans-37" transform="translate(127.246094 0)"/>
       <use xlink:href="#DejaVuSans-35" transform="translate(190.869141 0)"/>
       <use xlink:href="#DejaVuSans-31" transform="translate(254.492188 0)"/>
       <use xlink:href="#DejaVuSans-36" transform="translate(318.115234 0)"/>
      </g>
     </g>
    </g>
    <g id="xtick_37">
     <g id="line2d_73">
      <path d="M 1283.323537 657.633183 
L 1283.323537 3.00024 
" clip-path="url(#p6ef4f98732)" style="fill: none; stroke-dasharray: 0.925,0.4; stroke-dashoffset: 0; stroke: #b0b0b0; stroke-width: 0.25"/>
     </g>
     <g id="line2d_74">
      <g>
       <use xlink:href="#m9db03d6bae" x="1283.323537" y="657.633183" style="stroke: #000000; stroke-width: 0.8"/>
      </g>
     </g>
     <g id="text_37">
      <!-- 604265 -->
      <g transform="translate(1277.757654 702.442721) rotate(-65) scale(0.1 -0.1)">
       <use xlink:href="#DejaVuSans-36"/>
       <use xlink:href="#DejaVuSans-30" transform="translate(63.623047 0)"/>
       <use xlink:href="#DejaVuSans-34" transform="translate(127.246094 0)"/>
       <use xlink:href="#DejaVuSans-32" transform="translate(190.869141 0)"/>
       <use xlink:href="#DejaVuSans-36" transform="translate(254.492188 0)"/>
       <use xlink:href="#DejaVuSans-35" transform="translate(318.115234 0)"/>
      </g>
     </g>
    </g>
    <g id="xtick_38">
     <g id="line2d_75">
      <path d="M 1317.960208 657.633183 
L 1317.960208 3.00024 
" clip-path="url(#p6ef4f98732)" style="fill: none; stroke-dasharray: 0.925,0.4; stroke-dashoffset: 0; stroke: #b0b0b0; stroke-width: 0.25"/>
     </g>
     <g id="line2d_76">
      <g>
       <use xlink:href="#m9db03d6bae" x="1317.960208" y="657.633183" style="stroke: #000000; stroke-width: 0.8"/>
      </g>
     </g>
     <g id="text_38">
      <!-- 58aee5 -->
      <g transform="translate(1312.532336 701.850789) rotate(-65) scale(0.1 -0.1)">
       <use xlink:href="#DejaVuSans-35"/>
       <use xlink:href="#DejaVuSans-38" transform="translate(63.623047 0)"/>
       <use xlink:href="#DejaVuSans-61" transform="translate(127.246094 0)"/>
       <use xlink:href="#DejaVuSans-65" transform="translate(188.525391 0)"/>
       <use xlink:href="#DejaVuSans-65" transform="translate(250.048828 0)"/>
       <use xlink:href="#DejaVuSans-35" transform="translate(311.572266 0)"/>
      </g>
     </g>
    </g>
    <g id="xtick_39">
     <g id="line2d_77">
      <path d="M 1352.596879 657.633183 
L 1352.596879 3.00024 
" clip-path="url(#p6ef4f98732)" style="fill: none; stroke-dasharray: 0.925,0.4; stroke-dashoffset: 0; stroke: #b0b0b0; stroke-width: 0.25"/>
     </g>
     <g id="line2d_78">
      <g>
       <use xlink:href="#m9db03d6bae" x="1352.596879" y="657.633183" style="stroke: #000000; stroke-width: 0.8"/>
      </g>
     </g>
     <g id="text_39">
      <!-- 7411a4 -->
      <g transform="translate(1347.080522 702.230305) rotate(-65) scale(0.1 -0.1)">
       <use xlink:href="#DejaVuSans-37"/>
       <use xlink:href="#DejaVuSans-34" transform="translate(63.623047 0)"/>
       <use xlink:href="#DejaVuSans-31" transform="translate(127.246094 0)"/>
       <use xlink:href="#DejaVuSans-31" transform="translate(190.869141 0)"/>
       <use xlink:href="#DejaVuSans-61" transform="translate(254.492188 0)"/>
       <use xlink:href="#DejaVuSans-34" transform="translate(315.771484 0)"/>
      </g>
     </g>
    </g>
    <g id="text_40">
     <!-- Commit SHA -->
     <g transform="translate(662.915747 714.920072) scale(0.1 -0.1)">
      <defs>
       <path id="DejaVuSans-43" d="M 4122 4306 
L 4122 3641 
Q 3803 3938 3442 4084 
Q 3081 4231 2675 4231 
Q 1875 4231 1450 3742 
Q 1025 3253 1025 2328 
Q 1025 1406 1450 917 
Q 1875 428 2675 428 
Q 3081 428 3442 575 
Q 3803 722 4122 1019 
L 4122 359 
Q 3791 134 3420 21 
Q 3050 -91 2638 -91 
Q 1578 -91 968 557 
Q 359 1206 359 2328 
Q 359 3453 968 4101 
Q 1578 4750 2638 4750 
Q 3056 4750 3426 4639 
Q 3797 4528 4122 4306 
z
" transform="scale(0.015625)"/>
       <path id="DejaVuSans-6f" d="M 1959 3097 
Q 1497 3097 1228 2736 
Q 959 2375 959 1747 
Q 959 1119 1226 758 
Q 1494 397 1959 397 
Q 2419 397 2687 759 
Q 2956 1122 2956 1747 
Q 2956 2369 2687 2733 
Q 2419 3097 1959 3097 
z
M 1959 3584 
Q 2709 3584 3137 3096 
Q 3566 2609 3566 1747 
Q 3566 888 3137 398 
Q 2709 -91 1959 -91 
Q 1206 -91 779 398 
Q 353 888 353 1747 
Q 353 2609 779 3096 
Q 1206 3584 1959 3584 
z
" transform="scale(0.015625)"/>
       <path id="DejaVuSans-6d" d="M 3328 2828 
Q 3544 3216 3844 3400 
Q 4144 3584 4550 3584 
Q 5097 3584 5394 3201 
Q 5691 2819 5691 2113 
L 5691 0 
L 5113 0 
L 5113 2094 
Q 5113 2597 4934 2840 
Q 4756 3084 4391 3084 
Q 3944 3084 3684 2787 
Q 3425 2491 3425 1978 
L 3425 0 
L 2847 0 
L 2847 2094 
Q 2847 2600 2669 2842 
Q 2491 3084 2119 3084 
Q 1678 3084 1418 2786 
Q 1159 2488 1159 1978 
L 1159 0 
L 581 0 
L 581 3500 
L 1159 3500 
L 1159 2956 
Q 1356 3278 1631 3431 
Q 1906 3584 2284 3584 
Q 2666 3584 2933 3390 
Q 3200 3197 3328 2828 
z
" transform="scale(0.015625)"/>
       <path id="DejaVuSans-69" d="M 603 3500 
L 1178 3500 
L 1178 0 
L 603 0 
L 603 3500 
z
M 603 4863 
L 1178 4863 
L 1178 4134 
L 603 4134 
L 603 4863 
z
" transform="scale(0.015625)"/>
       <path id="DejaVuSans-74" d="M 1172 4494 
L 1172 3500 
L 2356 3500 
L 2356 3053 
L 1172 3053 
L 1172 1153 
Q 1172 725 1289 603 
Q 1406 481 1766 481 
L 2356 481 
L 2356 0 
L 1766 0 
Q 1100 0 847 248 
Q 594 497 594 1153 
L 594 3053 
L 172 3053 
L 172 3500 
L 594 3500 
L 594 4494 
L 1172 4494 
z
" transform="scale(0.015625)"/>
       <path id="DejaVuSans-20" transform="scale(0.015625)"/>
       <path id="DejaVuSans-53" d="M 3425 4513 
L 3425 3897 
Q 3066 4069 2747 4153 
Q 2428 4238 2131 4238 
Q 1616 4238 1336 4038 
Q 1056 3838 1056 3469 
Q 1056 3159 1242 3001 
Q 1428 2844 1947 2747 
L 2328 2669 
Q 3034 2534 3370 2195 
Q 3706 1856 3706 1288 
Q 3706 609 3251 259 
Q 2797 -91 1919 -91 
Q 1588 -91 1214 -16 
Q 841 59 441 206 
L 441 856 
Q 825 641 1194 531 
Q 1563 422 1919 422 
Q 2459 422 2753 634 
Q 3047 847 3047 1241 
Q 3047 1584 2836 1778 
Q 2625 1972 2144 2069 
L 1759 2144 
Q 1053 2284 737 2584 
Q 422 2884 422 3419 
Q 422 4038 858 4394 
Q 1294 4750 2059 4750 
Q 2388 4750 2728 4690 
Q 3069 4631 3425 4513 
z
" transform="scale(0.015625)"/>
       <path id="DejaVuSans-48" d="M 628 4666 
L 1259 4666 
L 1259 2753 
L 3553 2753 
L 3553 4666 
L 4184 4666 
L 4184 0 
L 3553 0 
L 3553 2222 
L 1259 2222 
L 1259 0 
L 628 0 
L 628 4666 
z
" transform="scale(0.015625)"/>
       <path id="DejaVuSans-41" d="M 2188 4044 
L 1331 1722 
L 3047 1722 
L 2188 4044 
z
M 1831 4666 
L 2547 4666 
L 4325 0 
L 3669 0 
L 3244 1197 
L 1141 1197 
L 716 0 
L 50 0 
L 1831 4666 
z
" transform="scale(0.015625)"/>
      </defs>
      <use xlink:href="#DejaVuSans-43"/>
      <use xlink:href="#DejaVuSans-6f" transform="translate(69.824219 0)"/>
      <use xlink:href="#DejaVuSans-6d" transform="translate(131.005859 0)"/>
      <use xlink:href="#DejaVuSans-6d" transform="translate(228.417969 0)"/>
      <use xlink:href="#DejaVuSans-69" transform="translate(325.830078 0)"/>
      <use xlink:href="#DejaVuSans-74" transform="translate(353.613281 0)"/>
      <use xlink:href="#DejaVuSans-20" transform="translate(392.822266 0)"/>
      <use xlink:href="#DejaVuSans-53" transform="translate(424.609375 0)"/>
      <use xlink:href="#DejaVuSans-48" transform="translate(488.085938 0)"/>
      <use xlink:href="#DejaVuSans-41" transform="translate(563.28125 0)"/>
     </g>
    </g>
   </g>
   <g id="matplotlib.axis_2">
    <g id="ytick_1">
     <g id="line2d_79">
      <path d="M 36.403365 586.862054 
L 1352.596879 586.862054 
" clip-path="url(#p6ef4f98732)" style="fill: none; stroke-dasharray: 0.925,0.4; stroke-dashoffset: 0; stroke: #b0b0b0; stroke-width: 0.25"/>
     </g>
     <g id="line2d_80">
      <defs>
       <path id="m3a2fafcbdc" d="M 0 0 
L -3.5 0 
" style="stroke: #000000; stroke-width: 0.8"/>
      </defs>
      <g>
       <use xlink:href="#m3a2fafcbdc" x="36.403365" y="586.862054" style="stroke: #000000; stroke-width: 0.8"/>
      </g>
     </g>
     <g id="text_41">
      <!-- 20 -->
      <g transform="translate(16.678365 590.661273) scale(0.1 -0.1)">
       <use xlink:href="#DejaVuSans-32"/>
       <use xlink:href="#DejaVuSans-30" transform="translate(63.623047 0)"/>
      </g>
     </g>
    </g>
    <g id="ytick_2">
     <g id="line2d_81">
      <path d="M 36.403365 498.398143 
L 1352.596879 498.398143 
" clip-path="url(#p6ef4f98732)" style="fill: none; stroke-dasharray: 0.925,0.4; stroke-dashoffset: 0; stroke: #b0b0b0; stroke-width: 0.25"/>
     </g>
     <g id="line2d_82">
      <g>
       <use xlink:href="#m3a2fafcbdc" x="36.403365" y="498.398143" style="stroke: #000000; stroke-width: 0.8"/>
      </g>
     </g>
     <g id="text_42">
      <!-- 25 -->
      <g transform="translate(16.678365 502.197361) scale(0.1 -0.1)">
       <use xlink:href="#DejaVuSans-32"/>
       <use xlink:href="#DejaVuSans-35" transform="translate(63.623047 0)"/>
      </g>
     </g>
    </g>
    <g id="ytick_3">
     <g id="line2d_83">
      <path d="M 36.403365 409.934232 
L 1352.596879 409.934232 
" clip-path="url(#p6ef4f98732)" style="fill: none; stroke-dasharray: 0.925,0.4; stroke-dashoffset: 0; stroke: #b0b0b0; stroke-width: 0.25"/>
     </g>
     <g id="line2d_84">
      <g>
       <use xlink:href="#m3a2fafcbdc" x="36.403365" y="409.934232" style="stroke: #000000; stroke-width: 0.8"/>
      </g>
     </g>
     <g id="text_43">
      <!-- 30 -->
      <g transform="translate(16.678365 413.73345) scale(0.1 -0.1)">
       <use xlink:href="#DejaVuSans-33"/>
       <use xlink:href="#DejaVuSans-30" transform="translate(63.623047 0)"/>
      </g>
     </g>
    </g>
    <g id="ytick_4">
     <g id="line2d_85">
      <path d="M 36.403365 321.47032 
L 1352.596879 321.47032 
" clip-path="url(#p6ef4f98732)" style="fill: none; stroke-dasharray: 0.925,0.4; stroke-dashoffset: 0; stroke: #b0b0b0; stroke-width: 0.25"/>
     </g>
     <g id="line2d_86">
      <g>
       <use xlink:href="#m3a2fafcbdc" x="36.403365" y="321.47032" style="stroke: #000000; stroke-width: 0.8"/>
      </g>
     </g>
     <g id="text_44">
      <!-- 35 -->
      <g transform="translate(16.678365 325.269539) scale(0.1 -0.1)">
       <use xlink:href="#DejaVuSans-33"/>
       <use xlink:href="#DejaVuSans-35" transform="translate(63.623047 0)"/>
      </g>
     </g>
    </g>
    <g id="ytick_5">
     <g id="line2d_87">
      <path d="M 36.403365 233.006409 
L 1352.596879 233.006409 
" clip-path="url(#p6ef4f98732)" style="fill: none; stroke-dasharray: 0.925,0.4; stroke-dashoffset: 0; stroke: #b0b0b0; stroke-width: 0.25"/>
     </g>
     <g id="line2d_88">
      <g>
       <use xlink:href="#m3a2fafcbdc" x="36.403365" y="233.006409" style="stroke: #000000; stroke-width: 0.8"/>
      </g>
     </g>
     <g id="text_45">
      <!-- 40 -->
      <g transform="translate(16.678365 236.805628) scale(0.1 -0.1)">
       <use xlink:href="#DejaVuSans-34"/>
       <use xlink:href="#DejaVuSans-30" transform="translate(63.623047 0)"/>
      </g>
     </g>
    </g>
    <g id="ytick_6">
     <g id="line2d_89">
      <path d="M 36.403365 144.542498 
L 1352.596879 144.542498 
" clip-path="url(#p6ef4f98732)" style="fill: none; stroke-dasharray: 0.925,0.4; stroke-dashoffset: 0; stroke: #b0b0b0; stroke-width: 0.25"/>
     </g>
     <g id="line2d_90">
      <g>
       <use xlink:href="#m3a2fafcbdc" x="36.403365" y="144.542498" style="stroke: #000000; stroke-width: 0.8"/>
      </g>
     </g>
     <g id="text_46">
      <!-- 45 -->
      <g transform="translate(16.678365 148.341717) scale(0.1 -0.1)">
       <use xlink:href="#DejaVuSans-34"/>
       <use xlink:href="#DejaVuSans-35" transform="translate(63.623047 0)"/>
      </g>
     </g>
    </g>
    <g id="ytick_7">
     <g id="line2d_91">
      <path d="M 36.403365 56.078587 
L 1352.596879 56.078587 
" clip-path="url(#p6ef4f98732)" style="fill: none; stroke-dasharray: 0.925,0.4; stroke-dashoffset: 0; stroke: #b0b0b0; stroke-width: 0.25"/>
     </g>
     <g id="line2d_92">
      <g>
       <use xlink:href="#m3a2fafcbdc" x="36.403365" y="56.078587" style="stroke: #000000; stroke-width: 0.8"/>
      </g>
     </g>
     <g id="text_47">
      <!-- 50 -->
      <g transform="translate(16.678365 59.877805) scale(0.1 -0.1)">
       <use xlink:href="#DejaVuSans-35"/>
       <use xlink:href="#DejaVuSans-30" transform="translate(63.623047 0)"/>
      </g>
     </g>
    </g>
    <g id="text_48">
     <!-- Time (ms) -->
     <g transform="translate(10.598678 355.51593) rotate(-90) scale(0.1 -0.1)">
      <defs>
       <path id="DejaVuSans-54" d="M -19 4666 
L 3928 4666 
L 3928 4134 
L 2272 4134 
L 2272 0 
L 1638 0 
L 1638 4134 
L -19 4134 
L -19 4666 
z
" transform="scale(0.015625)"/>
       <path id="DejaVuSans-28" d="M 1984 4856 
Q 1566 4138 1362 3434 
Q 1159 2731 1159 2009 
Q 1159 1288 1364 580 
Q 1569 -128 1984 -844 
L 1484 -844 
Q 1016 -109 783 600 
Q 550 1309 550 2009 
Q 550 2706 781 3412 
Q 1013 4119 1484 4856 
L 1984 4856 
z
" transform="scale(0.015625)"/>
       <path id="DejaVuSans-73" d="M 2834 3397 
L 2834 2853 
Q 2591 2978 2328 3040 
Q 2066 3103 1784 3103 
Q 1356 3103 1142 2972 
Q 928 2841 928 2578 
Q 928 2378 1081 2264 
Q 1234 2150 1697 2047 
L 1894 2003 
Q 2506 1872 2764 1633 
Q 3022 1394 3022 966 
Q 3022 478 2636 193 
Q 2250 -91 1575 -91 
Q 1294 -91 989 -36 
Q 684 19 347 128 
L 347 722 
Q 666 556 975 473 
Q 1284 391 1588 391 
Q 1994 391 2212 530 
Q 2431 669 2431 922 
Q 2431 1156 2273 1281 
Q 2116 1406 1581 1522 
L 1381 1569 
Q 847 1681 609 1914 
Q 372 2147 372 2553 
Q 372 3047 722 3315 
Q 1072 3584 1716 3584 
Q 2034 3584 2315 3537 
Q 2597 3491 2834 3397 
z
" transform="scale(0.015625)"/>
       <path id="DejaVuSans-29" d="M 513 4856 
L 1013 4856 
Q 1481 4119 1714 3412 
Q 1947 2706 1947 2009 
Q 1947 1309 1714 600 
Q 1481 -109 1013 -844 
L 513 -844 
Q 928 -128 1133 580 
Q 1338 1288 1338 2009 
Q 1338 2731 1133 3434 
Q 928 4138 513 4856 
z
" transform="scale(0.015625)"/>
      </defs>
      <use xlink:href="#DejaVuSans-54"/>
      <use xlink:href="#DejaVuSans-69" transform="translate(57.958984 0)"/>
      <use xlink:href="#DejaVuSans-6d" transform="translate(85.742188 0)"/>
      <use xlink:href="#DejaVuSans-65" transform="translate(183.154297 0)"/>
      <use xlink:href="#DejaVuSans-20" transform="translate(244.677734 0)"/>
      <use xlink:href="#DejaVuSans-28" transform="translate(276.464844 0)"/>
      <use xlink:href="#DejaVuSans-6d" transform="translate(315.478516 0)"/>
      <use xlink:href="#DejaVuSans-73" transform="translate(412.890625 0)"/>
      <use xlink:href="#DejaVuSans-29" transform="translate(464.990234 0)"/>
     </g>
    </g>
   </g>
   <g id="line2d_93">
    <path d="M 36.403365 409.934232 
L 71.040036 445.319796 
L 105.676708 321.47032 
L 140.313379 586.862054 
L 174.950051 586.862054 
L 209.586722 586.862054 
L 244.223394 569.169272 
L 278.860065 569.169272 
L 313.496736 569.169272 
L 348.133408 586.862054 
L 382.770079 586.862054 
L 417.406751 586.862054 
L 452.043422 604.554836 
L 486.680094 586.862054 
L 521.316765 569.169272 
L 555.953437 569.169272 
L 590.590108 551.476489 
L 625.226779 569.169272 
L 659.863451 569.169272 
L 694.500122 569.169272 
L 729.136794 551.476489 
L 763.773465 533.783707 
L 798.410137 551.476489 
L 833.046808 551.476489 
L 867.683479 551.476489 
L 902.320151 533.783707 
L 936.956822 533.783707 
L 971.593494 533.783707 
L 1006.230165 533.783707 
L 1040.866837 533.783707 
L 1075.503508 533.783707 
L 1110.140179 516.090925 
L 1144.776851 516.090925 
L 1179.413522 533.783707 
L 1214.050194 516.090925 
L 1248.686865 551.476489 
L 1283.323537 551.476489 
L 1317.960208 551.476489 
L 1352.596879 533.783707 
" clip-path="url(#p6ef4f98732)" style="fill: none; stroke: #1f77b4; stroke-width: 1.5; stroke-linecap: square"/>
   </g>
   <g id="line2d_94">
    <path d="M 36.403365 445.319796 
L 71.040036 445.319796 
L 105.676708 321.47032 
L 140.313379 586.862054 
L 174.950051 586.862054 
L 209.586722 586.862054 
L 244.223394 586.862054 
L 278.860065 551.476489 
L 313.496736 569.169272 
L 348.133408 569.169272 
L 382.770079 569.169272 
L 417.406751 586.862054 
L 452.043422 604.554836 
L 486.680094 586.862054 
L 521.316765 569.169272 
L 555.953437 569.169272 
L 590.590108 551.476489 
L 625.226779 569.169272 
L 659.863451 569.169272 
L 694.500122 569.169272 
L 729.136794 551.476489 
L 763.773465 551.476489 
L 798.410137 551.476489 
L 833.046808 569.169272 
L 867.683479 551.476489 
L 902.320151 516.090925 
L 936.956822 533.783707 
L 971.593494 533.783707 
L 1006.230165 551.476489 
L 1040.866837 533.783707 
L 1075.503508 533.783707 
L 1110.140179 516.090925 
L 1144.776851 516.090925 
L 1179.413522 533.783707 
L 1214.050194 516.090925 
L 1248.686865 533.783707 
L 1283.323537 551.476489 
L 1317.960208 551.476489 
L 1352.596879 533.783707 
" clip-path="url(#p6ef4f98732)" style="fill: none; stroke: #ff7f0e; stroke-width: 1.5; stroke-linecap: square"/>
   </g>
   <g id="line2d_95">
    <path d="M 36.403365 197.620845 
L 71.040036 197.620845 
L 105.676708 91.464151 
L 140.313379 339.163103 
L 174.950051 339.163103 
L 209.586722 321.47032 
L 244.223394 321.47032 
L 278.860065 321.47032 
L 313.496736 321.47032 
L 348.133408 321.47032 
L 382.770079 321.47032 
L 417.406751 321.47032 
L 452.043422 356.855885 
L 486.680094 321.47032 
L 521.316765 321.47032 
L 555.953437 321.47032 
L 590.590108 286.084756 
L 625.226779 321.47032 
L 659.863451 303.777538 
L 694.500122 73.771369 
L 729.136794 56.078587 
L 763.773465 56.078587 
L 798.410137 73.771369 
L 833.046808 73.771369 
L 867.683479 56.078587 
L 902.320151 20.693022 
L 936.956822 38.385804 
L 971.593494 56.078587 
L 1006.230165 56.078587 
L 1040.866837 38.385804 
L 1075.503508 38.385804 
L 1110.140179 20.693022 
L 1144.776851 3.00024 
L 1179.413522 56.078587 
L 1214.050194 38.385804 
L 1248.686865 73.771369 
L 1283.323537 109.156933 
L 1317.960208 91.464151 
L 1352.596879 56.078587 
" clip-path="url(#p6ef4f98732)" style="fill: none; stroke: #2ca02c; stroke-width: 1.5; stroke-linecap: square"/>
   </g>
   <g id="line2d_96">
    <path d="M 36.403365 179.928062 
L 71.040036 179.928062 
L 105.676708 56.078587 
L 140.313379 303.777538 
L 174.950051 303.777538 
L 209.586722 303.777538 
L 244.223394 303.777538 
L 278.860065 286.084756 
L 313.496736 286.084756 
L 348.133408 303.777538 
L 382.770079 303.777538 
L 417.406751 303.777538 
L 452.043422 339.163103 
L 486.680094 303.777538 
L 521.316765 286.084756 
L 555.953437 286.084756 
L 590.590108 268.391974 
L 625.226779 286.084756 
L 659.863451 268.391974 
L 694.500122 286.084756 
L 729.136794 268.391974 
L 763.773465 250.699191 
L 798.410137 286.084756 
L 833.046808 268.391974 
L 867.683479 268.391974 
L 902.320151 250.699191 
L 936.956822 250.699191 
L 971.593494 268.391974 
L 1006.230165 268.391974 
L 1040.866837 250.699191 
L 1075.503508 250.699191 
L 1110.140179 233.006409 
L 1144.776851 250.699191 
L 1179.413522 250.699191 
L 1214.050194 233.006409 
L 1248.686865 268.391974 
L 1283.323537 268.391974 
L 1317.960208 268.391974 
L 1352.596879 250.699191 
" clip-path="url(#p6ef4f98732)" style="fill: none; stroke: #d62728; stroke-width: 1.5; stroke-linecap: square"/>
   </g>
   <g id="line2d_97">
    <path d="M 36.403365 463.012578 
L 71.040036 463.012578 
L 105.676708 356.855885 
L 140.313379 622.247618 
L 174.950051 639.940401 
L 209.586722 622.247618 
L 244.223394 622.247618 
L 278.860065 604.554836 
L 313.496736 622.247618 
L 348.133408 622.247618 
L 382.770079 622.247618 
L 417.406751 622.247618 
L 452.043422 639.940401 
L 486.680094 622.247618 
L 521.316765 604.554836 
L 555.953437 622.247618 
L 590.590108 604.554836 
L 625.226779 604.554836 
L 659.863451 604.554836 
L 694.500122 604.554836 
L 729.136794 586.862054 
L 763.773465 586.862054 
L 798.410137 604.554836 
L 833.046808 604.554836 
L 867.683479 586.862054 
L 902.320151 569.169272 
L 936.956822 586.862054 
L 971.593494 586.862054 
L 1006.230165 586.862054 
L 1040.866837 569.169272 
L 1075.503508 569.169272 
L 1110.140179 569.169272 
L 1144.776851 551.476489 
L 1179.413522 569.169272 
L 1214.050194 569.169272 
L 1248.686865 586.862054 
L 1283.323537 586.862054 
L 1317.960208 586.862054 
L 1352.596879 569.169272 
" clip-path="url(#p6ef4f98732)" style="fill: none; stroke: #9467bd; stroke-width: 1.5; stroke-linecap: square"/>
   </g>
   <g id="line2d_98">
    <path d="M 36.403365 480.70536 
L 71.040036 480.70536 
L 105.676708 374.548667 
L 140.313379 639.940401 
L 174.950051 639.940401 
L 209.586722 639.940401 
L 244.223394 639.940401 
L 278.860065 622.247618 
L 313.496736 639.940401 
L 348.133408 639.940401 
L 382.770079 639.940401 
L 417.406751 639.940401 
L 452.043422 657.633183 
L 486.680094 639.940401 
L 521.316765 639.940401 
L 555.953437 622.247618 
L 590.590108 622.247618 
L 625.226779 622.247618 
L 659.863451 604.554836 
L 694.500122 622.247618 
L 729.136794 604.554836 
L 763.773465 604.554836 
L 798.410137 622.247618 
L 833.046808 604.554836 
L 867.683479 604.554836 
L 902.320151 586.862054 
L 936.956822 586.862054 
L 971.593494 604.554836 
L 1006.230165 586.862054 
L 1040.866837 586.862054 
L 1075.503508 586.862054 
L 1110.140179 569.169272 
L 1144.776851 586.862054 
L 1179.413522 586.862054 
L 1214.050194 586.862054 
L 1248.686865 604.554836 
L 1283.323537 604.554836 
L 1317.960208 604.554836 
L 1352.596879 586.862054 
" clip-path="url(#p6ef4f98732)" style="fill: none; stroke: #8c564b; stroke-width: 1.5; stroke-linecap: square"/>
   </g>
   <g id="patch_3">
    <path d="M 36.403365 657.633183 
L 36.403365 3.00024 
" style="fill: none; stroke: #000000; stroke-width: 0.8; stroke-linejoin: miter; stroke-linecap: square"/>
   </g>
   <g id="patch_4">
    <path d="M 1352.596879 657.633183 
L 1352.596879 3.00024 
" style="fill: none; stroke: #000000; stroke-width: 0.8; stroke-linejoin: miter; stroke-linecap: square"/>
   </g>
   <g id="patch_5">
    <path d="M 36.403365 657.633183 
L 1352.596879 657.633183 
" style="fill: none; stroke: #000000; stroke-width: 0.8; stroke-linejoin: miter; stroke-linecap: square"/>
   </g>
   <g id="patch_6">
    <path d="M 36.403365 3.00024 
L 1352.596879 3.00024 
" style="fill: none; stroke: #000000; stroke-width: 0.8; stroke-linejoin: miter; stroke-linecap: square"/>
   </g>
   <g id="legend_1">
    <g id="patch_7">
     <path d="M 1249.959379 375.851086 
L 1345.596879 375.851086 
Q 1347.596879 375.851086 1347.596879 373.851086 
L 1347.596879 286.782336 
Q 1347.596879 284.782336 1345.596879 284.782336 
L 1249.959379 284.782336 
Q 1247.959379 284.782336 1247.959379 286.782336 
L 1247.959379 373.851086 
Q 1247.959379 375.851086 1249.959379 375.851086 
z
" style="fill: #ffffff; opacity: 0.8; stroke: #cccccc; stroke-linejoin: miter"/>
    </g>
    <g id="line2d_99">
     <path d="M 1251.959379 292.880774 
L 1261.959379 292.880774 
L 1271.959379 292.880774 
" style="fill: none; stroke: #1f77b4; stroke-width: 1.5; stroke-linecap: square"/>
    </g>
    <g id="text_49">
     <!-- gis -->
     <g transform="translate(1279.959379 296.380774) scale(0.1 -0.1)">
      <defs>
       <path id="DejaVuSans-67" d="M 2906 1791 
Q 2906 2416 2648 2759 
Q 2391 3103 1925 3103 
Q 1463 3103 1205 2759 
Q 947 2416 947 1791 
Q 947 1169 1205 825 
Q 1463 481 1925 481 
Q 2391 481 2648 825 
Q 2906 1169 2906 1791 
z
M 3481 434 
Q 3481 -459 3084 -895 
Q 2688 -1331 1869 -1331 
Q 1566 -1331 1297 -1286 
Q 1028 -1241 775 -1147 
L 775 -588 
Q 1028 -725 1275 -790 
Q 1522 -856 1778 -856 
Q 2344 -856 2625 -561 
Q 2906 -266 2906 331 
L 2906 616 
Q 2728 306 2450 153 
Q 2172 0 1784 0 
Q 1141 0 747 490 
Q 353 981 353 1791 
Q 353 2603 747 3093 
Q 1141 3584 1784 3584 
Q 2172 3584 2450 3431 
Q 2728 3278 2906 2969 
L 2906 3500 
L 3481 3500 
L 3481 434 
z
" transform="scale(0.015625)"/>
      </defs>
      <use xlink:href="#DejaVuSans-67"/>
      <use xlink:href="#DejaVuSans-69" transform="translate(63.476562 0)"/>
      <use xlink:href="#DejaVuSans-73" transform="translate(91.259766 0)"/>
     </g>
    </g>
    <g id="line2d_100">
     <path d="M 1251.959379 307.558899 
L 1261.959379 307.558899 
L 1271.959379 307.558899 
" style="fill: none; stroke: #ff7f0e; stroke-width: 1.5; stroke-linecap: square"/>
    </g>
    <g id="text_50">
     <!-- gis status -->
     <g transform="translate(1279.959379 311.058899) scale(0.1 -0.1)">
      <defs>
       <path id="DejaVuSans-75" d="M 544 1381 
L 544 3500 
L 1119 3500 
L 1119 1403 
Q 1119 906 1312 657 
Q 1506 409 1894 409 
Q 2359 409 2629 706 
Q 2900 1003 2900 1516 
L 2900 3500 
L 3475 3500 
L 3475 0 
L 2900 0 
L 2900 538 
Q 2691 219 2414 64 
Q 2138 -91 1772 -91 
Q 1169 -91 856 284 
Q 544 659 544 1381 
z
M 1991 3584 
L 1991 3584 
z
" transform="scale(0.015625)"/>
      </defs>
      <use xlink:href="#DejaVuSans-67"/>
      <use xlink:href="#DejaVuSans-69" transform="translate(63.476562 0)"/>
      <use xlink:href="#DejaVuSans-73" transform="translate(91.259766 0)"/>
      <use xlink:href="#DejaVuSans-20" transform="translate(143.359375 0)"/>
      <use xlink:href="#DejaVuSans-73" transform="translate(175.146484 0)"/>
      <use xlink:href="#DejaVuSans-74" transform="translate(227.246094 0)"/>
      <use xlink:href="#DejaVuSans-61" transform="translate(266.455078 0)"/>
      <use xlink:href="#DejaVuSans-74" transform="translate(327.734375 0)"/>
      <use xlink:href="#DejaVuSans-75" transform="translate(366.943359 0)"/>
      <use xlink:href="#DejaVuSans-73" transform="translate(430.322266 0)"/>
     </g>
    </g>
    <g id="line2d_101">
     <path d="M 1251.959379 322.237024 
L 1261.959379 322.237024 
L 1271.959379 322.237024 
" style="fill: none; stroke: #2ca02c; stroke-width: 1.5; stroke-linecap: square"/>
    </g>
    <g id="text_51">
     <!-- gis fetch -->
     <g transform="translate(1279.959379 325.737024) scale(0.1 -0.1)">
      <defs>
       <path id="DejaVuSans-68" d="M 3513 2113 
L 3513 0 
L 2938 0 
L 2938 2094 
Q 2938 2591 2744 2837 
Q 2550 3084 2163 3084 
Q 1697 3084 1428 2787 
Q 1159 2491 1159 1978 
L 1159 0 
L 581 0 
L 581 4863 
L 1159 4863 
L 1159 2956 
Q 1366 3272 1645 3428 
Q 1925 3584 2291 3584 
Q 2894 3584 3203 3211 
Q 3513 2838 3513 2113 
z
" transform="scale(0.015625)"/>
      </defs>
      <use xlink:href="#DejaVuSans-67"/>
      <use xlink:href="#DejaVuSans-69" transform="translate(63.476562 0)"/>
      <use xlink:href="#DejaVuSans-73" transform="translate(91.259766 0)"/>
      <use xlink:href="#DejaVuSans-20" transform="translate(143.359375 0)"/>
      <use xlink:href="#DejaVuSans-66" transform="translate(175.146484 0)"/>
      <use xlink:href="#DejaVuSans-65" transform="translate(210.351562 0)"/>
      <use xlink:href="#DejaVuSans-74" transform="translate(271.875 0)"/>
      <use xlink:href="#DejaVuSans-63" transform="translate(311.083984 0)"/>
      <use xlink:href="#DejaVuSans-68" transform="translate(366.064453 0)"/>
     </g>
    </g>
    <g id="line2d_102">
     <path d="M 1251.959379 336.915149 
L 1261.959379 336.915149 
L 1271.959379 336.915149 
" style="fill: none; stroke: #d62728; stroke-width: 1.5; stroke-linecap: square"/>
    </g>
    <g id="text_52">
     <!-- gis files -->
     <g transform="translate(1279.959379 340.415149) scale(0.1 -0.1)">
      <defs>
       <path id="DejaVuSans-6c" d="M 603 4863 
L 1178 4863 
L 1178 0 
L 603 0 
L 603 4863 
z
" transform="scale(0.015625)"/>
      </defs>
      <use xlink:href="#DejaVuSans-67"/>
      <use xlink:href="#DejaVuSans-69" transform="translate(63.476562 0)"/>
      <use xlink:href="#DejaVuSans-73" transform="translate(91.259766 0)"/>
      <use xlink:href="#DejaVuSans-20" transform="translate(143.359375 0)"/>
      <use xlink:href="#DejaVuSans-66" transform="translate(175.146484 0)"/>
      <use xlink:href="#DejaVuSans-69" transform="translate(210.351562 0)"/>
      <use xlink:href="#DejaVuSans-6c" transform="translate(238.134766 0)"/>
      <use xlink:href="#DejaVuSans-65" transform="translate(265.917969 0)"/>
      <use xlink:href="#DejaVuSans-73" transform="translate(327.441406 0)"/>
     </g>
    </g>
    <g id="line2d_103">
     <path d="M 1251.959379 351.593274 
L 1261.959379 351.593274 
L 1271.959379 351.593274 
" style="fill: none; stroke: #9467bd; stroke-width: 1.5; stroke-linecap: square"/>
    </g>
    <g id="text_53">
     <!-- gis branches -->
     <g transform="translate(1279.959379 355.093274) scale(0.1 -0.1)">
      <defs>
       <path id="DejaVuSans-72" d="M 2631 2963 
Q 2534 3019 2420 3045 
Q 2306 3072 2169 3072 
Q 1681 3072 1420 2755 
Q 1159 2438 1159 1844 
L 1159 0 
L 581 0 
L 581 3500 
L 1159 3500 
L 1159 2956 
Q 1341 3275 1631 3429 
Q 1922 3584 2338 3584 
Q 2397 3584 2469 3576 
Q 2541 3569 2628 3553 
L 2631 2963 
z
" transform="scale(0.015625)"/>
       <path id="DejaVuSans-6e" d="M 3513 2113 
L 3513 0 
L 2938 0 
L 2938 2094 
Q 2938 2591 2744 2837 
Q 2550 3084 2163 3084 
Q 1697 3084 1428 2787 
Q 1159 2491 1159 1978 
L 1159 0 
L 581 0 
L 581 3500 
L 1159 3500 
L 1159 2956 
Q 1366 3272 1645 3428 
Q 1925 3584 2291 3584 
Q 2894 3584 3203 3211 
Q 3513 2838 3513 2113 
z
" transform="scale(0.015625)"/>
      </defs>
      <use xlink:href="#DejaVuSans-67"/>
      <use xlink:href="#DejaVuSans-69" transform="translate(63.476562 0)"/>
      <use xlink:href="#DejaVuSans-73" transform="translate(91.259766 0)"/>
      <use xlink:href="#DejaVuSans-20" transform="translate(143.359375 0)"/>
      <use xlink:href="#DejaVuSans-62" transform="translate(175.146484 0)"/>
      <use xlink:href="#DejaVuSans-72" transform="translate(238.623047 0)"/>
      <use xlink:href="#DejaVuSans-61" transform="translate(279.736328 0)"/>
      <use xlink:href="#DejaVuSans-6e" transform="translate(341.015625 0)"/>
      <use xlink:href="#DejaVuSans-63" transform="translate(404.394531 0)"/>
      <use xlink:href="#DejaVuSans-68" transform="translate(459.375 0)"/>
      <use xlink:href="#DejaVuSans-65" transform="translate(522.753906 0)"/>
      <use xlink:href="#DejaVuSans-73" transform="translate(584.277344 0)"/>
     </g>
    </g>
    <g id="line2d_104">
     <path d="M 1251.959379 366.271399 
L 1261.959379 366.271399 
L 1271.959379 366.271399 
" style="fill: none; stroke: #8c564b; stroke-width: 1.5; stroke-linecap: square"/>
    </g>
    <g id="text_54">
     <!-- gis checkout -->
     <g transform="translate(1279.959379 369.771399) scale(0.1 -0.1)">
      <defs>
       <path id="DejaVuSans-6b" d="M 581 4863 
L 1159 4863 
L 1159 1991 
L 2875 3500 
L 3609 3500 
L 1753 1863 
L 3688 0 
L 2938 0 
L 1159 1709 
L 1159 0 
L 581 0 
L 581 4863 
z
" transform="scale(0.015625)"/>
      </defs>
      <use xlink:href="#DejaVuSans-67"/>
      <use xlink:href="#DejaVuSans-69" transform="translate(63.476562 0)"/>
      <use xlink:href="#DejaVuSans-73" transform="translate(91.259766 0)"/>
      <use xlink:href="#DejaVuSans-20" transform="translate(143.359375 0)"/>
      <use xlink:href="#DejaVuSans-63" transform="translate(175.146484 0)"/>
      <use xlink:href="#DejaVuSans-68" transform="translate(230.126953 0)"/>
      <use xlink:href="#DejaVuSans-65" transform="translate(293.505859 0)"/>
      <use xlink:href="#DejaVuSans-63" transform="translate(355.029297 0)"/>
      <use xlink:href="#DejaVuSans-6b" transform="translate(410.009766 0)"/>
      <use xlink:href="#DejaVuSans-6f" transform="translate(464.294922 0)"/>
      <use xlink:href="#DejaVuSans-75" transform="translate(525.476562 0)"/>
      <use xlink:href="#DejaVuSans-74" transform="translate(588.855469 0)"/>
     </g>
    </g>
   </g>
  </g>
 </g>
 <defs>
  <clipPath id="p6ef4f98732">
   <rect x="36.403365" y="3.00024" width="1316.193514" height="654.632943"/>
  </clipPath>
 </defs>
</svg>
