<?xml version="1.0" encoding="utf-8" standalone="no"?>
<!DOCTYPE svg PUBLIC "-//W3C//DTD SVG 1.1//EN"
  "http://www.w3.org/Graphics/SVG/1.1/DTD/svg11.dtd">
<svg xmlns:xlink="http://www.w3.org/1999/xlink" width="1368pt" height="720pt" viewBox="0 0 1368 720" xmlns="http://www.w3.org/2000/svg" version="1.1">
 <metadata>
  <rdf:RDF xmlns:dc="http://purl.org/dc/elements/1.1/" xmlns:cc="http://creativecommons.org/ns#" xmlns:rdf="http://www.w3.org/1999/02/22-rdf-syntax-ns#">
   <cc:Work>
    <dc:type rdf:resource="http://purl.org/dc/dcmitype/StillImage"/>
    <dc:date>2024-09-14T09:56:46.600871</dc:date>
    <dc:format>image/svg+xml</dc:format>
    <dc:creator>
     <cc:Agent>
      <dc:title>Matplotlib v3.9.2, https://matplotlib.org/</dc:title>
     </cc:Agent>
    </dc:creator>
   </cc:Work>
  </rdf:RDF>
 </metadata>
 <defs>
  <style type="text/css">*{stroke-linejoin: round; stroke-linecap: butt}</style>
 </defs>
 <g id="figure_1">
  <g id="patch_1">
   <path d="M 0 720 
L 1368 720 
L 1368 0 
L 0 0 
z
" style="fill: #ffffff"/>
  </g>
  <g id="axes_1">
   <g id="patch_2">
    <path d="M 42.765865 657.633183 
L 1352.553297 657.633183 
L 1352.553297 3.00024 
L 42.765865 3.00024 
z
" style="fill: #ffffff"/>
   </g>
   <g id="matplotlib.axis_1">
    <g id="xtick_1">
     <g id="line2d_1">
      <path d="M 42.765865 657.633183 
L 42.765865 3.00024 
" clip-path="url(#p1f9ebf4140)" style="fill: none; stroke-dasharray: 0.925,0.4; stroke-dashoffset: 0; stroke: #b0b0b0; stroke-width: 0.25"/>
     </g>
     <g id="line2d_2">
      <defs>
       <path id="ma258649237" d="M 0 0 
L 0 3.5 
" style="stroke: #000000; stroke-width: 0.8"/>
      </defs>
      <g>
       <use xlink:href="#ma258649237" x="42.765865" y="657.633183" style="stroke: #000000; stroke-width: 0.8"/>
      </g>
     </g>
     <g id="text_1">
      <!-- 1a5f17 -->
      <g transform="translate(37.850088 699.654409) rotate(-65) scale(0.1 -0.1)">
       <defs>
        <path id="DejaVuSans-31" d="M 794 531 
L 1825 531 
L 1825 4091 
L 703 3866 
L 703 4441 
L 1819 4666 
L 2450 4666 
L 2450 531 
L 3481 531 
L 3481 0 
L 794 0 
L 794 531 
z
" transform="scale(0.015625)"/>
        <path id="DejaVuSans-61" d="M 2194 1759 
Q 1497 1759 1228 1600 
Q 959 1441 959 1056 
Q 959 750 1161 570 
Q 1363 391 1709 391 
Q 2188 391 2477 730 
Q 2766 1069 2766 1631 
L 2766 1759 
L 2194 1759 
z
M 3341 1997 
L 3341 0 
L 2766 0 
L 2766 531 
Q 2569 213 2275 61 
Q 1981 -91 1556 -91 
Q 1019 -91 701 211 
Q 384 513 384 1019 
Q 384 1609 779 1909 
Q 1175 2209 1959 2209 
L 2766 2209 
L 2766 2266 
Q 2766 2663 2505 2880 
Q 2244 3097 1772 3097 
Q 1472 3097 1187 3025 
Q 903 2953 641 2809 
L 641 3341 
Q 956 3463 1253 3523 
Q 1550 3584 1831 3584 
Q 2591 3584 2966 3190 
Q 3341 2797 3341 1997 
z
" transform="scale(0.015625)"/>
        <path id="DejaVuSans-35" d="M 691 4666 
L 3169 4666 
L 3169 4134 
L 1269 4134 
L 1269 2991 
Q 1406 3038 1543 3061 
Q 1681 3084 1819 3084 
Q 2600 3084 3056 2656 
Q 3513 2228 3513 1497 
Q 3513 744 3044 326 
Q 2575 -91 1722 -91 
Q 1428 -91 1123 -41 
Q 819 9 494 109 
L 494 744 
Q 775 591 1075 516 
Q 1375 441 1709 441 
Q 2250 441 2565 725 
Q 2881 1009 2881 1497 
Q 2881 1984 2565 2268 
Q 2250 2553 1709 2553 
Q 1456 2553 1204 2497 
Q 953 2441 691 2322 
L 691 4666 
z
" transform="scale(0.015625)"/>
        <path id="DejaVuSans-66" d="M 2375 4863 
L 2375 4384 
L 1825 4384 
Q 1516 4384 1395 4259 
Q 1275 4134 1275 3809 
L 1275 3500 
L 2222 3500 
L 2222 3053 
L 1275 3053 
L 1275 0 
L 697 0 
L 697 3053 
L 147 3053 
L 147 3500 
L 697 3500 
L 697 3744 
Q 697 4328 969 4595 
Q 1241 4863 1831 4863 
L 2375 4863 
z
" transform="scale(0.015625)"/>
        <path id="DejaVuSans-37" d="M 525 4666 
L 3525 4666 
L 3525 4397 
L 1831 0 
L 1172 0 
L 2766 4134 
L 525 4134 
L 525 4666 
z
" transform="scale(0.015625)"/>
       </defs>
       <use xlink:href="#DejaVuSans-31"/>
       <use xlink:href="#DejaVuSans-61" x="63.623047"/>
       <use xlink:href="#DejaVuSans-35" x="124.902344"/>
       <use xlink:href="#DejaVuSans-66" x="188.525391"/>
       <use xlink:href="#DejaVuSans-31" x="223.730469"/>
       <use xlink:href="#DejaVuSans-37" x="287.353516"/>
      </g>
     </g>
    </g>
    <g id="xtick_2">
     <g id="line2d_3">
      <path d="M 77.233955 657.633183 
L 77.233955 3.00024 
" clip-path="url(#p1f9ebf4140)" style="fill: none; stroke-dasharray: 0.925,0.4; stroke-dashoffset: 0; stroke: #b0b0b0; stroke-width: 0.25"/>
     </g>
     <g id="line2d_4">
      <g>
       <use xlink:href="#ma258649237" x="77.233955" y="657.633183" style="stroke: #000000; stroke-width: 0.8"/>
      </g>
     </g>
     <g id="text_2">
      <!-- caf3a1 -->
      <g transform="translate(72.550288 698.658886) rotate(-65) scale(0.1 -0.1)">
       <defs>
        <path id="DejaVuSans-63" d="M 3122 3366 
L 3122 2828 
Q 2878 2963 2633 3030 
Q 2388 3097 2138 3097 
Q 1578 3097 1268 2742 
Q 959 2388 959 1747 
Q 959 1106 1268 751 
Q 1578 397 2138 397 
Q 2388 397 2633 464 
Q 2878 531 3122 666 
L 3122 134 
Q 2881 22 2623 -34 
Q 2366 -91 2075 -91 
Q 1284 -91 818 406 
Q 353 903 353 1747 
Q 353 2603 823 3093 
Q 1294 3584 2113 3584 
Q 2378 3584 2631 3529 
Q 2884 3475 3122 3366 
z
" transform="scale(0.015625)"/>
        <path id="DejaVuSans-33" d="M 2597 2516 
Q 3050 2419 3304 2112 
Q 3559 1806 3559 1356 
Q 3559 666 3084 287 
Q 2609 -91 1734 -91 
Q 1441 -91 1130 -33 
Q 819 25 488 141 
L 488 750 
Q 750 597 1062 519 
Q 1375 441 1716 441 
Q 2309 441 2620 675 
Q 2931 909 2931 1356 
Q 2931 1769 2642 2001 
Q 2353 2234 1838 2234 
L 1294 2234 
L 1294 2753 
L 1863 2753 
Q 2328 2753 2575 2939 
Q 2822 3125 2822 3475 
Q 2822 3834 2567 4026 
Q 2313 4219 1838 4219 
Q 1578 4219 1281 4162 
Q 984 4106 628 3988 
L 628 4550 
Q 988 4650 1302 4700 
Q 1616 4750 1894 4750 
Q 2613 4750 3031 4423 
Q 3450 4097 3450 3541 
Q 3450 3153 3228 2886 
Q 3006 2619 2597 2516 
z
" transform="scale(0.015625)"/>
       </defs>
       <use xlink:href="#DejaVuSans-63"/>
       <use xlink:href="#DejaVuSans-61" x="54.980469"/>
       <use xlink:href="#DejaVuSans-66" x="116.259766"/>
       <use xlink:href="#DejaVuSans-33" x="151.464844"/>
       <use xlink:href="#DejaVuSans-61" x="215.087891"/>
       <use xlink:href="#DejaVuSans-31" x="276.367188"/>
      </g>
     </g>
    </g>
    <g id="xtick_3">
     <g id="line2d_5">
      <path d="M 111.702046 657.633183 
L 111.702046 3.00024 
" clip-path="url(#p1f9ebf4140)" style="fill: none; stroke-dasharray: 0.925,0.4; stroke-dashoffset: 0; stroke: #b0b0b0; stroke-width: 0.25"/>
     </g>
     <g id="line2d_6">
      <g>
       <use xlink:href="#ma258649237" x="111.702046" y="657.633183" style="stroke: #000000; stroke-width: 0.8"/>
      </g>
     </g>
     <g id="text_3">
      <!-- 50c495 -->
      <g transform="translate(106.318747 701.659615) rotate(-65) scale(0.1 -0.1)">
       <defs>
        <path id="DejaVuSans-30" d="M 2034 4250 
Q 1547 4250 1301 3770 
Q 1056 3291 1056 2328 
Q 1056 1369 1301 889 
Q 1547 409 2034 409 
Q 2525 409 2770 889 
Q 3016 1369 3016 2328 
Q 3016 3291 2770 3770 
Q 2525 4250 2034 4250 
z
M 2034 4750 
Q 2819 4750 3233 4129 
Q 3647 3509 3647 2328 
Q 3647 1150 3233 529 
Q 2819 -91 2034 -91 
Q 1250 -91 836 529 
Q 422 1150 422 2328 
Q 422 3509 836 4129 
Q 1250 4750 2034 4750 
z
" transform="scale(0.015625)"/>
        <path id="DejaVuSans-34" d="M 2419 4116 
L 825 1625 
L 2419 1625 
L 2419 4116 
z
M 2253 4666 
L 3047 4666 
L 3047 1625 
L 3713 1625 
L 3713 1100 
L 3047 1100 
L 3047 0 
L 2419 0 
L 2419 1100 
L 313 1100 
L 313 1709 
L 2253 4666 
z
" transform="scale(0.015625)"/>
        <path id="DejaVuSans-39" d="M 703 97 
L 703 672 
Q 941 559 1184 500 
Q 1428 441 1663 441 
Q 2288 441 2617 861 
Q 2947 1281 2994 2138 
Q 2813 1869 2534 1725 
Q 2256 1581 1919 1581 
Q 1219 1581 811 2004 
Q 403 2428 403 3163 
Q 403 3881 828 4315 
Q 1253 4750 1959 4750 
Q 2769 4750 3195 4129 
Q 3622 3509 3622 2328 
Q 3622 1225 3098 567 
Q 2575 -91 1691 -91 
Q 1453 -91 1209 -44 
Q 966 3 703 97 
z
M 1959 2075 
Q 2384 2075 2632 2365 
Q 2881 2656 2881 3163 
Q 2881 3666 2632 3958 
Q 2384 4250 1959 4250 
Q 1534 4250 1286 3958 
Q 1038 3666 1038 3163 
Q 1038 2656 1286 2365 
Q 1534 2075 1959 2075 
z
" transform="scale(0.015625)"/>
       </defs>
       <use xlink:href="#DejaVuSans-35"/>
       <use xlink:href="#DejaVuSans-30" x="63.623047"/>
       <use xlink:href="#DejaVuSans-63" x="127.246094"/>
       <use xlink:href="#DejaVuSans-34" x="182.226562"/>
       <use xlink:href="#DejaVuSans-39" x="245.849609"/>
       <use xlink:href="#DejaVuSans-35" x="309.472656"/>
      </g>
     </g>
    </g>
    <g id="xtick_4">
     <g id="line2d_7">
      <path d="M 146.170136 657.633183 
L 146.170136 3.00024 
" clip-path="url(#p1f9ebf4140)" style="fill: none; stroke-dasharray: 0.925,0.4; stroke-dashoffset: 0; stroke: #b0b0b0; stroke-width: 0.25"/>
     </g>
     <g id="line2d_8">
      <g>
       <use xlink:href="#ma258649237" x="146.170136" y="657.633183" style="stroke: #000000; stroke-width: 0.8"/>
      </g>
     </g>
     <g id="text_4">
      <!-- 6e3450 -->
      <g transform="translate(140.648496 702.252963) rotate(-65) scale(0.1 -0.1)">
       <defs>
        <path id="DejaVuSans-36" d="M 2113 2584 
Q 1688 2584 1439 2293 
Q 1191 2003 1191 1497 
Q 1191 994 1439 701 
Q 1688 409 2113 409 
Q 2538 409 2786 701 
Q 3034 994 3034 1497 
Q 3034 2003 2786 2293 
Q 2538 2584 2113 2584 
z
M 3366 4563 
L 3366 3988 
Q 3128 4100 2886 4159 
Q 2644 4219 2406 4219 
Q 1781 4219 1451 3797 
Q 1122 3375 1075 2522 
Q 1259 2794 1537 2939 
Q 1816 3084 2150 3084 
Q 2853 3084 3261 2657 
Q 3669 2231 3669 1497 
Q 3669 778 3244 343 
Q 2819 -91 2113 -91 
Q 1303 -91 875 529 
Q 447 1150 447 2328 
Q 447 3434 972 4092 
Q 1497 4750 2381 4750 
Q 2619 4750 2861 4703 
Q 3103 4656 3366 4563 
z
" transform="scale(0.015625)"/>
        <path id="DejaVuSans-65" d="M 3597 1894 
L 3597 1613 
L 953 1613 
Q 991 1019 1311 708 
Q 1631 397 2203 397 
Q 2534 397 2845 478 
Q 3156 559 3463 722 
L 3463 178 
Q 3153 47 2828 -22 
Q 2503 -91 2169 -91 
Q 1331 -91 842 396 
Q 353 884 353 1716 
Q 353 2575 817 3079 
Q 1281 3584 2069 3584 
Q 2775 3584 3186 3129 
Q 3597 2675 3597 1894 
z
M 3022 2063 
Q 3016 2534 2758 2815 
Q 2500 3097 2075 3097 
Q 1594 3097 1305 2825 
Q 1016 2553 972 2059 
L 3022 2063 
z
" transform="scale(0.015625)"/>
       </defs>
       <use xlink:href="#DejaVuSans-36"/>
       <use xlink:href="#DejaVuSans-65" x="63.623047"/>
       <use xlink:href="#DejaVuSans-33" x="125.146484"/>
       <use xlink:href="#DejaVuSans-34" x="188.769531"/>
       <use xlink:href="#DejaVuSans-35" x="252.392578"/>
       <use xlink:href="#DejaVuSans-30" x="316.015625"/>
      </g>
     </g>
    </g>
    <g id="xtick_5">
     <g id="line2d_9">
      <path d="M 180.638226 657.633183 
L 180.638226 3.00024 
" clip-path="url(#p1f9ebf4140)" style="fill: none; stroke-dasharray: 0.925,0.4; stroke-dashoffset: 0; stroke: #b0b0b0; stroke-width: 0.25"/>
     </g>
     <g id="line2d_10">
      <g>
       <use xlink:href="#ma258649237" x="180.638226" y="657.633183" style="stroke: #000000; stroke-width: 0.8"/>
      </g>
     </g>
     <g id="text_5">
      <!-- 9caff3 -->
      <g transform="translate(176.505613 696.295405) rotate(-65) scale(0.1 -0.1)">
       <use xlink:href="#DejaVuSans-39"/>
       <use xlink:href="#DejaVuSans-63" x="63.623047"/>
       <use xlink:href="#DejaVuSans-61" x="118.603516"/>
       <use xlink:href="#DejaVuSans-66" x="179.882812"/>
       <use xlink:href="#DejaVuSans-66" x="215.087891"/>
       <use xlink:href="#DejaVuSans-33" x="250.292969"/>
      </g>
     </g>
    </g>
    <g id="xtick_6">
     <g id="line2d_11">
      <path d="M 215.106317 657.633183 
L 215.106317 3.00024 
" clip-path="url(#p1f9ebf4140)" style="fill: none; stroke-dasharray: 0.925,0.4; stroke-dashoffset: 0; stroke: #b0b0b0; stroke-width: 0.25"/>
     </g>
     <g id="line2d_12">
      <g>
       <use xlink:href="#ma258649237" x="215.106317" y="657.633183" style="stroke: #000000; stroke-width: 0.8"/>
      </g>
     </g>
     <g id="text_6">
      <!-- 91d7f1 -->
      <g transform="translate(210.143985 699.854079) rotate(-65) scale(0.1 -0.1)">
       <defs>
        <path id="DejaVuSans-64" d="M 2906 2969 
L 2906 4863 
L 3481 4863 
L 3481 0 
L 2906 0 
L 2906 525 
Q 2725 213 2448 61 
Q 2172 -91 1784 -91 
Q 1150 -91 751 415 
Q 353 922 353 1747 
Q 353 2572 751 3078 
Q 1150 3584 1784 3584 
Q 2172 3584 2448 3432 
Q 2725 3281 2906 2969 
z
M 947 1747 
Q 947 1113 1208 752 
Q 1469 391 1925 391 
Q 2381 391 2643 752 
Q 2906 1113 2906 1747 
Q 2906 2381 2643 2742 
Q 2381 3103 1925 3103 
Q 1469 3103 1208 2742 
Q 947 2381 947 1747 
z
" transform="scale(0.015625)"/>
       </defs>
       <use xlink:href="#DejaVuSans-39"/>
       <use xlink:href="#DejaVuSans-31" x="63.623047"/>
       <use xlink:href="#DejaVuSans-64" x="127.246094"/>
       <use xlink:href="#DejaVuSans-37" x="190.722656"/>
       <use xlink:href="#DejaVuSans-66" x="254.345703"/>
       <use xlink:href="#DejaVuSans-31" x="289.550781"/>
      </g>
     </g>
    </g>
    <g id="xtick_7">
     <g id="line2d_13">
      <path d="M 249.574407 657.633183 
L 249.574407 3.00024 
" clip-path="url(#p1f9ebf4140)" style="fill: none; stroke-dasharray: 0.925,0.4; stroke-dashoffset: 0; stroke: #b0b0b0; stroke-width: 0.25"/>
     </g>
     <g id="line2d_14">
      <g>
       <use xlink:href="#ma258649237" x="249.574407" y="657.633183" style="stroke: #000000; stroke-width: 0.8"/>
      </g>
     </g>
     <g id="text_7">
      <!-- d4393c -->
      <g transform="translate(244.19408 701.64687) rotate(-65) scale(0.1 -0.1)">
       <use xlink:href="#DejaVuSans-64"/>
       <use xlink:href="#DejaVuSans-34" x="63.476562"/>
       <use xlink:href="#DejaVuSans-33" x="127.099609"/>
       <use xlink:href="#DejaVuSans-39" x="190.722656"/>
       <use xlink:href="#DejaVuSans-33" x="254.345703"/>
       <use xlink:href="#DejaVuSans-63" x="317.96875"/>
      </g>
     </g>
    </g>
    <g id="xtick_8">
     <g id="line2d_15">
      <path d="M 284.042497 657.633183 
L 284.042497 3.00024 
" clip-path="url(#p1f9ebf4140)" style="fill: none; stroke-dasharray: 0.925,0.4; stroke-dashoffset: 0; stroke: #b0b0b0; stroke-width: 0.25"/>
     </g>
     <g id="line2d_16">
      <g>
       <use xlink:href="#ma258649237" x="284.042497" y="657.633183" style="stroke: #000000; stroke-width: 0.8"/>
      </g>
     </g>
     <g id="text_8">
      <!-- eb78e7 -->
      <g transform="translate(278.568071 702.05046) rotate(-65) scale(0.1 -0.1)">
       <defs>
        <path id="DejaVuSans-62" d="M 3116 1747 
Q 3116 2381 2855 2742 
Q 2594 3103 2138 3103 
Q 1681 3103 1420 2742 
Q 1159 2381 1159 1747 
Q 1159 1113 1420 752 
Q 1681 391 2138 391 
Q 2594 391 2855 752 
Q 3116 1113 3116 1747 
z
M 1159 2969 
Q 1341 3281 1617 3432 
Q 1894 3584 2278 3584 
Q 2916 3584 3314 3078 
Q 3713 2572 3713 1747 
Q 3713 922 3314 415 
Q 2916 -91 2278 -91 
Q 1894 -91 1617 61 
Q 1341 213 1159 525 
L 1159 0 
L 581 0 
L 581 4863 
L 1159 4863 
L 1159 2969 
z
" transform="scale(0.015625)"/>
        <path id="DejaVuSans-38" d="M 2034 2216 
Q 1584 2216 1326 1975 
Q 1069 1734 1069 1313 
Q 1069 891 1326 650 
Q 1584 409 2034 409 
Q 2484 409 2743 651 
Q 3003 894 3003 1313 
Q 3003 1734 2745 1975 
Q 2488 2216 2034 2216 
z
M 1403 2484 
Q 997 2584 770 2862 
Q 544 3141 544 3541 
Q 544 4100 942 4425 
Q 1341 4750 2034 4750 
Q 2731 4750 3128 4425 
Q 3525 4100 3525 3541 
Q 3525 3141 3298 2862 
Q 3072 2584 2669 2484 
Q 3125 2378 3379 2068 
Q 3634 1759 3634 1313 
Q 3634 634 3220 271 
Q 2806 -91 2034 -91 
Q 1263 -91 848 271 
Q 434 634 434 1313 
Q 434 1759 690 2068 
Q 947 2378 1403 2484 
z
M 1172 3481 
Q 1172 3119 1398 2916 
Q 1625 2713 2034 2713 
Q 2441 2713 2670 2916 
Q 2900 3119 2900 3481 
Q 2900 3844 2670 4047 
Q 2441 4250 2034 4250 
Q 1625 4250 1398 4047 
Q 1172 3844 1172 3481 
z
" transform="scale(0.015625)"/>
       </defs>
       <use xlink:href="#DejaVuSans-65"/>
       <use xlink:href="#DejaVuSans-62" x="61.523438"/>
       <use xlink:href="#DejaVuSans-37" x="125"/>
       <use xlink:href="#DejaVuSans-38" x="188.623047"/>
       <use xlink:href="#DejaVuSans-65" x="252.246094"/>
       <use xlink:href="#DejaVuSans-37" x="313.769531"/>
      </g>
     </g>
    </g>
    <g id="xtick_9">
     <g id="line2d_17">
      <path d="M 318.510588 657.633183 
L 318.510588 3.00024 
" clip-path="url(#p1f9ebf4140)" style="fill: none; stroke-dasharray: 0.925,0.4; stroke-dashoffset: 0; stroke: #b0b0b0; stroke-width: 0.25"/>
     </g>
     <g id="line2d_18">
      <g>
       <use xlink:href="#ma258649237" x="318.510588" y="657.633183" style="stroke: #000000; stroke-width: 0.8"/>
      </g>
     </g>
     <g id="text_9">
      <!-- dcf161 -->
      <g transform="translate(313.730841 699.070973) rotate(-65) scale(0.1 -0.1)">
       <use xlink:href="#DejaVuSans-64"/>
       <use xlink:href="#DejaVuSans-63" x="63.476562"/>
       <use xlink:href="#DejaVuSans-66" x="118.457031"/>
       <use xlink:href="#DejaVuSans-31" x="153.662109"/>
       <use xlink:href="#DejaVuSans-36" x="217.285156"/>
       <use xlink:href="#DejaVuSans-31" x="280.908203"/>
      </g>
     </g>
    </g>
    <g id="xtick_10">
     <g id="line2d_19">
      <path d="M 352.978678 657.633183 
L 352.978678 3.00024 
" clip-path="url(#p1f9ebf4140)" style="fill: none; stroke-dasharray: 0.925,0.4; stroke-dashoffset: 0; stroke: #b0b0b0; stroke-width: 0.25"/>
     </g>
     <g id="line2d_20">
      <g>
       <use xlink:href="#ma258649237" x="352.978678" y="657.633183" style="stroke: #000000; stroke-width: 0.8"/>
      </g>
     </g>
     <g id="text_10">
      <!-- baaa3d -->
      <g transform="translate(347.567315 701.779984) rotate(-65) scale(0.1 -0.1)">
       <use xlink:href="#DejaVuSans-62"/>
       <use xlink:href="#DejaVuSans-61" x="63.476562"/>
       <use xlink:href="#DejaVuSans-61" x="124.755859"/>
       <use xlink:href="#DejaVuSans-61" x="186.035156"/>
       <use xlink:href="#DejaVuSans-33" x="247.314453"/>
       <use xlink:href="#DejaVuSans-64" x="310.9375"/>
      </g>
     </g>
    </g>
    <g id="xtick_11">
     <g id="line2d_21">
      <path d="M 387.446768 657.633183 
L 387.446768 3.00024 
" clip-path="url(#p1f9ebf4140)" style="fill: none; stroke-dasharray: 0.925,0.4; stroke-dashoffset: 0; stroke: #b0b0b0; stroke-width: 0.25"/>
     </g>
     <g id="line2d_22">
      <g>
       <use xlink:href="#ma258649237" x="387.446768" y="657.633183" style="stroke: #000000; stroke-width: 0.8"/>
      </g>
     </g>
     <g id="text_11">
      <!-- c598fd -->
      <g transform="translate(382.667021 699.070973) rotate(-65) scale(0.1 -0.1)">
       <use xlink:href="#DejaVuSans-63"/>
       <use xlink:href="#DejaVuSans-35" x="54.980469"/>
       <use xlink:href="#DejaVuSans-39" x="118.603516"/>
       <use xlink:href="#DejaVuSans-38" x="182.226562"/>
       <use xlink:href="#DejaVuSans-66" x="245.849609"/>
       <use xlink:href="#DejaVuSans-64" x="281.054688"/>
      </g>
     </g>
    </g>
    <g id="xtick_12">
     <g id="line2d_23">
      <path d="M 421.914858 657.633183 
L 421.914858 3.00024 
" clip-path="url(#p1f9ebf4140)" style="fill: none; stroke-dasharray: 0.925,0.4; stroke-dashoffset: 0; stroke: #b0b0b0; stroke-width: 0.25"/>
     </g>
     <g id="line2d_24">
      <g>
       <use xlink:href="#ma258649237" x="421.914858" y="657.633183" style="stroke: #000000; stroke-width: 0.8"/>
      </g>
     </g>
     <g id="text_12">
      <!-- faf315 -->
      <g transform="translate(417.599661 697.078512) rotate(-65) scale(0.1 -0.1)">
       <use xlink:href="#DejaVuSans-66"/>
       <use xlink:href="#DejaVuSans-61" x="35.205078"/>
       <use xlink:href="#DejaVuSans-66" x="96.484375"/>
       <use xlink:href="#DejaVuSans-33" x="131.689453"/>
       <use xlink:href="#DejaVuSans-31" x="195.3125"/>
       <use xlink:href="#DejaVuSans-35" x="258.935547"/>
      </g>
     </g>
    </g>
    <g id="xtick_13">
     <g id="line2d_25">
      <path d="M 456.382949 657.633183 
L 456.382949 3.00024 
" clip-path="url(#p1f9ebf4140)" style="fill: none; stroke-dasharray: 0.925,0.4; stroke-dashoffset: 0; stroke: #b0b0b0; stroke-width: 0.25"/>
     </g>
     <g id="line2d_26">
      <g>
       <use xlink:href="#ma258649237" x="456.382949" y="657.633183" style="stroke: #000000; stroke-width: 0.8"/>
      </g>
     </g>
     <g id="text_13">
      <!-- 109062 -->
      <g transform="translate(450.817066 702.442721) rotate(-65) scale(0.1 -0.1)">
       <defs>
        <path id="DejaVuSans-32" d="M 1228 531 
L 3431 531 
L 3431 0 
L 469 0 
L 469 531 
Q 828 903 1448 1529 
Q 2069 2156 2228 2338 
Q 2531 2678 2651 2914 
Q 2772 3150 2772 3378 
Q 2772 3750 2511 3984 
Q 2250 4219 1831 4219 
Q 1534 4219 1204 4116 
Q 875 4013 500 3803 
L 500 4441 
Q 881 4594 1212 4672 
Q 1544 4750 1819 4750 
Q 2544 4750 2975 4387 
Q 3406 4025 3406 3419 
Q 3406 3131 3298 2873 
Q 3191 2616 2906 2266 
Q 2828 2175 2409 1742 
Q 1991 1309 1228 531 
z
" transform="scale(0.015625)"/>
       </defs>
       <use xlink:href="#DejaVuSans-31"/>
       <use xlink:href="#DejaVuSans-30" x="63.623047"/>
       <use xlink:href="#DejaVuSans-39" x="127.246094"/>
       <use xlink:href="#DejaVuSans-30" x="190.869141"/>
       <use xlink:href="#DejaVuSans-36" x="254.492188"/>
       <use xlink:href="#DejaVuSans-32" x="318.115234"/>
      </g>
     </g>
    </g>
    <g id="xtick_14">
     <g id="line2d_27">
      <path d="M 490.851039 657.633183 
L 490.851039 3.00024 
" clip-path="url(#p1f9ebf4140)" style="fill: none; stroke-dasharray: 0.925,0.4; stroke-dashoffset: 0; stroke: #b0b0b0; stroke-width: 0.25"/>
     </g>
     <g id="line2d_28">
      <g>
       <use xlink:href="#ma258649237" x="490.851039" y="657.633183" style="stroke: #000000; stroke-width: 0.8"/>
      </g>
     </g>
     <g id="text_14">
      <!-- c69e17 -->
      <g transform="translate(485.511983 701.469856) rotate(-65) scale(0.1 -0.1)">
       <use xlink:href="#DejaVuSans-63"/>
       <use xlink:href="#DejaVuSans-36" x="54.980469"/>
       <use xlink:href="#DejaVuSans-39" x="118.603516"/>
       <use xlink:href="#DejaVuSans-65" x="182.226562"/>
       <use xlink:href="#DejaVuSans-31" x="243.75"/>
       <use xlink:href="#DejaVuSans-37" x="307.373047"/>
      </g>
     </g>
    </g>
    <g id="xtick_15">
     <g id="line2d_29">
      <path d="M 525.319129 657.633183 
L 525.319129 3.00024 
" clip-path="url(#p1f9ebf4140)" style="fill: none; stroke-dasharray: 0.925,0.4; stroke-dashoffset: 0; stroke: #b0b0b0; stroke-width: 0.25"/>
     </g>
     <g id="line2d_30">
      <g>
       <use xlink:href="#ma258649237" x="525.319129" y="657.633183" style="stroke: #000000; stroke-width: 0.8"/>
      </g>
     </g>
     <g id="text_15">
      <!-- 152b7a -->
      <g transform="translate(519.805744 702.21756) rotate(-65) scale(0.1 -0.1)">
       <use xlink:href="#DejaVuSans-31"/>
       <use xlink:href="#DejaVuSans-35" x="63.623047"/>
       <use xlink:href="#DejaVuSans-32" x="127.246094"/>
       <use xlink:href="#DejaVuSans-62" x="190.869141"/>
       <use xlink:href="#DejaVuSans-37" x="254.345703"/>
       <use xlink:href="#DejaVuSans-61" x="317.96875"/>
      </g>
     </g>
    </g>
    <g id="xtick_16">
     <g id="line2d_31">
      <path d="M 559.78722 657.633183 
L 559.78722 3.00024 
" clip-path="url(#p1f9ebf4140)" style="fill: none; stroke-dasharray: 0.925,0.4; stroke-dashoffset: 0; stroke: #b0b0b0; stroke-width: 0.25"/>
     </g>
     <g id="line2d_32">
      <g>
       <use xlink:href="#ma258649237" x="559.78722" y="657.633183" style="stroke: #000000; stroke-width: 0.8"/>
      </g>
     </g>
     <g id="text_16">
      <!-- cb6277 -->
      <g transform="translate(554.406893 701.64687) rotate(-65) scale(0.1 -0.1)">
       <use xlink:href="#DejaVuSans-63"/>
       <use xlink:href="#DejaVuSans-62" x="54.980469"/>
       <use xlink:href="#DejaVuSans-36" x="118.457031"/>
       <use xlink:href="#DejaVuSans-32" x="182.080078"/>
       <use xlink:href="#DejaVuSans-37" x="245.703125"/>
       <use xlink:href="#DejaVuSans-37" x="309.326172"/>
      </g>
     </g>
    </g>
    <g id="xtick_17">
     <g id="line2d_33">
      <path d="M 594.25531 657.633183 
L 594.25531 3.00024 
" clip-path="url(#p1f9ebf4140)" style="fill: none; stroke-dasharray: 0.925,0.4; stroke-dashoffset: 0; stroke: #b0b0b0; stroke-width: 0.25"/>
     </g>
     <g id="line2d_34">
      <g>
       <use xlink:href="#ma258649237" x="594.25531" y="657.633183" style="stroke: #000000; stroke-width: 0.8"/>
      </g>
     </g>
     <g id="text_17">
      <!-- b11fb2 -->
      <g transform="translate(589.29595 699.841335) rotate(-65) scale(0.1 -0.1)">
       <use xlink:href="#DejaVuSans-62"/>
       <use xlink:href="#DejaVuSans-31" x="63.476562"/>
       <use xlink:href="#DejaVuSans-31" x="127.099609"/>
       <use xlink:href="#DejaVuSans-66" x="190.722656"/>
       <use xlink:href="#DejaVuSans-62" x="225.927734"/>
       <use xlink:href="#DejaVuSans-32" x="289.404297"/>
      </g>
     </g>
    </g>
    <g id="xtick_18">
     <g id="line2d_35">
      <path d="M 628.7234 657.633183 
L 628.7234 3.00024 
" clip-path="url(#p1f9ebf4140)" style="fill: none; stroke-dasharray: 0.925,0.4; stroke-dashoffset: 0; stroke: #b0b0b0; stroke-width: 0.25"/>
     </g>
     <g id="line2d_36">
      <g>
       <use xlink:href="#ma258649237" x="628.7234" y="657.633183" style="stroke: #000000; stroke-width: 0.8"/>
      </g>
     </g>
     <g id="text_18">
      <!-- 34e33a -->
      <g transform="translate(623.251286 702.040547) rotate(-65) scale(0.1 -0.1)">
       <use xlink:href="#DejaVuSans-33"/>
       <use xlink:href="#DejaVuSans-34" x="63.623047"/>
       <use xlink:href="#DejaVuSans-65" x="127.246094"/>
       <use xlink:href="#DejaVuSans-33" x="188.769531"/>
       <use xlink:href="#DejaVuSans-33" x="252.392578"/>
       <use xlink:href="#DejaVuSans-61" x="316.015625"/>
      </g>
     </g>
    </g>
    <g id="xtick_19">
     <g id="line2d_37">
      <path d="M 663.191491 657.633183 
L 663.191491 3.00024 
" clip-path="url(#p1f9ebf4140)" style="fill: none; stroke-dasharray: 0.925,0.4; stroke-dashoffset: 0; stroke: #b0b0b0; stroke-width: 0.25"/>
     </g>
     <g id="line2d_38">
      <g>
       <use xlink:href="#ma258649237" x="663.191491" y="657.633183" style="stroke: #000000; stroke-width: 0.8"/>
      </g>
     </g>
     <g id="text_19">
      <!-- a51298 -->
      <g transform="translate(657.675133 702.230305) rotate(-65) scale(0.1 -0.1)">
       <use xlink:href="#DejaVuSans-61"/>
       <use xlink:href="#DejaVuSans-35" x="61.279297"/>
       <use xlink:href="#DejaVuSans-31" x="124.902344"/>
       <use xlink:href="#DejaVuSans-32" x="188.525391"/>
       <use xlink:href="#DejaVuSans-39" x="252.148438"/>
       <use xlink:href="#DejaVuSans-38" x="315.771484"/>
      </g>
     </g>
    </g>
    <g id="xtick_20">
     <g id="line2d_39">
      <path d="M 697.659581 657.633183 
L 697.659581 3.00024 
" clip-path="url(#p1f9ebf4140)" style="fill: none; stroke-dasharray: 0.925,0.4; stroke-dashoffset: 0; stroke: #b0b0b0; stroke-width: 0.25"/>
     </g>
     <g id="line2d_40">
      <g>
       <use xlink:href="#ma258649237" x="697.659581" y="657.633183" style="stroke: #000000; stroke-width: 0.8"/>
      </g>
     </g>
     <g id="text_20">
      <!-- 114bbf -->
      <g transform="translate(692.700221 699.841335) rotate(-65) scale(0.1 -0.1)">
       <use xlink:href="#DejaVuSans-31"/>
       <use xlink:href="#DejaVuSans-31" x="63.623047"/>
       <use xlink:href="#DejaVuSans-34" x="127.246094"/>
       <use xlink:href="#DejaVuSans-62" x="190.869141"/>
       <use xlink:href="#DejaVuSans-62" x="254.345703"/>
       <use xlink:href="#DejaVuSans-66" x="317.822266"/>
      </g>
     </g>
    </g>
    <g id="xtick_21">
     <g id="line2d_41">
      <path d="M 732.127671 657.633183 
L 732.127671 3.00024 
" clip-path="url(#p1f9ebf4140)" style="fill: none; stroke-dasharray: 0.925,0.4; stroke-dashoffset: 0; stroke: #b0b0b0; stroke-width: 0.25"/>
     </g>
     <g id="line2d_42">
      <g>
       <use xlink:href="#ma258649237" x="732.127671" y="657.633183" style="stroke: #000000; stroke-width: 0.8"/>
      </g>
     </g>
     <g id="text_21">
      <!-- 128fee -->
      <g transform="translate(727.250854 699.487308) rotate(-65) scale(0.1 -0.1)">
       <use xlink:href="#DejaVuSans-31"/>
       <use xlink:href="#DejaVuSans-32" x="63.623047"/>
       <use xlink:href="#DejaVuSans-38" x="127.246094"/>
       <use xlink:href="#DejaVuSans-66" x="190.869141"/>
       <use xlink:href="#DejaVuSans-65" x="226.074219"/>
       <use xlink:href="#DejaVuSans-65" x="287.597656"/>
      </g>
     </g>
    </g>
    <g id="xtick_22">
     <g id="line2d_43">
      <path d="M 766.595762 657.633183 
L 766.595762 3.00024 
" clip-path="url(#p1f9ebf4140)" style="fill: none; stroke-dasharray: 0.925,0.4; stroke-dashoffset: 0; stroke: #b0b0b0; stroke-width: 0.25"/>
     </g>
     <g id="line2d_44">
      <g>
       <use xlink:href="#ma258649237" x="766.595762" y="657.633183" style="stroke: #000000; stroke-width: 0.8"/>
      </g>
     </g>
     <g id="text_22">
      <!-- 0aa49f -->
      <g transform="translate(761.72951 699.441993) rotate(-65) scale(0.1 -0.1)">
       <use xlink:href="#DejaVuSans-30"/>
       <use xlink:href="#DejaVuSans-61" x="63.623047"/>
       <use xlink:href="#DejaVuSans-61" x="124.902344"/>
       <use xlink:href="#DejaVuSans-34" x="186.181641"/>
       <use xlink:href="#DejaVuSans-39" x="249.804688"/>
       <use xlink:href="#DejaVuSans-66" x="313.427734"/>
      </g>
     </g>
    </g>
    <g id="xtick_23">
     <g id="line2d_45">
      <path d="M 801.063852 657.633183 
L 801.063852 3.00024 
" clip-path="url(#p1f9ebf4140)" style="fill: none; stroke-dasharray: 0.925,0.4; stroke-dashoffset: 0; stroke: #b0b0b0; stroke-width: 0.25"/>
     </g>
     <g id="line2d_46">
      <g>
       <use xlink:href="#ma258649237" x="801.063852" y="657.633183" style="stroke: #000000; stroke-width: 0.8"/>
      </g>
     </g>
     <g id="text_23">
      <!-- 2730d4 -->
      <g transform="translate(795.50094 702.429976) rotate(-65) scale(0.1 -0.1)">
       <use xlink:href="#DejaVuSans-32"/>
       <use xlink:href="#DejaVuSans-37" x="63.623047"/>
       <use xlink:href="#DejaVuSans-33" x="127.246094"/>
       <use xlink:href="#DejaVuSans-30" x="190.869141"/>
       <use xlink:href="#DejaVuSans-64" x="254.492188"/>
       <use xlink:href="#DejaVuSans-34" x="317.96875"/>
      </g>
     </g>
    </g>
    <g id="xtick_24">
     <g id="line2d_47">
      <path d="M 835.531942 657.633183 
L 835.531942 3.00024 
" clip-path="url(#p1f9ebf4140)" style="fill: none; stroke-dasharray: 0.925,0.4; stroke-dashoffset: 0; stroke: #b0b0b0; stroke-width: 0.25"/>
     </g>
     <g id="line2d_48">
      <g>
       <use xlink:href="#ma258649237" x="835.531942" y="657.633183" style="stroke: #000000; stroke-width: 0.8"/>
      </g>
     </g>
     <g id="text_24">
      <!-- 36a126 -->
      <g transform="translate(830.015585 702.230305) rotate(-65) scale(0.1 -0.1)">
       <use xlink:href="#DejaVuSans-33"/>
       <use xlink:href="#DejaVuSans-36" x="63.623047"/>
       <use xlink:href="#DejaVuSans-61" x="127.246094"/>
       <use xlink:href="#DejaVuSans-31" x="188.525391"/>
       <use xlink:href="#DejaVuSans-32" x="252.148438"/>
       <use xlink:href="#DejaVuSans-36" x="315.771484"/>
      </g>
     </g>
    </g>
    <g id="xtick_25">
     <g id="line2d_49">
      <path d="M 870.000033 657.633183 
L 870.000033 3.00024 
" clip-path="url(#p1f9ebf4140)" style="fill: none; stroke-dasharray: 0.925,0.4; stroke-dashoffset: 0; stroke: #b0b0b0; stroke-width: 0.25"/>
     </g>
     <g id="line2d_50">
      <g>
       <use xlink:href="#ma258649237" x="870.000033" y="657.633183" style="stroke: #000000; stroke-width: 0.8"/>
      </g>
     </g>
     <g id="text_25">
      <!-- af0468 -->
      <g transform="translate(865.084255 699.654409) rotate(-65) scale(0.1 -0.1)">
       <use xlink:href="#DejaVuSans-61"/>
       <use xlink:href="#DejaVuSans-66" x="61.279297"/>
       <use xlink:href="#DejaVuSans-30" x="96.484375"/>
       <use xlink:href="#DejaVuSans-34" x="160.107422"/>
       <use xlink:href="#DejaVuSans-36" x="223.730469"/>
       <use xlink:href="#DejaVuSans-38" x="287.353516"/>
      </g>
     </g>
    </g>
    <g id="xtick_26">
     <g id="line2d_51">
      <path d="M 904.468123 657.633183 
L 904.468123 3.00024 
" clip-path="url(#p1f9ebf4140)" style="fill: none; stroke-dasharray: 0.925,0.4; stroke-dashoffset: 0; stroke: #b0b0b0; stroke-width: 0.25"/>
     </g>
     <g id="line2d_52">
      <g>
       <use xlink:href="#ma258649237" x="904.468123" y="657.633183" style="stroke: #000000; stroke-width: 0.8"/>
      </g>
     </g>
     <g id="text_26">
      <!-- 4a1ba2 -->
      <g transform="translate(899.004263 702.005144) rotate(-65) scale(0.1 -0.1)">
       <use xlink:href="#DejaVuSans-34"/>
       <use xlink:href="#DejaVuSans-61" x="63.623047"/>
       <use xlink:href="#DejaVuSans-31" x="124.902344"/>
       <use xlink:href="#DejaVuSans-62" x="188.525391"/>
       <use xlink:href="#DejaVuSans-61" x="252.001953"/>
       <use xlink:href="#DejaVuSans-32" x="313.28125"/>
      </g>
     </g>
    </g>
    <g id="xtick_27">
     <g id="line2d_53">
      <path d="M 938.936213 657.633183 
L 938.936213 3.00024 
" clip-path="url(#p1f9ebf4140)" style="fill: none; stroke-dasharray: 0.925,0.4; stroke-dashoffset: 0; stroke: #b0b0b0; stroke-width: 0.25"/>
     </g>
     <g id="line2d_54">
      <g>
       <use xlink:href="#ma258649237" x="938.936213" y="657.633183" style="stroke: #000000; stroke-width: 0.8"/>
      </g>
     </g>
     <g id="text_27">
      <!-- d350be -->
      <g transform="translate(933.420516 702.227473) rotate(-65) scale(0.1 -0.1)">
       <use xlink:href="#DejaVuSans-64"/>
       <use xlink:href="#DejaVuSans-33" x="63.476562"/>
       <use xlink:href="#DejaVuSans-35" x="127.099609"/>
       <use xlink:href="#DejaVuSans-30" x="190.722656"/>
       <use xlink:href="#DejaVuSans-62" x="254.345703"/>
       <use xlink:href="#DejaVuSans-65" x="317.822266"/>
      </g>
     </g>
    </g>
    <g id="xtick_28">
     <g id="line2d_55">
      <path d="M 973.404304 657.633183 
L 973.404304 3.00024 
" clip-path="url(#p1f9ebf4140)" style="fill: none; stroke-dasharray: 0.925,0.4; stroke-dashoffset: 0; stroke: #b0b0b0; stroke-width: 0.25"/>
     </g>
     <g id="line2d_56">
      <g>
       <use xlink:href="#ma258649237" x="973.404304" y="657.633183" style="stroke: #000000; stroke-width: 0.8"/>
      </g>
     </g>
     <g id="text_28">
      <!-- e28437 -->
      <g transform="translate(967.882663 702.252963) rotate(-65) scale(0.1 -0.1)">
       <use xlink:href="#DejaVuSans-65"/>
       <use xlink:href="#DejaVuSans-32" x="61.523438"/>
       <use xlink:href="#DejaVuSans-38" x="125.146484"/>
       <use xlink:href="#DejaVuSans-34" x="188.769531"/>
       <use xlink:href="#DejaVuSans-33" x="252.392578"/>
       <use xlink:href="#DejaVuSans-37" x="316.015625"/>
      </g>
     </g>
    </g>
    <g id="xtick_29">
     <g id="line2d_57">
      <path d="M 1007.872394 657.633183 
L 1007.872394 3.00024 
" clip-path="url(#p1f9ebf4140)" style="fill: none; stroke-dasharray: 0.925,0.4; stroke-dashoffset: 0; stroke: #b0b0b0; stroke-width: 0.25"/>
     </g>
     <g id="line2d_58">
      <g>
       <use xlink:href="#ma258649237" x="1007.872394" y="657.633183" style="stroke: #000000; stroke-width: 0.8"/>
      </g>
     </g>
     <g id="text_29">
      <!-- eceef9 -->
      <g transform="translate(1003.222404 698.514443) rotate(-65) scale(0.1 -0.1)">
       <use xlink:href="#DejaVuSans-65"/>
       <use xlink:href="#DejaVuSans-63" x="61.523438"/>
       <use xlink:href="#DejaVuSans-65" x="116.503906"/>
       <use xlink:href="#DejaVuSans-65" x="178.027344"/>
       <use xlink:href="#DejaVuSans-66" x="239.550781"/>
       <use xlink:href="#DejaVuSans-39" x="274.755859"/>
      </g>
     </g>
    </g>
    <g id="xtick_30">
     <g id="line2d_59">
      <path d="M 1042.340484 657.633183 
L 1042.340484 3.00024 
" clip-path="url(#p1f9ebf4140)" style="fill: none; stroke-dasharray: 0.925,0.4; stroke-dashoffset: 0; stroke: #b0b0b0; stroke-width: 0.25"/>
     </g>
     <g id="line2d_60">
      <g>
       <use xlink:href="#ma258649237" x="1042.340484" y="657.633183" style="stroke: #000000; stroke-width: 0.8"/>
      </g>
     </g>
     <g id="text_30">
      <!-- 4a79b7 -->
      <g transform="translate(1036.827098 702.21756) rotate(-65) scale(0.1 -0.1)">
       <use xlink:href="#DejaVuSans-34"/>
       <use xlink:href="#DejaVuSans-61" x="63.623047"/>
       <use xlink:href="#DejaVuSans-37" x="124.902344"/>
       <use xlink:href="#DejaVuSans-39" x="188.525391"/>
       <use xlink:href="#DejaVuSans-62" x="252.148438"/>
       <use xlink:href="#DejaVuSans-37" x="315.625"/>
      </g>
     </g>
    </g>
    <g id="xtick_31">
     <g id="line2d_61">
      <path d="M 1076.808574 657.633183 
L 1076.808574 3.00024 
" clip-path="url(#p1f9ebf4140)" style="fill: none; stroke-dasharray: 0.925,0.4; stroke-dashoffset: 0; stroke: #b0b0b0; stroke-width: 0.25"/>
     </g>
     <g id="line2d_62">
      <g>
       <use xlink:href="#ma258649237" x="1076.808574" y="657.633183" style="stroke: #000000; stroke-width: 0.8"/>
      </g>
     </g>
     <g id="text_31">
      <!-- 1fdc3c -->
      <g transform="translate(1072.211412 698.287866) rotate(-65) scale(0.1 -0.1)">
       <use xlink:href="#DejaVuSans-31"/>
       <use xlink:href="#DejaVuSans-66" x="63.623047"/>
       <use xlink:href="#DejaVuSans-64" x="98.828125"/>
       <use xlink:href="#DejaVuSans-63" x="162.304688"/>
       <use xlink:href="#DejaVuSans-33" x="217.285156"/>
       <use xlink:href="#DejaVuSans-63" x="280.908203"/>
      </g>
     </g>
    </g>
    <g id="xtick_32">
     <g id="line2d_63">
      <path d="M 1111.276665 657.633183 
L 1111.276665 3.00024 
" clip-path="url(#p1f9ebf4140)" style="fill: none; stroke-dasharray: 0.925,0.4; stroke-dashoffset: 0; stroke: #b0b0b0; stroke-width: 0.25"/>
     </g>
     <g id="line2d_64">
      <g>
       <use xlink:href="#ma258649237" x="1111.276665" y="657.633183" style="stroke: #000000; stroke-width: 0.8"/>
      </g>
     </g>
     <g id="text_32">
      <!-- 3f0b59 -->
      <g transform="translate(1106.314333 699.854079) rotate(-65) scale(0.1 -0.1)">
       <use xlink:href="#DejaVuSans-33"/>
       <use xlink:href="#DejaVuSans-66" x="63.623047"/>
       <use xlink:href="#DejaVuSans-30" x="98.828125"/>
       <use xlink:href="#DejaVuSans-62" x="162.451172"/>
       <use xlink:href="#DejaVuSans-35" x="225.927734"/>
       <use xlink:href="#DejaVuSans-39" x="289.550781"/>
      </g>
     </g>
    </g>
    <g id="xtick_33">
     <g id="line2d_65">
      <path d="M 1145.744755 657.633183 
L 1145.744755 3.00024 
" clip-path="url(#p1f9ebf4140)" style="fill: none; stroke-dasharray: 0.925,0.4; stroke-dashoffset: 0; stroke: #b0b0b0; stroke-width: 0.25"/>
     </g>
     <g id="line2d_66">
      <g>
       <use xlink:href="#ma258649237" x="1145.744755" y="657.633183" style="stroke: #000000; stroke-width: 0.8"/>
      </g>
     </g>
     <g id="text_33">
      <!-- d31f06 -->
      <g transform="translate(1140.782424 699.854079) rotate(-65) scale(0.1 -0.1)">
       <use xlink:href="#DejaVuSans-64"/>
       <use xlink:href="#DejaVuSans-33" x="63.476562"/>
       <use xlink:href="#DejaVuSans-31" x="127.099609"/>
       <use xlink:href="#DejaVuSans-66" x="190.722656"/>
       <use xlink:href="#DejaVuSans-30" x="225.927734"/>
       <use xlink:href="#DejaVuSans-36" x="289.550781"/>
      </g>
     </g>
    </g>
    <g id="xtick_34">
     <g id="line2d_67">
      <path d="M 1180.212845 657.633183 
L 1180.212845 3.00024 
" clip-path="url(#p1f9ebf4140)" style="fill: none; stroke-dasharray: 0.925,0.4; stroke-dashoffset: 0; stroke: #b0b0b0; stroke-width: 0.25"/>
     </g>
     <g id="line2d_68">
      <g>
       <use xlink:href="#ma258649237" x="1180.212845" y="657.633183" style="stroke: #000000; stroke-width: 0.8"/>
      </g>
     </g>
     <g id="text_34">
      <!-- 69fafd -->
      <g transform="translate(1175.90062 697.065767) rotate(-65) scale(0.1 -0.1)">
       <use xlink:href="#DejaVuSans-36"/>
       <use xlink:href="#DejaVuSans-39" x="63.623047"/>
       <use xlink:href="#DejaVuSans-66" x="127.246094"/>
       <use xlink:href="#DejaVuSans-61" x="162.451172"/>
       <use xlink:href="#DejaVuSans-66" x="223.730469"/>
       <use xlink:href="#DejaVuSans-64" x="258.935547"/>
      </g>
     </g>
    </g>
    <g id="xtick_35">
     <g id="line2d_69">
      <path d="M 1214.680936 657.633183 
L 1214.680936 3.00024 
" clip-path="url(#p1f9ebf4140)" style="fill: none; stroke-dasharray: 0.925,0.4; stroke-dashoffset: 0; stroke: #b0b0b0; stroke-width: 0.25"/>
     </g>
     <g id="line2d_70">
      <g>
       <use xlink:href="#ma258649237" x="1214.680936" y="657.633183" style="stroke: #000000; stroke-width: 0.8"/>
      </g>
     </g>
     <g id="text_35">
      <!-- 411622 -->
      <g transform="translate(1209.115053 702.442721) rotate(-65) scale(0.1 -0.1)">
       <use xlink:href="#DejaVuSans-34"/>
       <use xlink:href="#DejaVuSans-31" x="63.623047"/>
       <use xlink:href="#DejaVuSans-31" x="127.246094"/>
       <use xlink:href="#DejaVuSans-36" x="190.869141"/>
       <use xlink:href="#DejaVuSans-32" x="254.492188"/>
       <use xlink:href="#DejaVuSans-32" x="318.115234"/>
      </g>
     </g>
    </g>
    <g id="xtick_36">
     <g id="line2d_71">
      <path d="M 1249.149026 657.633183 
L 1249.149026 3.00024 
" clip-path="url(#p1f9ebf4140)" style="fill: none; stroke-dasharray: 0.925,0.4; stroke-dashoffset: 0; stroke: #b0b0b0; stroke-width: 0.25"/>
     </g>
     <g id="line2d_72">
      <g>
       <use xlink:href="#ma258649237" x="1249.149026" y="657.633183" style="stroke: #000000; stroke-width: 0.8"/>
      </g>
     </g>
     <g id="text_36">
      <!-- 857516 -->
      <g transform="translate(1243.583143 702.442721) rotate(-65) scale(0.1 -0.1)">
       <use xlink:href="#DejaVuSans-38"/>
       <use xlink:href="#DejaVuSans-35" x="63.623047"/>
       <use xlink:href="#DejaVuSans-37" x="127.246094"/>
       <use xlink:href="#DejaVuSans-35" x="190.869141"/>
       <use xlink:href="#DejaVuSans-31" x="254.492188"/>
       <use xlink:href="#DejaVuSans-36" x="318.115234"/>
      </g>
     </g>
    </g>
    <g id="xtick_37">
     <g id="line2d_73">
      <path d="M 1283.617116 657.633183 
L 1283.617116 3.00024 
" clip-path="url(#p1f9ebf4140)" style="fill: none; stroke-dasharray: 0.925,0.4; stroke-dashoffset: 0; stroke: #b0b0b0; stroke-width: 0.25"/>
     </g>
     <g id="line2d_74">
      <g>
       <use xlink:href="#ma258649237" x="1283.617116" y="657.633183" style="stroke: #000000; stroke-width: 0.8"/>
      </g>
     </g>
     <g id="text_37">
      <!-- 604265 -->
      <g transform="translate(1278.051233 702.442721) rotate(-65) scale(0.1 -0.1)">
       <use xlink:href="#DejaVuSans-36"/>
       <use xlink:href="#DejaVuSans-30" x="63.623047"/>
       <use xlink:href="#DejaVuSans-34" x="127.246094"/>
       <use xlink:href="#DejaVuSans-32" x="190.869141"/>
       <use xlink:href="#DejaVuSans-36" x="254.492188"/>
       <use xlink:href="#DejaVuSans-35" x="318.115234"/>
      </g>
     </g>
    </g>
    <g id="xtick_38">
     <g id="line2d_75">
      <path d="M 1318.085207 657.633183 
L 1318.085207 3.00024 
" clip-path="url(#p1f9ebf4140)" style="fill: none; stroke-dasharray: 0.925,0.4; stroke-dashoffset: 0; stroke: #b0b0b0; stroke-width: 0.25"/>
     </g>
     <g id="line2d_76">
      <g>
       <use xlink:href="#ma258649237" x="1318.085207" y="657.633183" style="stroke: #000000; stroke-width: 0.8"/>
      </g>
     </g>
     <g id="text_38">
      <!-- 58aee5 -->
      <g transform="translate(1312.657335 701.850789) rotate(-65) scale(0.1 -0.1)">
       <use xlink:href="#DejaVuSans-35"/>
       <use xlink:href="#DejaVuSans-38" x="63.623047"/>
       <use xlink:href="#DejaVuSans-61" x="127.246094"/>
       <use xlink:href="#DejaVuSans-65" x="188.525391"/>
       <use xlink:href="#DejaVuSans-65" x="250.048828"/>
       <use xlink:href="#DejaVuSans-35" x="311.572266"/>
      </g>
     </g>
    </g>
    <g id="xtick_39">
     <g id="line2d_77">
      <path d="M 1352.553297 657.633183 
L 1352.553297 3.00024 
" clip-path="url(#p1f9ebf4140)" style="fill: none; stroke-dasharray: 0.925,0.4; stroke-dashoffset: 0; stroke: #b0b0b0; stroke-width: 0.25"/>
     </g>
     <g id="line2d_78">
      <g>
       <use xlink:href="#ma258649237" x="1352.553297" y="657.633183" style="stroke: #000000; stroke-width: 0.8"/>
      </g>
     </g>
     <g id="text_39">
      <!-- 5b84b9 -->
      <g transform="translate(1346.993357 702.417231) rotate(-65) scale(0.1 -0.1)">
       <use xlink:href="#DejaVuSans-35"/>
       <use xlink:href="#DejaVuSans-62" x="63.623047"/>
       <use xlink:href="#DejaVuSans-38" x="127.099609"/>
       <use xlink:href="#DejaVuSans-34" x="190.722656"/>
       <use xlink:href="#DejaVuSans-62" x="254.345703"/>
       <use xlink:href="#DejaVuSans-39" x="317.822266"/>
      </g>
     </g>
    </g>
    <g id="text_40">
     <!-- Commit SHA -->
     <g transform="translate(666.075206 714.920072) scale(0.1 -0.1)">
      <defs>
       <path id="DejaVuSans-43" d="M 4122 4306 
L 4122 3641 
Q 3803 3938 3442 4084 
Q 3081 4231 2675 4231 
Q 1875 4231 1450 3742 
Q 1025 3253 1025 2328 
Q 1025 1406 1450 917 
Q 1875 428 2675 428 
Q 3081 428 3442 575 
Q 3803 722 4122 1019 
L 4122 359 
Q 3791 134 3420 21 
Q 3050 -91 2638 -91 
Q 1578 -91 968 557 
Q 359 1206 359 2328 
Q 359 3453 968 4101 
Q 1578 4750 2638 4750 
Q 3056 4750 3426 4639 
Q 3797 4528 4122 4306 
z
" transform="scale(0.015625)"/>
       <path id="DejaVuSans-6f" d="M 1959 3097 
Q 1497 3097 1228 2736 
Q 959 2375 959 1747 
Q 959 1119 1226 758 
Q 1494 397 1959 397 
Q 2419 397 2687 759 
Q 2956 1122 2956 1747 
Q 2956 2369 2687 2733 
Q 2419 3097 1959 3097 
z
M 1959 3584 
Q 2709 3584 3137 3096 
Q 3566 2609 3566 1747 
Q 3566 888 3137 398 
Q 2709 -91 1959 -91 
Q 1206 -91 779 398 
Q 353 888 353 1747 
Q 353 2609 779 3096 
Q 1206 3584 1959 3584 
z
" transform="scale(0.015625)"/>
       <path id="DejaVuSans-6d" d="M 3328 2828 
Q 3544 3216 3844 3400 
Q 4144 3584 4550 3584 
Q 5097 3584 5394 3201 
Q 5691 2819 5691 2113 
L 5691 0 
L 5113 0 
L 5113 2094 
Q 5113 2597 4934 2840 
Q 4756 3084 4391 3084 
Q 3944 3084 3684 2787 
Q 3425 2491 3425 1978 
L 3425 0 
L 2847 0 
L 2847 2094 
Q 2847 2600 2669 2842 
Q 2491 3084 2119 3084 
Q 1678 3084 1418 2786 
Q 1159 2488 1159 1978 
L 1159 0 
L 581 0 
L 581 3500 
L 1159 3500 
L 1159 2956 
Q 1356 3278 1631 3431 
Q 1906 3584 2284 3584 
Q 2666 3584 2933 3390 
Q 3200 3197 3328 2828 
z
" transform="scale(0.015625)"/>
       <path id="DejaVuSans-69" d="M 603 3500 
L 1178 3500 
L 1178 0 
L 603 0 
L 603 3500 
z
M 603 4863 
L 1178 4863 
L 1178 4134 
L 603 4134 
L 603 4863 
z
" transform="scale(0.015625)"/>
       <path id="DejaVuSans-74" d="M 1172 4494 
L 1172 3500 
L 2356 3500 
L 2356 3053 
L 1172 3053 
L 1172 1153 
Q 1172 725 1289 603 
Q 1406 481 1766 481 
L 2356 481 
L 2356 0 
L 1766 0 
Q 1100 0 847 248 
Q 594 497 594 1153 
L 594 3053 
L 172 3053 
L 172 3500 
L 594 3500 
L 594 4494 
L 1172 4494 
z
" transform="scale(0.015625)"/>
       <path id="DejaVuSans-20" transform="scale(0.015625)"/>
       <path id="DejaVuSans-53" d="M 3425 4513 
L 3425 3897 
Q 3066 4069 2747 4153 
Q 2428 4238 2131 4238 
Q 1616 4238 1336 4038 
Q 1056 3838 1056 3469 
Q 1056 3159 1242 3001 
Q 1428 2844 1947 2747 
L 2328 2669 
Q 3034 2534 3370 2195 
Q 3706 1856 3706 1288 
Q 3706 609 3251 259 
Q 2797 -91 1919 -91 
Q 1588 -91 1214 -16 
Q 841 59 441 206 
L 441 856 
Q 825 641 1194 531 
Q 1563 422 1919 422 
Q 2459 422 2753 634 
Q 3047 847 3047 1241 
Q 3047 1584 2836 1778 
Q 2625 1972 2144 2069 
L 1759 2144 
Q 1053 2284 737 2584 
Q 422 2884 422 3419 
Q 422 4038 858 4394 
Q 1294 4750 2059 4750 
Q 2388 4750 2728 4690 
Q 3069 4631 3425 4513 
z
" transform="scale(0.015625)"/>
       <path id="DejaVuSans-48" d="M 628 4666 
L 1259 4666 
L 1259 2753 
L 3553 2753 
L 3553 4666 
L 4184 4666 
L 4184 0 
L 3553 0 
L 3553 2222 
L 1259 2222 
L 1259 0 
L 628 0 
L 628 4666 
z
" transform="scale(0.015625)"/>
       <path id="DejaVuSans-41" d="M 2188 4044 
L 1331 1722 
L 3047 1722 
L 2188 4044 
z
M 1831 4666 
L 2547 4666 
L 4325 0 
L 3669 0 
L 3244 1197 
L 1141 1197 
L 716 0 
L 50 0 
L 1831 4666 
z
" transform="scale(0.015625)"/>
      </defs>
      <use xlink:href="#DejaVuSans-43"/>
      <use xlink:href="#DejaVuSans-6f" x="69.824219"/>
      <use xlink:href="#DejaVuSans-6d" x="131.005859"/>
      <use xlink:href="#DejaVuSans-6d" x="228.417969"/>
      <use xlink:href="#DejaVuSans-69" x="325.830078"/>
      <use xlink:href="#DejaVuSans-74" x="353.613281"/>
      <use xlink:href="#DejaVuSans-20" x="392.822266"/>
      <use xlink:href="#DejaVuSans-53" x="424.609375"/>
      <use xlink:href="#DejaVuSans-48" x="488.085938"/>
      <use xlink:href="#DejaVuSans-41" x="563.28125"/>
     </g>
    </g>
   </g>
   <g id="matplotlib.axis_2">
    <g id="ytick_1">
     <g id="line2d_79">
      <path d="M 42.765865 634.460335 
L 1352.553297 634.460335 
" clip-path="url(#p1f9ebf4140)" style="fill: none; stroke-dasharray: 0.925,0.4; stroke-dashoffset: 0; stroke: #b0b0b0; stroke-width: 0.25"/>
     </g>
     <g id="line2d_80">
      <defs>
       <path id="m494fe602c9" d="M 0 0 
L -3.5 0 
" style="stroke: #000000; stroke-width: 0.8"/>
      </defs>
      <g>
       <use xlink:href="#m494fe602c9" x="42.765865" y="634.460335" style="stroke: #000000; stroke-width: 0.8"/>
      </g>
     </g>
     <g id="text_41">
      <!-- 20 -->
      <g transform="translate(23.040865 638.259554) scale(0.1 -0.1)">
       <use xlink:href="#DejaVuSans-32"/>
       <use xlink:href="#DejaVuSans-30" x="63.623047"/>
      </g>
     </g>
    </g>
    <g id="ytick_2">
     <g id="line2d_81">
      <path d="M 42.765865 518.596098 
L 1352.553297 518.596098 
" clip-path="url(#p1f9ebf4140)" style="fill: none; stroke-dasharray: 0.925,0.4; stroke-dashoffset: 0; stroke: #b0b0b0; stroke-width: 0.25"/>
     </g>
     <g id="line2d_82">
      <g>
       <use xlink:href="#m494fe602c9" x="42.765865" y="518.596098" style="stroke: #000000; stroke-width: 0.8"/>
      </g>
     </g>
     <g id="text_42">
      <!-- 40 -->
      <g transform="translate(23.040865 522.395316) scale(0.1 -0.1)">
       <use xlink:href="#DejaVuSans-34"/>
       <use xlink:href="#DejaVuSans-30" x="63.623047"/>
      </g>
     </g>
    </g>
    <g id="ytick_3">
     <g id="line2d_83">
      <path d="M 42.765865 402.73186 
L 1352.553297 402.73186 
" clip-path="url(#p1f9ebf4140)" style="fill: none; stroke-dasharray: 0.925,0.4; stroke-dashoffset: 0; stroke: #b0b0b0; stroke-width: 0.25"/>
     </g>
     <g id="line2d_84">
      <g>
       <use xlink:href="#m494fe602c9" x="42.765865" y="402.73186" style="stroke: #000000; stroke-width: 0.8"/>
      </g>
     </g>
     <g id="text_43">
      <!-- 60 -->
      <g transform="translate(23.040865 406.531079) scale(0.1 -0.1)">
       <use xlink:href="#DejaVuSans-36"/>
       <use xlink:href="#DejaVuSans-30" x="63.623047"/>
      </g>
     </g>
    </g>
    <g id="ytick_4">
     <g id="line2d_85">
      <path d="M 42.765865 286.867622 
L 1352.553297 286.867622 
" clip-path="url(#p1f9ebf4140)" style="fill: none; stroke-dasharray: 0.925,0.4; stroke-dashoffset: 0; stroke: #b0b0b0; stroke-width: 0.25"/>
     </g>
     <g id="line2d_86">
      <g>
       <use xlink:href="#m494fe602c9" x="42.765865" y="286.867622" style="stroke: #000000; stroke-width: 0.8"/>
      </g>
     </g>
     <g id="text_44">
      <!-- 80 -->
      <g transform="translate(23.040865 290.666841) scale(0.1 -0.1)">
       <use xlink:href="#DejaVuSans-38"/>
       <use xlink:href="#DejaVuSans-30" x="63.623047"/>
      </g>
     </g>
    </g>
    <g id="ytick_5">
     <g id="line2d_87">
      <path d="M 42.765865 171.003385 
L 1352.553297 171.003385 
" clip-path="url(#p1f9ebf4140)" style="fill: none; stroke-dasharray: 0.925,0.4; stroke-dashoffset: 0; stroke: #b0b0b0; stroke-width: 0.25"/>
     </g>
     <g id="line2d_88">
      <g>
       <use xlink:href="#m494fe602c9" x="42.765865" y="171.003385" style="stroke: #000000; stroke-width: 0.8"/>
      </g>
     </g>
     <g id="text_45">
      <!-- 100 -->
      <g transform="translate(16.678365 174.802603) scale(0.1 -0.1)">
       <use xlink:href="#DejaVuSans-31"/>
       <use xlink:href="#DejaVuSans-30" x="63.623047"/>
       <use xlink:href="#DejaVuSans-30" x="127.246094"/>
      </g>
     </g>
    </g>
    <g id="ytick_6">
     <g id="line2d_89">
      <path d="M 42.765865 55.139147 
L 1352.553297 55.139147 
" clip-path="url(#p1f9ebf4140)" style="fill: none; stroke-dasharray: 0.925,0.4; stroke-dashoffset: 0; stroke: #b0b0b0; stroke-width: 0.25"/>
     </g>
     <g id="line2d_90">
      <g>
       <use xlink:href="#m494fe602c9" x="42.765865" y="55.139147" style="stroke: #000000; stroke-width: 0.8"/>
      </g>
     </g>
     <g id="text_46">
      <!-- 120 -->
      <g transform="translate(16.678365 58.938366) scale(0.1 -0.1)">
       <use xlink:href="#DejaVuSans-31"/>
       <use xlink:href="#DejaVuSans-32" x="63.623047"/>
       <use xlink:href="#DejaVuSans-30" x="127.246094"/>
      </g>
     </g>
    </g>
    <g id="text_47">
     <!-- Time (ms) -->
     <g transform="translate(10.598677 355.51593) rotate(-90) scale(0.1 -0.1)">
      <defs>
       <path id="DejaVuSans-54" d="M -19 4666 
L 3928 4666 
L 3928 4134 
L 2272 4134 
L 2272 0 
L 1638 0 
L 1638 4134 
L -19 4134 
L -19 4666 
z
" transform="scale(0.015625)"/>
       <path id="DejaVuSans-28" d="M 1984 4856 
Q 1566 4138 1362 3434 
Q 1159 2731 1159 2009 
Q 1159 1288 1364 580 
Q 1569 -128 1984 -844 
L 1484 -844 
Q 1016 -109 783 600 
Q 550 1309 550 2009 
Q 550 2706 781 3412 
Q 1013 4119 1484 4856 
L 1984 4856 
z
" transform="scale(0.015625)"/>
       <path id="DejaVuSans-73" d="M 2834 3397 
L 2834 2853 
Q 2591 2978 2328 3040 
Q 2066 3103 1784 3103 
Q 1356 3103 1142 2972 
Q 928 2841 928 2578 
Q 928 2378 1081 2264 
Q 1234 2150 1697 2047 
L 1894 2003 
Q 2506 1872 2764 1633 
Q 3022 1394 3022 966 
Q 3022 478 2636 193 
Q 2250 -91 1575 -91 
Q 1294 -91 989 -36 
Q 684 19 347 128 
L 347 722 
Q 666 556 975 473 
Q 1284 391 1588 391 
Q 1994 391 2212 530 
Q 2431 669 2431 922 
Q 2431 1156 2273 1281 
Q 2116 1406 1581 1522 
L 1381 1569 
Q 847 1681 609 1914 
Q 372 2147 372 2553 
Q 372 3047 722 3315 
Q 1072 3584 1716 3584 
Q 2034 3584 2315 3537 
Q 2597 3491 2834 3397 
z
" transform="scale(0.015625)"/>
       <path id="DejaVuSans-29" d="M 513 4856 
L 1013 4856 
Q 1481 4119 1714 3412 
Q 1947 2706 1947 2009 
Q 1947 1309 1714 600 
Q 1481 -109 1013 -844 
L 513 -844 
Q 928 -128 1133 580 
Q 1338 1288 1338 2009 
Q 1338 2731 1133 3434 
Q 928 4138 513 4856 
z
" transform="scale(0.015625)"/>
      </defs>
      <use xlink:href="#DejaVuSans-54"/>
      <use xlink:href="#DejaVuSans-69" x="57.958984"/>
      <use xlink:href="#DejaVuSans-6d" x="85.742188"/>
      <use xlink:href="#DejaVuSans-65" x="183.154297"/>
      <use xlink:href="#DejaVuSans-20" x="244.677734"/>
      <use xlink:href="#DejaVuSans-28" x="276.464844"/>
      <use xlink:href="#DejaVuSans-6d" x="315.478516"/>
      <use xlink:href="#DejaVuSans-73" x="412.890625"/>
      <use xlink:href="#DejaVuSans-29" x="464.990234"/>
     </g>
    </g>
   </g>
   <g id="line2d_91">
    <path d="M 42.765865 588.11464 
L 77.233955 570.735005 
L 111.702046 559.148581 
L 146.170136 628.667123 
L 180.638226 628.667123 
L 215.106317 628.667123 
L 249.574407 622.873912 
L 284.042497 622.873912 
L 318.510588 622.873912 
L 352.978678 622.873912 
L 387.446768 622.873912 
L 421.914858 628.667123 
L 456.382949 628.667123 
L 490.851039 628.667123 
L 525.319129 622.873912 
L 559.78722 622.873912 
L 594.25531 622.873912 
L 628.7234 622.873912 
L 663.191491 617.0807 
L 697.659581 617.0807 
L 732.127671 617.0807 
L 766.595762 611.287488 
L 801.063852 617.0807 
L 835.531942 617.0807 
L 870.000033 617.0807 
L 904.468123 622.873912 
L 938.936213 605.494276 
L 973.404304 611.287488 
L 1007.872394 611.287488 
L 1042.340484 605.494276 
L 1076.808574 599.701064 
L 1111.276665 605.494276 
L 1145.744755 611.287488 
L 1180.212845 611.287488 
L 1214.680936 611.287488 
L 1249.149026 611.287488 
L 1283.617116 611.287488 
L 1318.085207 611.287488 
L 1352.553297 617.0807 
" clip-path="url(#p1f9ebf4140)" style="fill: none; stroke: #1f77b4; stroke-width: 1.5; stroke-linecap: square"/>
   </g>
   <g id="line2d_92">
    <path d="M 42.765865 588.11464 
L 77.233955 570.735005 
L 111.702046 559.148581 
L 146.170136 628.667123 
L 180.638226 628.667123 
L 215.106317 628.667123 
L 249.574407 622.873912 
L 284.042497 622.873912 
L 318.510588 622.873912 
L 352.978678 622.873912 
L 387.446768 622.873912 
L 421.914858 628.667123 
L 456.382949 628.667123 
L 490.851039 628.667123 
L 525.319129 622.873912 
L 559.78722 622.873912 
L 594.25531 622.873912 
L 628.7234 622.873912 
L 663.191491 617.0807 
L 697.659581 617.0807 
L 732.127671 617.0807 
L 766.595762 611.287488 
L 801.063852 617.0807 
L 835.531942 617.0807 
L 870.000033 617.0807 
L 904.468123 622.873912 
L 938.936213 605.494276 
L 973.404304 611.287488 
L 1007.872394 611.287488 
L 1042.340484 605.494276 
L 1076.808574 599.701064 
L 1111.276665 605.494276 
L 1145.744755 611.287488 
L 1180.212845 611.287488 
L 1214.680936 605.494276 
L 1249.149026 611.287488 
L 1283.617116 611.287488 
L 1318.085207 611.287488 
L 1352.553297 611.287488 
" clip-path="url(#p1f9ebf4140)" style="fill: none; stroke: #ff7f0e; stroke-width: 1.5; stroke-linecap: square"/>
   </g>
   <g id="line2d_93">
    <path d="M 42.765865 101.484842 
L 77.233955 60.932359 
L 111.702046 107.278054 
L 146.170136 142.037325 
L 180.638226 147.830537 
L 215.106317 136.244113 
L 249.574407 136.244113 
L 284.042497 136.244113 
L 318.510588 136.244113 
L 352.978678 142.037325 
L 387.446768 136.244113 
L 421.914858 142.037325 
L 456.382949 159.416961 
L 490.851039 147.830537 
L 525.319129 130.450901 
L 559.78722 130.450901 
L 594.25531 130.450901 
L 628.7234 136.244113 
L 663.191491 130.450901 
L 697.659581 37.759511 
L 732.127671 43.552723 
L 766.595762 3.00024 
L 801.063852 49.345935 
L 835.531942 43.552723 
L 870.000033 37.759511 
L 904.468123 78.311994 
L 938.936213 26.173088 
L 973.404304 37.759511 
L 1007.872394 31.966299 
L 1042.340484 31.966299 
L 1076.808574 14.586664 
L 1111.276665 26.173088 
L 1145.744755 43.552723 
L 1180.212845 37.759511 
L 1214.680936 31.966299 
L 1249.149026 55.139147 
L 1283.617116 60.932359 
L 1318.085207 60.932359 
L 1352.553297 66.725571 
" clip-path="url(#p1f9ebf4140)" style="fill: none; stroke: #2ca02c; stroke-width: 1.5; stroke-linecap: square"/>
   </g>
   <g id="line2d_94">
    <path d="M 42.765865 507.009674 
L 77.233955 489.630038 
L 111.702046 478.043614 
L 146.170136 541.768945 
L 180.638226 541.768945 
L 215.106317 535.975733 
L 249.574407 535.975733 
L 284.042497 541.768945 
L 318.510588 535.975733 
L 352.978678 535.975733 
L 387.446768 535.975733 
L 421.914858 541.768945 
L 456.382949 547.562157 
L 490.851039 541.768945 
L 525.319129 535.975733 
L 559.78722 535.975733 
L 594.25531 535.975733 
L 628.7234 535.975733 
L 663.191491 530.182521 
L 697.659581 524.38931 
L 732.127671 530.182521 
L 766.595762 518.596098 
L 801.063852 530.182521 
L 835.531942 530.182521 
L 870.000033 530.182521 
L 904.468123 541.768945 
L 938.936213 518.596098 
L 973.404304 518.596098 
L 1007.872394 524.38931 
L 1042.340484 518.596098 
L 1076.808574 512.802886 
L 1111.276665 518.596098 
L 1145.744755 524.38931 
L 1180.212845 524.38931 
L 1214.680936 518.596098 
L 1249.149026 530.182521 
L 1283.617116 524.38931 
L 1318.085207 524.38931 
L 1352.553297 530.182521 
" clip-path="url(#p1f9ebf4140)" style="fill: none; stroke: #d62728; stroke-width: 1.5; stroke-linecap: square"/>
   </g>
   <g id="line2d_95">
    <path d="M 42.765865 599.701064 
L 77.233955 582.321428 
L 111.702046 576.528216 
L 146.170136 646.046759 
L 180.638226 646.046759 
L 215.106317 646.046759 
L 249.574407 646.046759 
L 284.042497 646.046759 
L 318.510588 646.046759 
L 352.978678 640.253547 
L 387.446768 640.253547 
L 421.914858 646.046759 
L 456.382949 651.839971 
L 490.851039 646.046759 
L 525.319129 640.253547 
L 559.78722 640.253547 
L 594.25531 640.253547 
L 628.7234 640.253547 
L 663.191491 640.253547 
L 697.659581 634.460335 
L 732.127671 634.460335 
L 766.595762 628.667123 
L 801.063852 640.253547 
L 835.531942 634.460335 
L 870.000033 634.460335 
L 904.468123 640.253547 
L 938.936213 628.667123 
L 973.404304 634.460335 
L 1007.872394 628.667123 
L 1042.340484 628.667123 
L 1076.808574 622.873912 
L 1111.276665 628.667123 
L 1145.744755 628.667123 
L 1180.212845 628.667123 
L 1214.680936 628.667123 
L 1249.149026 634.460335 
L 1283.617116 628.667123 
L 1318.085207 628.667123 
L 1352.553297 634.460335 
" clip-path="url(#p1f9ebf4140)" style="fill: none; stroke: #9467bd; stroke-width: 1.5; stroke-linecap: square"/>
   </g>
   <g id="line2d_96">
    <path d="M 42.765865 605.494276 
L 77.233955 588.11464 
L 111.702046 576.528216 
L 146.170136 651.839971 
L 180.638226 651.839971 
L 215.106317 651.839971 
L 249.574407 646.046759 
L 284.042497 651.839971 
L 318.510588 646.046759 
L 352.978678 646.046759 
L 387.446768 646.046759 
L 421.914858 651.839971 
L 456.382949 657.633183 
L 490.851039 651.839971 
L 525.319129 646.046759 
L 559.78722 646.046759 
L 594.25531 646.046759 
L 628.7234 646.046759 
L 663.191491 640.253547 
L 697.659581 640.253547 
L 732.127671 640.253547 
L 766.595762 634.460335 
L 801.063852 640.253547 
L 835.531942 640.253547 
L 870.000033 640.253547 
L 904.468123 640.253547 
L 938.936213 634.460335 
L 973.404304 634.460335 
L 1007.872394 634.460335 
L 1042.340484 634.460335 
L 1076.808574 628.667123 
L 1111.276665 628.667123 
L 1145.744755 634.460335 
L 1180.212845 634.460335 
L 1214.680936 634.460335 
L 1249.149026 634.460335 
L 1283.617116 634.460335 
L 1318.085207 634.460335 
L 1352.553297 640.253547 
" clip-path="url(#p1f9ebf4140)" style="fill: none; stroke: #8c564b; stroke-width: 1.5; stroke-linecap: square"/>
   </g>
   <g id="patch_3">
    <path d="M 42.765865 657.633183 
L 42.765865 3.00024 
" style="fill: none; stroke: #000000; stroke-width: 0.8; stroke-linejoin: miter; stroke-linecap: square"/>
   </g>
   <g id="patch_4">
    <path d="M 1352.553297 657.633183 
L 1352.553297 3.00024 
" style="fill: none; stroke: #000000; stroke-width: 0.8; stroke-linejoin: miter; stroke-linecap: square"/>
   </g>
   <g id="patch_5">
    <path d="M 42.765865 657.633183 
L 1352.553297 657.633183 
" style="fill: none; stroke: #000000; stroke-width: 0.8; stroke-linejoin: miter; stroke-linecap: square"/>
   </g>
   <g id="patch_6">
    <path d="M 42.765865 3.00024 
L 1352.553297 3.00024 
" style="fill: none; stroke: #000000; stroke-width: 0.8; stroke-linejoin: miter; stroke-linecap: square"/>
   </g>
   <g id="legend_1">
    <g id="patch_7">
     <path d="M 1249.915797 375.851086 
L 1345.553297 375.851086 
Q 1347.553297 375.851086 1347.553297 373.851086 
L 1347.553297 286.782336 
Q 1347.553297 284.782336 1345.553297 284.782336 
L 1249.915797 284.782336 
Q 1247.915797 284.782336 1247.915797 286.782336 
L 1247.915797 373.851086 
Q 1247.915797 375.851086 1249.915797 375.851086 
z
" style="fill: #ffffff; opacity: 0.8; stroke: #cccccc; stroke-linejoin: miter"/>
    </g>
    <g id="line2d_97">
     <path d="M 1251.915797 292.880774 
L 1261.915797 292.880774 
L 1271.915797 292.880774 
" style="fill: none; stroke: #1f77b4; stroke-width: 1.5; stroke-linecap: square"/>
    </g>
    <g id="text_48">
     <!-- gis -->
     <g transform="translate(1279.915797 296.380774) scale(0.1 -0.1)">
      <defs>
       <path id="DejaVuSans-67" d="M 2906 1791 
Q 2906 2416 2648 2759 
Q 2391 3103 1925 3103 
Q 1463 3103 1205 2759 
Q 947 2416 947 1791 
Q 947 1169 1205 825 
Q 1463 481 1925 481 
Q 2391 481 2648 825 
Q 2906 1169 2906 1791 
z
M 3481 434 
Q 3481 -459 3084 -895 
Q 2688 -1331 1869 -1331 
Q 1566 -1331 1297 -1286 
Q 1028 -1241 775 -1147 
L 775 -588 
Q 1028 -725 1275 -790 
Q 1522 -856 1778 -856 
Q 2344 -856 2625 -561 
Q 2906 -266 2906 331 
L 2906 616 
Q 2728 306 2450 153 
Q 2172 0 1784 0 
Q 1141 0 747 490 
Q 353 981 353 1791 
Q 353 2603 747 3093 
Q 1141 3584 1784 3584 
Q 2172 3584 2450 3431 
Q 2728 3278 2906 2969 
L 2906 3500 
L 3481 3500 
L 3481 434 
z
" transform="scale(0.015625)"/>
      </defs>
      <use xlink:href="#DejaVuSans-67"/>
      <use xlink:href="#DejaVuSans-69" x="63.476562"/>
      <use xlink:href="#DejaVuSans-73" x="91.259766"/>
     </g>
    </g>
    <g id="line2d_98">
     <path d="M 1251.915797 307.558899 
L 1261.915797 307.558899 
L 1271.915797 307.558899 
" style="fill: none; stroke: #ff7f0e; stroke-width: 1.5; stroke-linecap: square"/>
    </g>
    <g id="text_49">
     <!-- gis status -->
     <g transform="translate(1279.915797 311.058899) scale(0.1 -0.1)">
      <defs>
       <path id="DejaVuSans-75" d="M 544 1381 
L 544 3500 
L 1119 3500 
L 1119 1403 
Q 1119 906 1312 657 
Q 1506 409 1894 409 
Q 2359 409 2629 706 
Q 2900 1003 2900 1516 
L 2900 3500 
L 3475 3500 
L 3475 0 
L 2900 0 
L 2900 538 
Q 2691 219 2414 64 
Q 2138 -91 1772 -91 
Q 1169 -91 856 284 
Q 544 659 544 1381 
z
M 1991 3584 
L 1991 3584 
z
" transform="scale(0.015625)"/>
      </defs>
      <use xlink:href="#DejaVuSans-67"/>
      <use xlink:href="#DejaVuSans-69" x="63.476562"/>
      <use xlink:href="#DejaVuSans-73" x="91.259766"/>
      <use xlink:href="#DejaVuSans-20" x="143.359375"/>
      <use xlink:href="#DejaVuSans-73" x="175.146484"/>
      <use xlink:href="#DejaVuSans-74" x="227.246094"/>
      <use xlink:href="#DejaVuSans-61" x="266.455078"/>
      <use xlink:href="#DejaVuSans-74" x="327.734375"/>
      <use xlink:href="#DejaVuSans-75" x="366.943359"/>
      <use xlink:href="#DejaVuSans-73" x="430.322266"/>
     </g>
    </g>
    <g id="line2d_99">
     <path d="M 1251.915797 322.237024 
L 1261.915797 322.237024 
L 1271.915797 322.237024 
" style="fill: none; stroke: #2ca02c; stroke-width: 1.5; stroke-linecap: square"/>
    </g>
    <g id="text_50">
     <!-- gis fetch -->
     <g transform="translate(1279.915797 325.737024) scale(0.1 -0.1)">
      <defs>
       <path id="DejaVuSans-68" d="M 3513 2113 
L 3513 0 
L 2938 0 
L 2938 2094 
Q 2938 2591 2744 2837 
Q 2550 3084 2163 3084 
Q 1697 3084 1428 2787 
Q 1159 2491 1159 1978 
L 1159 0 
L 581 0 
L 581 4863 
L 1159 4863 
L 1159 2956 
Q 1366 3272 1645 3428 
Q 1925 3584 2291 3584 
Q 2894 3584 3203 3211 
Q 3513 2838 3513 2113 
z
" transform="scale(0.015625)"/>
      </defs>
      <use xlink:href="#DejaVuSans-67"/>
      <use xlink:href="#DejaVuSans-69" x="63.476562"/>
      <use xlink:href="#DejaVuSans-73" x="91.259766"/>
      <use xlink:href="#DejaVuSans-20" x="143.359375"/>
      <use xlink:href="#DejaVuSans-66" x="175.146484"/>
      <use xlink:href="#DejaVuSans-65" x="210.351562"/>
      <use xlink:href="#DejaVuSans-74" x="271.875"/>
      <use xlink:href="#DejaVuSans-63" x="311.083984"/>
      <use xlink:href="#DejaVuSans-68" x="366.064453"/>
     </g>
    </g>
    <g id="line2d_100">
     <path d="M 1251.915797 336.915149 
L 1261.915797 336.915149 
L 1271.915797 336.915149 
" style="fill: none; stroke: #d62728; stroke-width: 1.5; stroke-linecap: square"/>
    </g>
    <g id="text_51">
     <!-- gis files -->
     <g transform="translate(1279.915797 340.415149) scale(0.1 -0.1)">
      <defs>
       <path id="DejaVuSans-6c" d="M 603 4863 
L 1178 4863 
L 1178 0 
L 603 0 
L 603 4863 
z
" transform="scale(0.015625)"/>
      </defs>
      <use xlink:href="#DejaVuSans-67"/>
      <use xlink:href="#DejaVuSans-69" x="63.476562"/>
      <use xlink:href="#DejaVuSans-73" x="91.259766"/>
      <use xlink:href="#DejaVuSans-20" x="143.359375"/>
      <use xlink:href="#DejaVuSans-66" x="175.146484"/>
      <use xlink:href="#DejaVuSans-69" x="210.351562"/>
      <use xlink:href="#DejaVuSans-6c" x="238.134766"/>
      <use xlink:href="#DejaVuSans-65" x="265.917969"/>
      <use xlink:href="#DejaVuSans-73" x="327.441406"/>
     </g>
    </g>
    <g id="line2d_101">
     <path d="M 1251.915797 351.593274 
L 1261.915797 351.593274 
L 1271.915797 351.593274 
" style="fill: none; stroke: #9467bd; stroke-width: 1.5; stroke-linecap: square"/>
    </g>
    <g id="text_52">
     <!-- gis branches -->
     <g transform="translate(1279.915797 355.093274) scale(0.1 -0.1)">
      <defs>
       <path id="DejaVuSans-72" d="M 2631 2963 
Q 2534 3019 2420 3045 
Q 2306 3072 2169 3072 
Q 1681 3072 1420 2755 
Q 1159 2438 1159 1844 
L 1159 0 
L 581 0 
L 581 3500 
L 1159 3500 
L 1159 2956 
Q 1341 3275 1631 3429 
Q 1922 3584 2338 3584 
Q 2397 3584 2469 3576 
Q 2541 3569 2628 3553 
L 2631 2963 
z
" transform="scale(0.015625)"/>
       <path id="DejaVuSans-6e" d="M 3513 2113 
L 3513 0 
L 2938 0 
L 2938 2094 
Q 2938 2591 2744 2837 
Q 2550 3084 2163 3084 
Q 1697 3084 1428 2787 
Q 1159 2491 1159 1978 
L 1159 0 
L 581 0 
L 581 3500 
L 1159 3500 
L 1159 2956 
Q 1366 3272 1645 3428 
Q 1925 3584 2291 3584 
Q 2894 3584 3203 3211 
Q 3513 2838 3513 2113 
z
" transform="scale(0.015625)"/>
      </defs>
      <use xlink:href="#DejaVuSans-67"/>
      <use xlink:href="#DejaVuSans-69" x="63.476562"/>
      <use xlink:href="#DejaVuSans-73" x="91.259766"/>
      <use xlink:href="#DejaVuSans-20" x="143.359375"/>
      <use xlink:href="#DejaVuSans-62" x="175.146484"/>
      <use xlink:href="#DejaVuSans-72" x="238.623047"/>
      <use xlink:href="#DejaVuSans-61" x="279.736328"/>
      <use xlink:href="#DejaVuSans-6e" x="341.015625"/>
      <use xlink:href="#DejaVuSans-63" x="404.394531"/>
      <use xlink:href="#DejaVuSans-68" x="459.375"/>
      <use xlink:href="#DejaVuSans-65" x="522.753906"/>
      <use xlink:href="#DejaVuSans-73" x="584.277344"/>
     </g>
    </g>
    <g id="line2d_102">
     <path d="M 1251.915797 366.271399 
L 1261.915797 366.271399 
L 1271.915797 366.271399 
" style="fill: none; stroke: #8c564b; stroke-width: 1.5; stroke-linecap: square"/>
    </g>
    <g id="text_53">
     <!-- gis checkout -->
     <g transform="translate(1279.915797 369.771399) scale(0.1 -0.1)">
      <defs>
       <path id="DejaVuSans-6b" d="M 581 4863 
L 1159 4863 
L 1159 1991 
L 2875 3500 
L 3609 3500 
L 1753 1863 
L 3688 0 
L 2938 0 
L 1159 1709 
L 1159 0 
L 581 0 
L 581 4863 
z
" transform="scale(0.015625)"/>
      </defs>
      <use xlink:href="#DejaVuSans-67"/>
      <use xlink:href="#DejaVuSans-69" x="63.476562"/>
      <use xlink:href="#DejaVuSans-73" x="91.259766"/>
      <use xlink:href="#DejaVuSans-20" x="143.359375"/>
      <use xlink:href="#DejaVuSans-63" x="175.146484"/>
      <use xlink:href="#DejaVuSans-68" x="230.126953"/>
      <use xlink:href="#DejaVuSans-65" x="293.505859"/>
      <use xlink:href="#DejaVuSans-63" x="355.029297"/>
      <use xlink:href="#DejaVuSans-6b" x="410.009766"/>
      <use xlink:href="#DejaVuSans-6f" x="464.294922"/>
      <use xlink:href="#DejaVuSans-75" x="525.476562"/>
      <use xlink:href="#DejaVuSans-74" x="588.855469"/>
     </g>
    </g>
   </g>
  </g>
 </g>
 <defs>
  <clipPath id="p1f9ebf4140">
   <rect x="42.765865" y="3.00024" width="1309.787432" height="654.632943"/>
  </clipPath>
 </defs>
</svg>
